<svg width="125" height="37" viewBox="0 0 125 37" fill="none" xmlns="http://www.w3.org/2000/svg">
<g opacity="0.5">
<path fill-rule="evenodd" clip-rule="evenodd" d="M121.526 26.3805C122.857 25.9977 123.254 24.3979 124.385 23.9849C125.442 25.5425 124.432 28.3994 122.457 28.7944C121.976 28.8905 121.397 28.7045 121.224 28.2631L121.526 26.3805Z" fill="white"/>
<path fill-rule="evenodd" clip-rule="evenodd" d="M122.476 28.25C122.374 28.2843 122.362 28.2908 122.383 28.2853C122.412 28.2739 122.442 28.2629 122.471 28.2524L122.476 28.25ZM124.513 23.8305C124.25 23.5528 123.886 23.5365 123.491 23.8082C123.096 24.0801 122.727 24.4682 122.431 24.8404C122.108 25.2466 121.795 25.6482 121.319 25.888C121.31 25.8926 121.285 25.9022 121.269 25.9084C121.233 25.921 121.197 25.9335 121.161 25.9447C120.886 26.0293 120.71 26.3099 120.788 26.5897C120.863 26.8561 121.168 27.0408 121.444 26.9558C121.922 26.8089 122.336 26.5174 122.682 26.1663C123.083 25.7584 123.363 25.2093 123.83 24.8669C123.843 24.8618 123.9 25.1287 123.904 25.1511C123.909 25.1797 123.913 25.2083 123.917 25.237C123.915 25.2313 123.914 25.2255 123.914 25.2198C123.933 25.3157 123.938 25.4142 123.938 25.5118C123.938 25.5395 123.937 25.5672 123.936 25.595C123.91 26.4888 123.53 27.5488 122.731 28.0538C122.62 28.1241 122.498 28.1879 122.375 28.2363C122.125 28.3344 121.669 28.4357 121.513 28.1271C121.516 28.1368 121.518 28.1468 121.522 28.1563C121.41 27.902 121.158 27.72 120.869 27.798C120.618 27.8658 120.386 28.1799 120.497 28.4429C120.662 28.8333 120.928 29.1021 121.33 29.2598C122.242 29.618 123.256 29.099 123.875 28.4511C124.605 27.6875 125.001 26.6148 125 25.5723C124.999 25.0015 124.93 24.2705 124.513 23.8305Z" fill="white"/>
<path fill-rule="evenodd" clip-rule="evenodd" d="M110.132 5.83119C110.3 5.60084 110.388 5.32231 110.43 5.04259C110.588 4.00019 110.119 2.91553 109.318 2.20432C108.518 1.49305 107.422 1.13832 106.338 1.11621C105.76 1.10445 105.077 1.2541 104.858 1.77333C104.633 2.30503 105.056 2.9094 105.578 3.18025C106.1 3.4511 106.709 3.50934 107.262 3.71314C108.437 4.14631 109.298 5.28865 109.368 6.50754L110.132 5.83119Z" fill="white"/>
<path fill-rule="evenodd" clip-rule="evenodd" d="M114.565 6.8794C115.452 5.1995 117.254 4.25875 118.819 3.18079C119.37 2.8015 119.96 2.27204 119.897 1.60681C119.837 0.972293 119.152 0.536893 118.514 0.558563C117.876 0.580304 117.301 0.945386 116.817 1.36069C115.276 2.68311 114.318 4.66114 114.237 6.68903L114.565 6.8794Z" fill="white"/>
<path fill-rule="evenodd" clip-rule="evenodd" d="M118.968 2.41463C118.648 2.68796 118.277 2.89466 117.928 3.12762C117.545 3.38301 117.162 3.6389 116.783 3.90052C116.118 4.35949 115.469 4.86159 114.924 5.45557C114.95 5.34799 114.979 5.23802 115.012 5.12392C115.173 4.56474 115.352 4.13608 115.634 3.63283C115.921 3.12024 116.216 2.70981 116.599 2.29713C116.99 1.87549 117.391 1.50572 117.892 1.24931C118.316 1.03234 119.062 0.985533 119.344 1.44632C119.581 1.83244 119.244 2.17942 118.968 2.41463ZM119.935 0.508975C119.403 0.0476105 118.708 -0.0963625 118.026 0.061863C117.349 0.218931 116.762 0.657723 116.26 1.11742C115.779 1.55752 115.357 2.06468 114.998 2.60729C114.192 3.8239 113.735 5.25726 113.671 6.71132C113.66 6.97155 113.876 7.19656 114.124 7.23996C114.164 7.28931 114.212 7.33279 114.27 7.36679C114.515 7.50924 114.87 7.43075 115.008 7.17427C115.562 6.1436 116.487 5.39849 117.449 4.74417C117.952 4.40138 118.468 4.07712 118.973 3.736C119.496 3.38243 120.051 2.97713 120.316 2.38489C120.606 1.73839 120.483 0.983941 119.935 0.508975Z" fill="white"/>
<path fill-rule="evenodd" clip-rule="evenodd" d="M108.539 3.85031C108.098 3.49466 107.607 3.24736 107.057 3.09246C106.769 3.0118 106.476 2.95058 106.192 2.86053C105.912 2.77176 105.681 2.63893 105.473 2.43441C105.475 2.43597 105.479 2.4374 105.479 2.43789C105.376 2.29801 105.259 2.08801 105.365 1.92015C105.705 1.37984 106.619 1.58956 107.131 1.69841C107.393 1.75407 107.659 1.83231 107.908 1.92827C108.33 2.09029 108.786 2.38372 109.119 2.72335C109.493 3.10449 109.757 3.57745 109.881 4.10666C109.987 4.5624 109.985 5.10626 109.718 5.53274C109.49 4.88252 109.088 4.29181 108.539 3.85031ZM108.865 6.4075C108.865 6.40843 108.865 6.40951 108.866 6.41058C108.884 6.52837 108.871 6.44651 108.865 6.4075ZM111.003 4.27879C110.927 3.6658 110.717 3.07552 110.363 2.56019C109.648 1.51837 108.472 0.849858 107.212 0.645124C106.626 0.550019 105.998 0.499974 105.42 0.669114C104.786 0.854912 104.296 1.3125 104.235 1.97447C104.175 2.61501 104.628 3.20572 105.146 3.54706C105.884 4.03269 106.839 3.99126 107.585 4.46323C108.026 4.74172 108.375 5.15246 108.59 5.61788C108.672 5.7945 108.742 5.98556 108.786 6.17464C108.802 6.24262 108.816 6.3111 108.827 6.38001C108.832 6.43233 108.836 6.48458 108.84 6.53705C108.859 6.8218 109.076 7.06533 109.382 7.06533C109.661 7.06533 109.944 6.82322 109.925 6.53705C109.922 6.49128 109.918 6.44565 109.913 6.40001H110.557V6.19742C110.58 6.1735 110.601 6.14773 110.62 6.11997C110.984 5.59674 111.079 4.89619 111.003 4.27879Z" fill="white"/>
<path fill-rule="evenodd" clip-rule="evenodd" d="M121.569 18.0929C121.372 14.3172 120.591 8.89292 116.434 7.24019C112.605 5.71765 108.133 6.23917 104.373 7.69933C101.004 9.00745 99.6489 11.603 99.5108 15.0538L99.5793 14.9616C103.247 14.793 106.916 14.6244 110.584 14.4559C112.139 14.3844 113.951 14.423 114.9 15.6307C115.742 16.7023 115.738 18.4775 115.84 19.7622C115.997 21.7391 116.291 23.9059 115.602 25.8207C114.654 28.4588 112.197 28.396 109.75 28.426C106.084 28.4708 102.417 28.4256 98.7538 28.2901C99.5714 31.0013 102.113 32.9569 104.859 33.8309C108.433 34.9685 113.652 35.1331 117.253 33.9825C120.189 33.0446 121.422 30.3919 121.66 27.5503C121.923 24.4091 121.733 21.2329 121.569 18.0929Z" fill="white"/>
<path fill-rule="evenodd" clip-rule="evenodd" d="M107.101 9.48914C107.04 9.85975 107.045 10.2198 107.154 10.5824C107.234 10.8444 107.529 11.0364 107.805 10.948C108.072 10.8623 108.259 10.585 108.174 10.3042C108.157 10.2474 108.142 10.1912 108.129 10.1332C108.096 9.98454 108.124 10.191 108.116 10.039C108.113 9.9801 108.111 9.92134 108.114 9.86237C108.114 9.84741 108.132 9.69638 108.121 9.76742C108.165 9.49831 108.05 9.19096 107.751 9.1236C107.497 9.06618 107.149 9.20013 107.101 9.48914Z" fill="white"/>
<path fill-rule="evenodd" clip-rule="evenodd" d="M104.607 9.66219V10.4181C104.607 10.7065 104.868 10.9827 105.174 10.9694C105.481 10.9559 105.74 10.7272 105.74 10.4181V9.66219C105.74 9.3739 105.48 9.09765 105.174 9.11102C104.867 9.12439 104.607 9.35318 104.607 9.66219Z" fill="white"/>
<path fill-rule="evenodd" clip-rule="evenodd" d="M105.379 34.0289C105.252 34.617 105.125 35.2051 104.998 35.7932C104.939 36.0656 105.083 36.3482 105.397 36.4257C105.678 36.495 106.042 36.3405 106.101 36.0666C106.228 35.4785 106.355 34.8904 106.483 34.3022C106.541 34.03 106.397 33.7473 106.083 33.6697C105.803 33.6005 105.439 33.755 105.379 34.0289Z" fill="white"/>
<path fill-rule="evenodd" clip-rule="evenodd" d="M107.101 34.9949C107.066 35.4195 107.056 35.8447 107.071 36.2706C107.082 36.564 107.305 36.8141 107.597 36.8141C107.873 36.8141 108.133 36.5653 108.122 36.2706C108.107 35.8447 108.117 35.4195 108.152 34.9949C108.177 34.7021 107.893 34.4514 107.627 34.4514C107.322 34.4514 107.126 34.7013 107.101 34.9949Z" fill="white"/>
<path fill-rule="evenodd" clip-rule="evenodd" d="M113.31 34.9482C113.336 35.3943 113.361 35.8404 113.387 36.2866C113.403 36.5712 113.64 36.8141 113.963 36.8141C114.263 36.8141 114.557 36.5725 114.54 36.2866C114.515 35.8404 114.489 35.3943 114.464 34.9482C114.448 34.6636 114.21 34.4207 113.887 34.4207C113.587 34.4207 113.294 34.6623 113.31 34.9482Z" fill="white"/>
<path fill-rule="evenodd" clip-rule="evenodd" d="M115.007 34.8716C115.112 35.3373 115.233 35.7994 115.37 36.258C115.565 36.907 116.675 36.6315 116.48 35.9798C116.343 35.5212 116.221 35.0591 116.116 34.5934C116.054 34.3165 115.694 34.1567 115.408 34.228C115.092 34.3071 114.944 34.5939 115.007 34.8716Z" fill="white"/>
<path fill-rule="evenodd" clip-rule="evenodd" d="M120.972 27.416C120.891 28.2893 120.743 29.1543 120.444 29.984C120.308 30.3628 120.141 30.7295 119.94 31.079C119.565 31.7267 119.05 32.3425 118.425 32.7647C117.838 33.1602 117.164 33.4362 116.486 33.636C116.089 33.7528 115.684 33.8423 115.278 33.9237C114.12 34.1558 112.933 34.2449 111.752 34.2619C111.092 34.2713 110.432 34.2544 109.773 34.2116C108.64 34.1381 107.508 33.9926 106.4 33.7429C105.281 33.4908 104.18 33.1351 103.171 32.5901C102.605 32.2847 102.062 31.9325 101.57 31.5203C100.925 30.9799 100.355 30.3569 99.9151 29.6417C99.7685 29.4031 99.6357 29.1561 99.5189 28.9019C99.5127 28.8884 99.5068 28.875 99.5007 28.8615C102.736 28.9703 105.973 29.0097 109.21 28.9764C110.422 28.9638 111.665 28.9998 112.855 28.7362C114.002 28.482 115.008 27.8513 115.603 26.8343C116.383 25.5026 116.491 23.8493 116.439 22.3469C116.412 21.5689 116.338 20.7938 116.273 20.0183C116.22 19.3827 116.196 18.7448 116.127 18.1106C115.98 16.7631 115.63 15.3626 114.408 14.5773C113.304 13.8679 111.865 13.8522 110.595 13.9059C107.112 14.0529 103.63 14.2283 100.147 14.3896C100.123 14.3907 100.099 14.3914 100.076 14.3923L100.061 14.3741C100.066 14.3157 100.071 14.2573 100.077 14.199C100.153 13.4655 100.312 12.7357 100.563 12.0409C100.603 11.931 100.645 11.8225 100.689 11.7142C100.691 11.7101 100.692 11.7069 100.694 11.7041C100.701 11.6858 100.709 11.6676 100.717 11.6495C100.746 11.5864 100.775 11.5236 100.805 11.4612C101.222 10.5951 101.824 9.82507 102.591 9.23342C103.601 8.45476 104.814 7.98289 106.033 7.62771C106.382 7.52619 106.734 7.43455 107.086 7.34792C108.44 7.01529 109.828 6.82578 111.224 6.8222C111.631 6.82113 112.038 6.83588 112.443 6.86702C113.099 6.91735 113.701 7.00749 114.359 7.16013C115.379 7.39639 116.401 7.73854 117.264 8.33649C117.866 8.75288 118.366 9.31547 118.773 9.91392C119.405 10.8409 119.828 11.8911 120.126 12.9645C120.282 13.5273 120.407 14.0986 120.51 14.6733C120.74 15.9705 120.831 17.2862 120.899 18.6001C120.919 18.9774 120.937 19.3548 120.956 19.7321C121.057 21.727 121.133 23.7257 121.067 25.723C121.048 26.2859 121.024 26.8527 120.972 27.416ZM119.641 11.4819C119.622 11.4375 119.565 11.2963 119.641 11.4819V11.4819ZM122.168 24.1118C122.166 22.4928 122.092 20.8751 122.008 19.2585C121.988 18.8678 121.968 18.477 121.948 18.0862C121.842 16.0616 121.612 14.0061 120.976 12.0698C120.327 10.0915 119.2 8.18163 117.328 7.11516C116.183 6.46301 114.825 6.11321 113.526 5.92663C112.091 5.72058 110.642 5.71271 109.203 5.88826C107.765 6.06366 106.353 6.38755 104.986 6.85929C103.804 7.26687 102.685 7.76996 101.718 8.56702C100.01 9.97556 99.2221 12.0641 99.0005 14.199C98.9714 14.4789 98.9527 14.7598 98.9409 15.0409C98.9313 15.2724 99.115 15.4933 99.3362 15.5532C99.5021 15.5982 99.6565 15.5586 99.783 15.4689C103.039 15.3181 106.295 15.1673 109.552 15.0164C110.246 14.9843 110.941 14.9367 111.637 14.9554C112.312 14.9737 113.022 15.0434 113.63 15.3589C114.459 15.7895 114.788 16.6073 114.955 17.4721C114.969 17.5461 114.982 17.6203 114.995 17.6946C115.032 17.9253 115.066 18.2437 115.092 18.5551C115.115 18.8485 115.133 19.1423 115.152 19.4359C115.199 20.1383 115.272 20.8386 115.32 21.5409C115.341 21.8554 115.362 22.1699 115.37 22.4851C115.379 22.7998 115.376 23.1149 115.362 23.4295C115.349 23.7441 115.326 24.0589 115.285 24.3714C115.244 24.6811 115.183 24.988 115.09 25.2868C115.006 25.5554 114.9 25.8218 114.785 26.0789C114.717 26.2294 114.634 26.3715 114.541 26.5081C114.51 26.5526 114.479 26.5964 114.446 26.6395C114.447 26.6368 114.38 26.7187 114.363 26.7375C114.273 26.8393 114.176 26.9354 114.074 27.0249C114.038 27.0556 114.002 27.085 113.965 27.1141C113.863 27.1796 113.768 27.2514 113.662 27.311C113.519 27.3909 113.372 27.4606 113.219 27.5198C113.132 27.5535 113.044 27.584 112.955 27.6113C112.71 27.6862 112.459 27.7397 112.206 27.7809C112.157 27.7889 112.108 27.796 112.059 27.803C112.048 27.804 111.951 27.8165 111.929 27.8188C111.794 27.8338 111.658 27.8457 111.523 27.8556C110.97 27.8957 110.415 27.9002 109.861 27.9065C106.56 27.9434 103.261 27.9196 99.9617 27.8152C99.55 27.8022 99.1383 27.7879 98.7266 27.7726C98.3811 27.7598 98.1096 28.123 98.2075 28.4451C98.9359 30.8423 100.88 32.6924 103.125 33.7599C104.25 34.2952 105.451 34.6415 106.675 34.8795C107.999 35.1372 109.35 35.2794 110.7 35.317C112.06 35.3551 113.421 35.2806 114.767 35.0836C115.981 34.9059 117.243 34.6413 118.338 34.073C120.425 32.9892 121.554 30.8082 121.913 28.5814C122.15 27.111 122.169 25.5976 122.168 24.1118Z" fill="white"/>
<path fill-rule="evenodd" clip-rule="evenodd" d="M101.893 23.0296C102.101 23.2742 102.54 23.2809 102.86 23.1864C103.186 23.09 103.503 22.9386 103.817 22.8065C103.965 22.7439 104.117 22.6883 104.269 22.6353C104.214 22.7266 104.16 22.8178 104.105 22.9091C103.975 23.1267 103.804 23.3455 103.716 23.5844C103.63 23.8173 103.685 24.068 103.879 24.2311C104.115 24.4298 104.471 24.4283 104.703 24.2258C104.88 24.0715 104.964 23.8523 105.026 23.6326C105.058 23.521 105.081 23.4073 105.112 23.2955C105.125 23.246 105.192 23.0478 105.218 23C105.356 23.5108 105.337 24.0434 105.551 24.5364C105.641 24.7464 105.777 24.9946 106.011 25.0714C106.558 25.2516 106.839 24.552 106.856 24.1356C106.873 23.7045 106.801 23.2509 106.72 22.8287C106.708 22.7672 106.607 22.3188 106.572 22.222C106.733 22.3009 106.911 22.3925 107.055 22.4757C107.246 22.5864 107.453 22.6867 107.666 22.7501C108.224 22.9167 108.792 22.817 109.309 22.5699C109.764 22.3527 110.338 21.8347 109.961 21.297C109.847 21.1343 109.669 21.024 109.482 20.956C109.254 20.8734 109.002 20.837 108.762 20.804C108.072 20.7088 107.364 20.5997 106.68 20.7935C106.677 20.7942 106.999 20.4703 107.142 20.278C107.179 20.216 107.216 20.154 107.254 20.0919C107.285 20.0395 107.307 19.9876 107.322 19.9365C107.373 19.9835 107.431 20.0186 107.497 20.0399C107.572 20.079 107.652 20.0969 107.739 20.0937C107.753 20.0935 107.768 20.0933 107.783 20.0931C107.896 20.0927 108.001 20.0644 108.099 20.0079C108.142 19.9754 108.184 19.9428 108.226 19.9103C108.304 19.8324 108.358 19.7406 108.388 19.6348L108.41 19.4689C108.413 19.383 108.395 19.3028 108.356 19.2284C108.331 19.151 108.288 19.084 108.226 19.0275C108.17 18.9666 108.102 18.9236 108.024 18.8984C107.95 18.8593 107.869 18.8414 107.783 18.8446C107.768 18.8448 107.753 18.845 107.739 18.8452C107.625 18.8456 107.52 18.874 107.422 18.9304C107.38 18.963 107.337 18.9955 107.295 19.0281C107.217 19.1059 107.163 19.1978 107.134 19.3035L107.129 19.3349C107.01 19.2331 106.856 19.1694 106.7 19.1636C106.81 19.0772 106.881 18.9437 106.881 18.7934C106.881 18.5284 106.661 18.3146 106.393 18.3222C106.137 18.3295 105.928 18.5485 105.933 18.8031C105.938 19.0415 106.121 19.2364 106.355 19.2617C106.286 19.3094 106.222 19.3744 106.17 19.4618C106.137 19.5174 106.103 19.5731 106.07 19.6286C106.07 19.6286 105.663 20.4114 105.663 20.4109C105.115 19.4494 104.656 18.2153 103.398 18.0479C103.122 18.0111 102.809 18.047 102.621 18.252C102.318 18.5821 102.475 19.096 102.661 19.4397C102.799 19.6949 102.976 19.9283 103.184 20.1311C103.386 20.3279 103.802 20.5979 103.988 20.8095C103.509 21.0475 103.033 21.2975 102.6 21.6118C102.398 21.7587 102.181 21.9107 102.016 22.1001C101.878 22.259 101.776 22.4588 101.775 22.6691C101.774 22.8239 101.819 22.942 101.893 23.0296Z" fill="white"/>
<path fill-rule="evenodd" clip-rule="evenodd" d="M92.0371 19.1755C91.7486 19.4114 91.3595 19.5013 91.0919 19.5485C90.9867 19.5671 90.8714 19.5819 90.718 19.5962C90.4631 19.6202 90.1995 19.6261 89.9442 19.6261C89.8733 19.6261 89.8031 19.6257 89.7338 19.6251C89.5574 19.6233 89.3704 19.6182 89.1619 19.6092L89.092 19.6062L89.0922 19.5378C89.0959 17.7864 89.1028 16.0124 89.1096 14.2928L89.1121 13.6592C89.116 12.6373 89.1199 11.6154 89.1231 10.5934L89.1234 10.5324L89.1851 10.5232C89.6188 10.4585 90.0513 10.4419 90.3796 10.4347C90.8426 10.4248 91.2288 10.4661 91.5601 10.5614C91.9066 10.661 92.184 10.9305 92.3411 11.3202C92.5354 11.8023 92.6065 12.3459 92.6503 12.8141C92.6602 12.9202 92.6683 13.0286 92.6741 13.1362C92.6835 13.3102 92.6908 13.485 92.6957 13.6558C92.7109 14.1979 92.7221 14.6543 92.7267 15.1198C92.7281 15.26 92.7289 15.4002 92.7291 15.5404C92.7296 15.7764 92.7283 16.0122 92.7252 16.2414C92.7208 16.5522 92.716 16.9012 92.6866 17.2405C92.6596 17.5538 92.6058 17.8723 92.5223 18.2143C92.433 18.5805 92.3123 18.9505 92.0371 19.1755ZM96.235 20.0528C96.9492 18.2511 96.8911 16.2743 96.8348 14.3627V14.3605C96.8291 14.1698 96.8235 13.9784 96.8187 13.7886C96.7681 11.7575 96.4804 9.23805 94.6908 7.77214C93.768 7.01644 92.6082 6.56912 91.2435 6.44274C90.1987 6.34567 89.0506 6.4299 87.7333 6.69978L87.7143 6.7037L87.6957 6.69778C87.5112 6.63887 87.3214 6.60906 87.1307 6.60906C87.1042 6.60906 87.0776 6.60963 87.051 6.61077C86.5095 6.63466 86.0026 6.84605 85.6238 7.20608C85.2289 7.58143 85.0108 8.08495 85.0097 8.62406C85.006 10.4566 84.9985 12.3207 84.9912 14.1235L84.9907 14.2098C84.9702 19.2151 84.949 24.3907 85.0098 29.4932C85.0163 30.0418 85.263 30.5811 85.6867 30.9728C86.0783 31.3347 86.5788 31.5252 87.0873 31.5025C88.245 31.4519 89.1417 30.5652 89.1287 29.484C89.1078 27.7202 89.096 25.8835 89.0916 23.704L89.0914 23.6299L89.1672 23.6326C89.9113 23.6592 91.0304 23.6676 92.1582 23.4338C94.0532 23.0409 95.5391 21.8086 96.235 20.0528Z" fill="white"/>
<path fill-rule="evenodd" clip-rule="evenodd" d="M0.539795 28.3944C1.0073 29.3931 1.76053 30.2443 2.66076 30.7913C4.02414 31.6199 5.85815 31.7333 7.56673 31.095C7.79645 31.0092 8.02327 30.9094 8.24093 30.7985C9.85009 29.9782 10.9307 28.3118 11.2838 26.1059C11.6091 24.0725 11.5955 22.1377 11.2445 20.5109C11.051 19.6142 10.675 18.7584 10.1572 18.0363L10.1314 18.0002L10.1527 17.9613C10.9126 16.5767 11.0763 14.9596 11.1339 13.7056C11.2166 11.9091 11.1567 10.0542 10.1669 8.65741C9.76126 8.08488 9.21626 7.58585 8.59093 7.21419C7.54632 6.59349 6.29319 6.3149 5.0625 6.42879C3.39227 6.58372 2.1281 7.25558 1.19781 8.48293C0.757389 9.06389 0.444216 9.77336 0.240421 10.6518L0.235555 10.6729C0.00960851 11.6467 -0.223964 12.6535 0.512922 13.4311C0.931479 13.8729 1.52943 14.1338 2.07334 14.1096C3.18927 14.061 3.96741 13.313 4.1041 12.1576C4.15792 11.7021 4.25444 11.326 4.39076 11.04C4.57989 10.6432 4.88609 10.4128 5.2761 10.3738C5.84101 10.3171 6.7445 10.4897 6.9183 11.1966C7.0539 11.7479 7.0592 12.3233 7.05361 12.8194C7.04714 13.3838 7.03988 14.0235 6.91714 14.6415C6.85584 14.9502 6.7819 15.3081 6.68015 15.6476C6.65415 15.7341 6.62198 15.8365 6.58043 15.9406L6.55683 15.9998L6.4943 15.9836C6.00638 15.8574 5.4539 15.9385 4.97876 16.2067C4.48983 16.4826 4.14339 16.9222 4.02842 17.4129C3.77509 18.4941 4.34239 19.4722 5.44017 19.8468C5.72393 19.9435 6.01698 20.0085 6.31106 20.0397L6.3189 20.0409C6.35579 20.0489 6.39392 20.0526 6.43598 20.0514C6.47549 20.0538 6.50708 20.0558 6.53809 20.0574L6.56714 20.059L6.58704 20.0797C7.19567 20.7132 7.31986 21.5957 7.36032 22.2043C7.40767 22.9172 7.40665 23.6809 7.35734 24.474C7.32451 25.0014 7.26488 25.4353 7.16974 25.8393C7.06319 26.2918 6.93043 26.7618 6.58741 27.0982C6.21206 27.4662 5.45259 27.6853 4.92001 27.4249C4.60705 27.2719 4.41706 27.0081 4.31276 26.8139C4.11318 26.4422 4.09255 26.0851 4.07069 25.707C4.06445 25.5987 4.05798 25.4867 4.04701 25.3735C3.9725 24.6018 3.35639 23.9173 2.5821 23.746C2.4184 23.7098 2.25106 23.6922 2.0846 23.6922C1.54141 23.6922 1.0073 23.8792 0.637044 24.2157C0.0259499 24.7711 -0.0243089 25.5589 0.00706652 26.2563C0.0396766 26.9804 0.223862 27.7197 0.539795 28.3944Z" fill="white"/>
<path fill-rule="evenodd" clip-rule="evenodd" d="M36.0876 11.741L36.0913 11.7692C36.1537 12.2542 36.2128 12.7475 36.2666 13.2353C36.3742 14.2097 36.4652 15.1989 36.5373 16.1755C36.6123 17.1931 36.6473 18.2952 36.6473 19.6437C36.629 20.5717 36.5709 21.5189 36.4695 22.5407C36.3767 23.4747 36.2807 24.1843 36.158 24.8418L36.1539 24.8638C35.9585 25.9125 35.6639 27.4922 34.2224 27.4923C34.2091 27.4923 34.1957 27.4921 34.1822 27.4918C33.6317 27.4808 33.1848 27.2276 32.8539 26.7391C32.5466 26.2855 32.3377 25.6208 32.2328 24.7632C32.0082 22.9257 32.0475 21.0451 32.0854 19.2264L32.0908 18.9684C32.1322 16.9507 32.2658 14.8886 32.3878 13.1143C32.3976 12.9725 32.4055 12.8294 32.4134 12.6855C32.4499 12.0278 32.4874 11.3479 32.7044 10.7181C32.7303 10.6608 32.7555 10.6169 32.7818 10.5813L32.8124 10.5401L32.8703 10.5572C32.901 10.5665 32.9323 10.5758 32.9644 10.5843C33.7711 10.7975 34.4364 10.7197 34.9419 10.3532C34.9627 10.3381 34.9835 10.3222 35.0041 10.3055L35.0448 10.2725L35.0896 10.2998C35.2416 10.3923 35.3841 10.445 35.5384 10.4659L35.5861 10.4724C35.6372 10.4791 35.7097 10.4891 35.7459 10.4988C35.8509 10.527 35.9162 10.6835 35.9868 11.0766L35.9932 11.1115C36.0336 11.3208 36.0611 11.5344 36.0876 11.741ZM34.7104 6.91989L34.6732 6.94856L34.6312 6.92695C34.0819 6.64484 33.4683 6.50464 32.849 6.50464C32.143 6.50464 31.4299 6.68663 30.7958 7.0479C29.7891 7.62154 29.0287 8.6123 28.6548 9.83753C28.3917 10.6996 28.3382 11.6183 28.2865 12.5068C28.2737 12.7257 28.2606 12.9511 28.2443 13.17C28.1637 14.2522 28.1013 15.2576 28.0535 16.2436C27.9424 18.5432 27.9174 20.6241 27.9771 22.6055L27.9774 22.6155C28.0404 24.7117 28.1056 26.879 29.2807 28.7457C30.3678 30.4732 32.1871 31.5044 34.1473 31.5043C34.3919 31.5043 34.6401 31.4881 34.8848 31.456C35.8179 31.3338 36.6674 31.0293 37.4097 30.551C38.1776 30.056 38.7908 29.4003 39.2324 28.6016C39.9842 27.2419 40.2169 25.7625 40.4066 24.2398C40.6764 22.0775 40.7931 20.4042 40.7851 18.8144C40.7739 16.6107 40.5428 14.4451 40.2647 12.0455C40.1299 10.8829 39.9476 9.65205 39.3405 8.50811C39.0328 7.9279 38.5486 7.37865 38.0121 7.00119C37.3625 6.54429 36.6638 6.3434 35.9925 6.41963C35.5163 6.47376 35.061 6.6514 34.7104 6.91989Z" fill="white"/>
<path fill-rule="evenodd" clip-rule="evenodd" d="M63.3333 21.2139C63.3104 21.2416 63.2787 21.2572 63.2436 21.2587C62.5519 21.2891 61.8558 21.3171 61.1747 21.3421C61.1312 21.3399 61.1017 21.3265 61.0798 21.3023C61.0545 21.2737 61.0444 21.2377 61.0512 21.2006C61.1251 20.7932 61.177 20.3739 61.227 19.9684C61.3252 19.1765 61.4553 18.3764 61.5812 17.6026C61.683 16.9761 61.7885 16.3283 61.876 15.6895L61.9083 15.4522C61.9582 15.0842 62.0083 14.7151 62.0569 14.3635C62.0698 14.2707 62.1457 14.2606 62.1778 14.2606C62.2105 14.2608 62.2867 14.2714 62.2986 14.3651L62.3837 15.0448C62.5323 16.2325 62.7198 17.435 62.9011 18.598L62.9733 19.0626C62.9959 19.2077 63.0223 19.3548 63.048 19.4971C63.0922 19.7431 63.1414 19.9929 63.189 20.2346L63.1919 20.2496C63.2452 20.5201 63.3002 20.7999 63.3581 21.1183C63.3643 21.1525 63.3556 21.1864 63.3333 21.2139ZM64.4804 25.4615C64.849 26.8518 65.2794 28.4948 65.6773 30.1386C65.8038 30.6616 66.1761 31.1263 66.6989 31.4135C67.0285 31.5945 67.3926 31.6903 67.7517 31.6903C67.9503 31.6903 68.1438 31.661 68.3267 31.6033C69.4509 31.2483 70.0711 30.181 69.8013 29.0653C69.3045 27.013 68.7521 24.9393 68.2178 22.9339L68.2144 22.9208C67.8271 21.4678 67.4267 19.9654 67.0477 18.4704C66.7987 17.4885 66.5543 16.4866 66.318 15.5177L66.3131 15.4977C65.7053 13.0062 65.0776 10.4327 64.31 7.93265C64.1414 7.38405 63.7386 6.91267 63.2047 6.6393C62.3992 6.22654 61.3004 6.40603 60.6317 6.79621C60.1839 7.05748 59.8485 7.4743 59.7114 7.9397C59.7042 7.96385 59.6976 7.98806 59.6915 8.01249C58.9065 11.1514 58.2025 14.3598 57.5218 17.4626C56.6924 21.2437 55.8348 25.1528 54.8252 28.9578C54.6789 29.5087 54.7751 30.1132 55.089 30.6165C55.3796 31.0824 55.8234 31.4019 56.3383 31.5166C56.8804 31.6367 57.4449 31.5628 57.9274 31.3079C58.4397 31.0372 58.8008 30.5907 58.9442 30.0504C59.3013 28.7042 59.6622 27.2594 60.047 25.6336C60.0594 25.581 60.1066 25.5429 60.1618 25.5411C61.5781 25.4945 62.9896 25.4379 64.3571 25.3731C64.3592 25.373 64.3611 25.373 64.3631 25.373C64.4178 25.373 64.4666 25.4094 64.4804 25.4615Z" fill="white"/>
<path fill-rule="evenodd" clip-rule="evenodd" d="M75.466 10.2536C75.6661 10.2335 75.8745 10.215 75.9119 10.213L76.0019 10.2077C76.2679 10.1924 76.5429 10.1763 76.8139 10.1861C77.2645 10.2021 77.5895 10.2944 77.8076 10.4681C78.0337 10.6484 78.1992 10.9137 78.2994 11.2566C78.4298 11.7025 78.5227 12.1779 78.5756 12.6695C78.6182 13.0648 78.6622 13.5816 78.6249 14.0738C78.6219 14.1133 78.6185 14.1529 78.6143 14.1925C78.548 14.822 78.2842 15.2971 77.8304 15.6047C77.5098 15.822 77.1019 15.9676 76.6505 16.0257C76.2489 16.0776 75.8291 16.0851 75.4232 16.0924L75.2684 16.0952C75.2345 16.0957 75.1985 16.0962 75.1614 16.0962L75.0897 16.0964L75.0887 16.0256C75.0112 10.3758 75.0112 10.3758 75.0112 10.3751C75.0103 10.2994 75.0188 10.2986 75.466 10.2536ZM79.2113 22.6647C79.2838 23.6375 79.3034 24.6251 79.2693 25.5999C79.2656 25.7084 79.2562 25.8186 79.2471 25.9252C79.2355 26.0611 79.2235 26.2018 79.2235 26.337L79.2219 26.3576C79.189 26.6978 79.1479 27.1212 78.8916 27.4003C78.7185 27.5887 78.4523 27.699 78.1003 27.7282C77.9036 27.7445 77.7019 27.7468 77.5068 27.749C77.4228 27.7499 77.3391 27.7509 77.256 27.7529C76.9955 27.7593 76.728 27.7624 76.4511 27.7624C76.0922 27.7624 75.7172 27.7571 75.3193 27.7464L75.2497 27.7445L75.1462 20.2108L75.201 20.1965C75.2331 20.1882 75.2654 20.1804 75.2973 20.1727C75.3395 20.1627 75.3791 20.1531 75.4141 20.1432C76.2411 19.909 77.2051 20.0405 77.9921 20.4947C78.1306 20.5745 78.2662 20.6729 78.3954 20.7867C78.6259 20.9892 78.7926 21.1931 78.9048 21.4105C79.1279 21.8428 79.1867 22.3333 79.2113 22.6647ZM73.2162 6.40571C72.0628 6.45669 71.171 7.3471 71.186 8.43291L71.4777 29.6719C71.4851 30.2239 71.7314 30.7657 72.1532 31.1587C72.5422 31.5208 73.0381 31.7112 73.5439 31.6885C73.8398 31.6754 74.1388 31.6002 74.4086 31.4711L74.4252 31.4631L74.4436 31.4639C75.0956 31.4944 75.7677 31.5104 76.4415 31.5116L76.5886 31.5115C77.4319 31.5115 78.3039 31.5115 79.1607 31.3474C80.8318 31.0272 82.1995 29.7863 82.73 28.109C83.0231 27.1819 83.0635 26.1594 83.0784 25.2738C83.0909 24.5225 83.0668 23.7004 83.0023 22.6863C82.8731 20.6579 82.1951 19.1259 80.9297 18.0027L80.8738 17.9531L80.926 17.8997C81.3186 17.4975 81.6322 17.0408 81.8581 16.5421C82.2477 15.6817 82.7089 14.2087 82.2181 11.3629C81.7499 8.64685 80.4208 7.50033 79.3883 7.01681C77.7156 6.23344 75.9821 6.44366 74.3058 6.64714L74.2294 6.65638L74.2087 6.64478C73.9253 6.48654 73.6118 6.40385 73.297 6.40385C73.2701 6.40385 73.2431 6.40449 73.2162 6.40571Z" fill="white"/>
<path fill-rule="evenodd" clip-rule="evenodd" d="M17.3715 15.9031C17.3941 15.1801 17.427 14.328 17.5003 13.4898C17.5855 12.5158 17.931 11.5892 18.4246 11.0111C18.7379 10.6442 19.1795 10.4466 19.5774 10.4962C20.6226 10.6259 21.1964 12.0138 21.3474 12.4361C21.4771 12.7987 21.5821 13.2006 21.6684 13.6645C21.93 15.0716 22.0753 16.6269 22.1254 18.5593C22.1298 18.7295 22.1346 18.9 22.1394 19.0705C22.1673 20.0602 22.1961 21.0836 22.1475 22.0881C22.1407 22.2286 22.1346 22.3692 22.1285 22.5099C22.095 23.28 22.0604 24.0763 21.9106 24.8516C21.8187 25.3262 21.6639 25.936 21.2773 26.4435C20.9254 26.9054 20.2959 27.1649 19.6853 27.1649C19.3555 27.1649 19.0314 27.0893 18.7593 26.929C18.3274 26.6743 18.082 26.2498 17.9522 25.9385C17.68 25.2857 17.5944 24.5649 17.5244 23.8222C17.4091 22.6019 17.3475 21.3989 17.3414 20.2465C17.3339 18.8255 17.3261 17.3562 17.3715 15.9031ZM14.6328 9.35338C14.1218 10.2032 13.7674 11.1732 13.5493 12.3187C13.383 13.1928 13.2968 14.1435 13.2701 15.401C13.2284 17.3501 13.1813 19.5576 13.2599 21.7206C13.3032 22.9076 13.4097 24.1075 13.5764 25.2872L13.5792 25.3065C13.7034 26.1851 13.8318 27.0935 14.1583 27.949C14.9443 30.0092 17.1627 31.5044 19.4332 31.5043C19.535 31.5043 19.6382 31.5013 19.7398 31.4951C21.2968 31.4012 22.8229 30.7327 23.8222 29.707C24.4563 29.056 25.3578 27.897 25.864 25.3575C26.0072 24.639 26.0523 23.8357 26.0958 23.0588C26.1139 22.7347 26.1311 22.4286 26.1551 22.1327C26.3115 20.2146 26.2674 18.1257 26.0165 15.5589C25.8269 13.6196 25.5859 11.7315 24.7309 9.95132C24.3026 9.05994 23.6724 8.27025 22.9083 7.66752C22.1064 7.03497 21.169 6.62129 20.1976 6.47114C20.1708 6.467 20.1436 6.46386 20.1115 6.46051L20.1036 6.45922C19.976 6.43175 19.8451 6.41484 19.7146 6.40898C19.6388 6.40556 19.5627 6.40385 19.4869 6.40385C18.5313 6.40385 17.5872 6.67417 16.7429 7.19154C15.9036 7.7057 15.1739 8.45322 14.6328 9.35338Z" fill="white"/>
<path fill-rule="evenodd" clip-rule="evenodd" d="M44.1753 30.1756C44.4978 30.4772 44.8542 30.7403 45.2345 30.9575C46.0738 31.4369 47.0391 31.6903 48.026 31.6903C48.1233 31.6903 48.2227 31.6878 48.3214 31.6828C49.4333 31.6268 50.4656 31.2571 51.3069 30.6135C52.7075 29.5421 53.5028 27.8563 53.738 25.4595C53.829 24.5329 53.8213 23.6085 53.8018 22.8266C53.7994 22.729 53.7966 22.6314 53.7937 22.5338L53.7872 22.3045C53.7636 21.4563 53.7393 20.579 53.5257 19.7449L53.5116 19.6906C53.3174 18.9615 52.9564 18.3298 52.4385 17.8129L52.4031 17.7776L52.4241 17.7325C52.4472 17.6832 52.4691 17.634 52.4899 17.5854C53.0966 16.162 53.3133 14.335 53.134 12.1547C52.9416 9.81304 52.1496 8.25657 50.6414 7.25643C49.9751 6.81463 49.1702 6.53156 48.3136 6.4378C47.459 6.34411 46.6119 6.44525 45.8638 6.72975C44.9224 7.08789 44.0687 7.68362 43.3952 8.45254C42.7403 9.19998 42.253 10.1124 41.9859 11.0909C41.842 11.6186 41.9306 12.203 42.2291 12.6943C42.5089 13.1548 42.9357 13.47 43.4312 13.5819C44.5448 13.8326 45.6419 13.2095 45.9276 12.1624C46.0868 11.5777 46.5551 10.8174 47.2072 10.5301C47.5687 10.3707 47.9316 10.3803 48.2858 10.5584C48.7059 10.7695 48.9516 11.2285 49.037 11.9615C49.1071 12.5623 49.1209 13.2219 49.0806 14.0376C49.0436 14.783 48.9716 15.405 48.7396 16.0179C48.6799 16.1758 48.6229 16.2954 48.5701 16.3733L48.5481 16.4058L48.5085 16.405C48.3331 16.4014 48.1513 16.4009 47.9528 16.4035C46.9435 16.4156 46.0814 17.1696 45.9473 18.1574C45.8105 19.1658 46.4761 20.1635 47.4311 20.3813C47.8879 20.4853 48.3504 20.5131 48.8051 20.4641L48.8113 20.4634L48.8801 20.4675C49.1868 20.4852 49.6069 20.5094 49.6605 20.9201C49.7207 21.3814 49.7166 21.8618 49.7127 22.3263C49.7113 22.4938 49.7099 22.6605 49.7114 22.8254C49.7129 22.9849 49.7157 23.1452 49.7184 23.3059C49.7292 23.9326 49.7404 24.5807 49.6757 25.2146C49.5974 25.9808 49.3779 26.9867 48.7767 27.4288C48.4987 27.6331 48.1641 27.6995 47.7824 27.6258C47.1567 27.505 46.6573 27.0511 46.4125 26.3804C46.3374 26.1744 46.2868 25.9624 46.2378 25.7571C46.1474 25.3779 46.0619 25.0196 45.8338 24.6996C45.5737 24.3347 45.2522 24.0798 44.904 23.9622C44.705 23.895 44.4905 23.8619 44.2727 23.8619C43.9397 23.8619 43.599 23.9393 43.2936 24.0905C42.5151 24.4758 42.1 25.2212 42.1832 26.0843C42.331 27.618 43.0757 29.1474 44.1753 30.1756Z" fill="white"/>
</g>
</svg>
