<svg width="80" height="80" viewBox="0 0 80 80" fill="none" xmlns="http://www.w3.org/2000/svg">
<path d="M40 80C62.0914 80 80 62.0914 80 40C80 17.9086 62.0914 0 40 0C17.9086 0 0 17.9086 0 40C0 62.0914 17.9086 80 40 80Z" fill="black"/>
<path d="M40.0228 77.5948C61.0346 77.5948 78.0681 60.7327 78.0681 39.9322C78.0681 19.1317 61.0346 2.26953 40.0228 2.26953C19.011 2.26953 1.97754 19.1317 1.97754 39.9322C1.97754 60.7327 19.011 77.5948 40.0228 77.5948Z" stroke="#FED38C" stroke-miterlimit="10" stroke-linecap="round" stroke-linejoin="round" stroke-dasharray="0.06 3"/>
<path d="M57.3307 27.4308C57.6209 26.7244 57.9264 26.0256 58.2777 25.3498C58.5259 24.8725 58.7855 24.4143 59.2322 24.0936C59.4079 23.9676 59.5224 23.8721 59.6942 24.0134C59.8241 24.1242 59.9119 24.3456 59.9844 24.4945C60.2097 24.9604 60.3739 25.4567 60.5304 25.9455C61.2101 28.076 61.6645 30.2754 62.3708 32.3983C62.6916 33.3643 63.0047 34.1929 63.0505 35.22C63.1574 37.7286 62.4587 40.1608 61.3476 42.3907C60.1448 44.8 58.3349 46.8809 56.1433 48.4426C55.9944 48.5495 56.1356 48.8015 56.2884 48.6908C60.3739 45.7775 63.3521 40.8405 63.3483 35.7393C63.3483 35.094 63.3292 34.4143 63.1536 33.7881C63.0085 33.2803 62.8023 32.7878 62.6381 32.2876C61.8592 29.9393 61.4163 27.488 60.5686 25.1627C60.3624 24.5938 59.9959 23.2574 59.1788 23.7767C58.7015 24.0822 58.396 24.5212 58.1326 25.0062C57.7202 25.7622 57.3766 26.5564 57.052 27.3544C56.9795 27.5262 57.2582 27.5988 57.3307 27.4308Z" fill="#FED38C" stroke="#FED38C" stroke-width="0.5"/>
<path d="M51.6258 31.5769C51.4617 32.1879 51.7098 32.837 52.1795 33.2493C52.6988 33.7037 53.3822 33.845 54.0352 33.9901C54.7759 34.1543 55.467 34.3986 55.9252 35.0401C56.3299 35.6014 56.5018 36.2887 56.433 36.9721C56.4139 37.1554 56.7041 37.1554 56.7232 36.9721C56.8492 35.7656 56.2192 34.4903 55.0814 34.0015C54.4132 33.7152 53.6686 33.6808 52.9966 33.4059C52.3055 33.1233 51.6984 32.4513 51.9084 31.6533C51.9504 31.4739 51.6717 31.3975 51.6258 31.5769Z" fill="#FED38C" stroke="#FED38C" stroke-width="0.5"/>
<path d="M51.1225 30.9585C50.9354 30.8096 50.7445 30.6454 50.6185 30.4392C50.42 30.107 50.5574 29.8856 50.8438 29.687C51.4318 29.2785 52.0045 28.8508 52.5849 28.4308C53.1538 28.0185 53.7151 27.5985 54.2879 27.1937C54.8491 26.7966 55.4639 26.8234 56.0595 27.1441C56.2237 27.2319 56.3688 26.9837 56.2046 26.8959C55.6204 26.5828 54.9293 26.4682 54.3337 26.8195C53.9862 27.0219 53.6693 27.293 53.3447 27.5259C52.9515 27.8123 52.5544 28.0986 52.1611 28.3812C51.7831 28.6561 51.4013 28.931 51.0233 29.2059C50.798 29.3663 50.4925 29.5228 50.3321 29.7596C49.9771 30.2903 50.5192 30.8554 50.9125 31.1647C51.0614 31.2754 51.2676 31.0731 51.1225 30.9585Z" fill="#FED38C" stroke="#FED38C" stroke-width="0.5"/>
<path d="M55.4251 26.4717C55.3678 26.1586 55.3602 25.8302 55.4137 25.5171C55.4557 25.2651 55.5053 24.994 55.6122 24.7611C55.7038 24.5587 55.8528 24.3831 56.0895 24.4824C56.2346 24.5434 56.3606 24.658 56.4751 24.7611C56.6164 24.8909 56.75 25.0284 56.8837 25.1696C57.1433 25.4407 57.3648 25.7424 57.5519 26.0669C57.6435 26.2273 57.8955 26.0822 57.8001 25.9218C57.613 25.5973 57.3877 25.2918 57.1319 25.0169C56.8684 24.7305 56.5668 24.3793 56.204 24.2227C55.5091 23.9211 55.2533 24.7993 55.154 25.3033C55.07 25.7195 55.0624 26.1356 55.1387 26.5518C55.1807 26.7313 55.4595 26.6511 55.4251 26.4717Z" fill="#FED38C" stroke="#FED38C" stroke-width="0.5"/>
<path d="M52.394 40.1532C51.9397 42.7572 51.4738 45.5025 52.3062 48.0837C52.6957 49.2941 53.4212 50.2524 54.1543 51.2681C54.9255 52.3372 55.4639 53.5209 55.9297 54.7503C56.1627 55.3689 56.3841 55.9951 56.617 56.6137C56.8041 57.1062 56.9607 57.7095 57.3005 58.1257C57.942 58.9122 59.0187 58.2097 59.6373 57.7286C60.3666 57.1635 60.6109 56.3235 60.1604 55.4873C59.9045 55.01 59.4884 54.6549 59.0836 54.3112C58.614 53.9141 58.1749 53.4941 57.8045 53.0016C56.2543 50.9474 55.8381 48.1371 56.7507 45.7316C56.8156 45.556 56.5368 45.4834 56.4719 45.6553C55.8037 47.4231 55.8266 49.401 56.4834 51.1688C56.7965 52.0165 57.2509 52.8107 57.8351 53.5018C58.5223 54.3151 59.7785 54.9298 60.0611 56.0065C60.2329 56.6595 59.8969 57.1864 59.3853 57.5567C58.8774 57.9271 57.9534 58.5571 57.4761 57.8775C57.1707 57.446 57.0218 56.8733 56.8385 56.3807C56.6285 55.8118 56.4261 55.2391 56.2123 54.6702C55.819 53.6354 55.3876 52.6045 54.7881 51.669C54.1543 50.6801 53.3448 49.821 52.8675 48.7366C51.6762 46.0447 52.1917 43.013 52.6804 40.2257C52.7033 40.0463 52.4246 39.9699 52.394 40.1532Z" fill="#FED38C" stroke="#FED38C" stroke-width="0.5"/>
<path d="M53.9358 51.035C53.8403 51.8979 53.7411 52.7608 53.6456 53.6275C53.5731 54.2805 53.3401 55.1014 53.7716 55.6779C54.3978 56.5141 55.6616 56.56 56.5398 56.1629C56.7078 56.0865 56.5627 55.8383 56.3947 55.9147C55.9404 56.1209 55.4058 56.1972 54.9209 56.0636C54.5123 55.9529 54.0503 55.7085 53.8861 55.2999C53.764 54.9945 53.8212 54.647 53.8556 54.3301C53.8976 53.9635 53.9358 53.6008 53.9778 53.2343C54.058 52.505 54.142 51.7719 54.2222 51.0426C54.2451 50.8517 53.9549 50.8517 53.9358 51.035Z" fill="#FED38C" stroke="#FED38C" stroke-width="0.5"/>
<path d="M16.8466 54.8832C19.802 54.341 21.9211 51.9508 23.3949 49.4842C25.0979 46.6434 26.1937 43.3673 28.6107 41.0115C32.5397 37.1818 38.5458 36.7999 43.7309 36.8114C45.4415 36.8152 47.1483 36.7503 48.8054 36.2768C50.5465 35.7805 52.1846 34.9366 53.6431 33.8675C53.792 33.7606 53.6469 33.5086 53.498 33.6193C52.1693 34.5892 50.6993 35.3757 49.13 35.8759C47.5645 36.3761 45.9532 36.5098 44.319 36.5212C41.8944 36.5327 39.4851 36.5594 37.0834 36.9374C34.4068 37.3574 31.7149 38.205 29.5309 39.8507C26.965 41.7827 25.6133 44.6808 24.1777 47.4605C22.5969 50.5189 20.432 53.9286 16.7741 54.6006C16.587 54.6388 16.6634 54.9175 16.8466 54.8832Z" fill="#FED38C" stroke="#FED38C" stroke-width="0.5"/>
<path d="M38.7818 44.2961C38.9154 45.8883 38.5718 47.492 37.7776 48.8818C37.3728 49.5844 36.8574 50.1877 36.2808 50.7528C35.7386 51.2873 35.1697 51.8104 34.7612 52.4595C34.0777 53.5439 34.0739 54.8727 34.8413 55.9189C35.2003 56.4076 35.7043 56.7627 36.2961 56.9116C36.8307 57.0452 37.369 56.988 37.9112 57.0224C38.1823 57.0414 38.4038 57.0796 38.3923 57.3965C38.3809 57.6867 38.125 57.996 37.9456 58.2022C37.4072 58.8055 36.613 59.2178 35.7959 59.1835C34.9597 59.1453 34.2037 58.71 33.5126 58.2709C32.852 57.8509 32.2488 57.3851 31.7371 56.7932C31.3782 56.3809 31.0804 55.9227 30.8093 55.4492C30.5267 54.949 30.0533 54.3152 30.1831 53.7081C30.2938 53.1774 30.7749 52.8719 31.172 52.5588C31.5538 52.261 31.9013 51.925 32.0655 51.4553C32.4855 50.245 31.7257 49.0995 30.92 48.2786C29.9502 47.2896 29.3889 45.9036 28.9154 44.6245C28.8505 44.4527 28.5718 44.5252 28.6367 44.7009C29.0834 45.9074 29.5989 47.1407 30.4198 48.1487C30.7138 48.5115 31.088 48.7978 31.3553 49.1873C31.802 49.8402 32.0846 50.8062 31.7142 51.5508C31.2636 52.4557 29.9311 52.7192 29.8738 53.8532C29.8433 54.4259 30.2174 54.9796 30.4847 55.4569C30.7291 55.8883 30.9849 56.3083 31.2904 56.7016C32.18 57.8433 33.5393 58.8589 34.9253 59.3095C36.2235 59.7295 37.621 59.2255 38.3961 58.1029C38.5947 57.8165 38.8276 57.3507 38.6061 57.0109C38.4038 56.7016 37.9379 56.7322 37.6172 56.7322C36.8383 56.7322 36.0594 56.6978 35.4446 56.1518C34.8299 55.6096 34.4786 54.7352 34.5397 53.9181C34.6199 52.8834 35.3721 52.0548 36.0746 51.3637C36.7123 50.7337 37.3461 50.1151 37.831 49.3553C38.7894 47.8585 39.2209 46.064 39.072 44.2961C39.0567 44.1128 38.7665 44.109 38.7818 44.2961Z" fill="#FED38C" stroke="#FED38C" stroke-width="0.5"/>
<path d="M30.737 49.7134C30.359 49.9959 29.9848 50.2823 29.6068 50.5648C29.2822 50.8092 28.9157 51.0459 28.7133 51.4087C28.3391 52.073 28.5835 52.9092 29.2326 53.2987C29.393 53.3942 29.5381 53.146 29.3777 53.0505C28.782 52.6954 28.6408 51.8859 29.1028 51.359C29.3357 51.0918 29.6526 50.8932 29.9352 50.6794C30.2521 50.4388 30.569 50.2021 30.8859 49.9616C31.031 49.8508 30.8859 49.6026 30.737 49.7134Z" fill="#FED38C" stroke="#FED38C" stroke-width="0.5"/>
<path d="M38.6133 48.015C43.1227 49.6301 48.01 49.9661 52.6988 48.9886C52.8821 48.9504 52.8019 48.6717 52.6225 48.7099C47.9833 49.6759 43.1532 49.3323 38.6935 47.7362C38.514 47.6751 38.4415 47.9539 38.6133 48.015Z" fill="#FED38C" stroke="#FED38C" stroke-width="0.5"/>
<path d="M23.2423 50.3019C23.6619 50.3019 24.0021 49.9617 24.0021 49.5421C24.0021 49.1224 23.6619 48.7822 23.2423 48.7822C22.8226 48.7822 22.4824 49.1224 22.4824 49.5421C22.4824 49.9617 22.8226 50.3019 23.2423 50.3019Z" fill="white"/>
<path d="M44.127 37.3312C44.5467 37.3312 44.8869 36.991 44.8869 36.5714C44.8869 36.1517 44.5467 35.8115 44.127 35.8115C43.7074 35.8115 43.3672 36.1517 43.3672 36.5714C43.3672 36.991 43.7074 37.3312 44.127 37.3312Z" fill="white"/>
<path d="M61.8819 42.7306C62.3015 42.7306 62.6417 42.3904 62.6417 41.9708C62.6417 41.5511 62.3015 41.2109 61.8819 41.2109C61.4623 41.2109 61.1221 41.5511 61.1221 41.9708C61.1221 42.3904 61.4623 42.7306 61.8819 42.7306Z" fill="white"/>
<path d="M43.5932 28.8308C39.5115 27.1813 35.6742 30.3008 31.9895 31.5647C28.0262 32.924 23.5627 32.5307 19.9086 30.4765C18.0453 29.4303 16.4225 27.9908 15.1549 26.2726C15.0556 26.1351 14.8265 26.2688 14.9258 26.4062C17.1251 29.3959 20.3859 31.5456 24.0285 32.3092C26.0713 32.7369 28.198 32.7369 30.2408 32.3169C32.3676 31.8816 34.2576 30.8812 36.2125 29.9839C38.4768 28.9415 41.0884 28.1015 43.5245 29.0866C43.681 29.1515 43.7498 28.8919 43.5932 28.8308Z" fill="#FED38C" stroke="#FED38C" stroke-width="0.5"/>
<path d="M31.1915 22.4898C32.8868 23.7269 35.0518 23.4902 37.0182 23.2878C39.0877 23.0702 41.6917 22.9709 43.0052 24.9297C43.1007 25.071 43.3297 24.9373 43.2343 24.7961C42.1079 23.1198 39.985 22.8029 38.114 22.9251C35.8574 23.0702 33.3145 23.7117 31.3252 22.2607C31.1877 22.1615 31.0541 22.3906 31.1915 22.4898Z" fill="#FED38C" stroke="#FED38C" stroke-width="0.5"/>
</svg>
