<svg width="124" height="60" viewBox="0 0 124 60" fill="none" xmlns="http://www.w3.org/2000/svg">
<g opacity="0.5">
<path fill-rule="evenodd" clip-rule="evenodd" d="M73.9504 9.18866C80.7373 15.7319 80.7373 26.3405 73.9504 32.8837C67.1634 39.427 56.1596 39.427 49.3727 32.8837C42.5857 26.3405 42.5857 15.7319 49.3727 9.18866C56.1596 2.64545 67.1634 2.64545 73.9504 9.18866ZM72.6104 10.481C78.6571 16.3105 78.6571 25.7621 72.6104 31.5916C66.5637 37.4212 56.76 37.4212 50.7133 31.5916C44.6666 25.7621 44.6666 16.3105 50.7133 10.481C56.76 4.6514 66.5637 4.6514 72.6104 10.481Z" fill="white"/>
<path fill-rule="evenodd" clip-rule="evenodd" d="M69.4037 19.462C69.4037 19.462 69.2455 19.4112 69.0345 19.462C69.2455 19.9704 69.7186 20.3249 70.3514 20.4775C71.4047 20.7317 72.6161 20.6808 73.8803 19.5637C74.5117 19.0059 75.1445 17.9905 75.25 17.0753C75.174 17.1851 75.0707 17.2423 74.9598 17.3036L74.9597 17.3036C74.9166 17.3274 74.8724 17.3519 74.8281 17.3804C74.144 17.5837 73.3002 17.2787 73.0908 16.67C72.9326 16.3141 73.0908 16.0105 73.3544 15.7562C73.1435 15.8071 72.9326 15.8579 72.6703 15.9088C71.9862 16.0613 71.4589 16.163 71.1952 15.9596C71.0492 15.8189 70.979 15.6294 70.8972 15.4086L70.8971 15.4085C70.8607 15.3103 70.822 15.2058 70.7733 15.0967L70.7575 15.0459C70.6042 14.5515 70.4394 14.0203 69.931 13.7254C68.9119 13.1177 67.7585 13.2414 67.5423 13.2646C67.5239 13.2666 67.5123 13.2678 67.5081 13.2678C67.4027 13.2678 67.3499 13.2678 67.2972 13.1662C67.2801 13.1497 67.252 12.995 67.2129 12.7795L67.2129 12.7794C67.131 12.3289 67.0009 11.6128 66.8226 11.3387C66.5589 10.8303 66.3479 10.7808 66.2952 10.7808C65.7679 10.7808 64.9256 12.0505 64.6106 13.8779C64.6106 13.9034 64.5974 13.9161 64.5842 13.9288C64.5711 13.9415 64.5579 13.9542 64.5579 13.9796C63.9265 14.6391 63.1882 16.9242 63.1882 17.6868V17.7885C63.241 18.5497 64.5579 21.8502 68.5072 21.9519H68.6126C70.035 21.8502 71.5614 21.2415 72.247 20.8856C71.7724 21.0381 70.9301 21.089 70.1932 20.9364C69.4037 20.7331 68.8763 20.2769 68.5614 19.6668C68.4559 19.7177 68.4032 19.8193 68.3504 19.9719C68.2977 20.0735 68.1395 20.1244 68.034 20.0735C67.8758 20.0227 67.8758 19.8702 67.9285 19.7685C68.3504 19.0073 69.14 18.9056 69.5091 18.9564C69.6674 18.9564 69.7201 19.109 69.7201 19.2106C69.6674 19.4112 69.5619 19.462 69.4037 19.462ZM70.5097 15.6023C70.6679 15.6023 70.7733 15.7548 70.7733 16.009C70.7733 16.2124 70.6151 16.4158 70.5097 16.4158C70.3514 16.4158 70.246 16.2633 70.246 16.009C70.1947 15.8057 70.3529 15.6023 70.5097 15.6023ZM66.7713 13.3695C66.6658 13.4204 66.4549 13.522 66.1399 13.522C65.8763 13.5729 65.8763 13.3695 66.0872 12.8117C66.2981 12.3033 66.4564 12.0505 66.4564 12.0505C66.6658 11.8457 66.824 13.3695 66.7713 13.3695ZM69.2469 17.2278C68.9833 17.2278 68.7723 16.9228 68.7723 16.5683C68.7723 16.2124 68.9833 15.8579 69.2469 15.8579C69.5106 15.8579 69.7215 16.163 69.7215 16.5175C69.7201 16.8719 69.5091 17.2278 69.2469 17.2278ZM68.519 12.6718C68.7594 12.1401 69.2347 11.089 69.6674 11.1353C69.9839 11.1353 69.8257 13.0137 69.7202 13.1662C69.2983 12.9628 68.8779 12.8611 68.456 12.8103C68.4746 12.77 68.4957 12.7234 68.519 12.6718ZM64.03 24.5193L64.03 24.5194L64.03 24.5195C64.1054 24.8181 64.1834 25.127 64.2439 25.3022C64.2439 25.3022 63.7166 25.5055 63.6653 25.5564C63.5071 25.6072 63.5071 25.7597 63.5599 25.9123C63.6126 26.0648 63.7708 26.0648 63.929 26.0139C64.6131 25.658 66.5628 24.846 67.4051 25.658C67.8798 26.0648 68.3002 27.4347 67.9838 28.3484C67.8256 28.9063 67.4051 29.2113 66.7196 29.2621C66.3504 29.313 66.0355 29.2113 65.8245 29.0079C65.2459 28.4995 65.2459 27.4841 65.2459 27.4841C65.2459 27.3824 65.1932 27.3316 65.0877 27.2807C65.035 27.2299 64.9295 27.2299 64.824 27.2807C64.824 27.2807 63.3489 28.2962 62.1375 27.7383C60.5016 26.9737 60.7788 24.9932 60.8168 24.7221C60.8191 24.7053 60.8205 24.695 60.8205 24.6921C60.8205 24.5395 60.7678 24.4379 60.6096 24.4379C60.4514 24.4379 60.3459 24.4887 60.3459 24.6412C60.3459 24.6412 60.2405 25.2499 60.3459 25.9108C59.0817 25.7583 57.9758 25.555 57.028 25.2005C57.5553 24.6426 57.8176 23.9308 57.8176 23.1188C57.8176 22.9663 57.7121 22.8646 57.5539 22.8646C57.3957 22.8646 57.2902 22.9663 57.2902 23.1188C57.2902 24.5918 56.026 25.7597 54.5509 25.7597C53.4449 25.7597 52.4444 25.1002 51.9698 24.0848C52.0225 23.9323 51.917 23.9323 51.7603 23.9323C51.6021 23.9831 51.6021 24.1356 51.6021 24.2373C51.7603 24.5932 51.9712 24.8968 52.2335 25.2019C51.6548 26.4207 50.6016 27.792 48.8101 27.2836C48.2314 27.131 47.8623 26.7751 47.7568 26.319C47.7041 25.9631 47.7568 25.6086 48.0205 25.4561C48.2314 25.3036 48.5478 25.2527 48.8628 25.4053C49.7424 25.7051 50.2669 24.3366 50.7839 22.9876L50.8111 22.9168C51.0747 22.1556 51.4424 21.2927 51.7061 21.1402C52.0225 20.9368 52.8121 20.9368 53.234 21.4961C53.2867 21.6486 53.3394 22.0045 53.3394 22.0045C53.3394 22.1062 53.4976 22.2079 53.6031 22.157C53.7613 22.157 53.8141 22.0045 53.8141 21.9028C53.5504 20.4298 53.9723 19.5161 54.3414 19.0599C54.3414 19.0599 51.6021 17.08 52.024 14.439C52.024 14.2865 52.1295 14.1848 52.1822 14.1848C52.2349 14.1848 52.3404 14.3373 52.3404 14.5407C52.4986 15.0491 52.7623 15.8103 53.4991 16.6224C54.1832 17.4344 54.7633 17.892 55.3419 18.0954C55.3486 18.0954 55.3758 18.0995 55.4232 18.1067L55.4233 18.1067L55.4234 18.1067L55.4234 18.1067C55.7489 18.156 57.0269 18.3496 59.1872 18.3496C60.6096 18.3496 62.4524 18.1971 62.5579 18.1462C62.6634 18.7549 62.9798 19.7703 63.8221 20.6855C64.6116 21.5484 65.4539 21.9042 66.0868 22.1585C66.9818 22.5143 67.7714 22.6669 68.2987 22.7671C68.2987 22.7926 68.2855 22.8053 68.2724 22.818C68.2592 22.8307 68.246 22.8434 68.246 22.8688C67.9296 23.63 67.4037 24.291 66.6654 24.8488C66.034 24.798 65.2957 24.9505 64.7171 25.1539C64.6906 25.0771 64.6506 24.9362 64.5906 24.7244L64.5906 24.7243L64.5906 24.7243L64.5906 24.7243C64.5314 24.5154 64.4527 24.2376 64.348 23.8842C64.2952 23.7317 64.1897 23.6809 64.0315 23.7317C63.9275 23.6766 63.8748 23.8292 63.8748 23.9308C63.9197 24.0823 63.9741 24.298 64.03 24.5193ZM74.8299 15.9582C74.8827 16.1615 74.6717 16.3649 74.3553 16.4157C74.0389 16.4666 73.7752 16.3649 73.7239 16.1615C73.6712 15.9582 73.8821 15.7548 74.1986 15.704C74.5135 15.6531 74.7772 15.7548 74.8299 15.9582ZM54.0273 27.2299C54.6059 27.2808 54.7114 26.7215 54.7641 26.1637C55.4482 26.1637 56.1323 25.9109 56.6084 25.4519C56.7402 25.5027 56.8849 25.5536 57.0295 25.6044C57.1742 25.6553 57.3188 25.7061 57.4507 25.7569L57.4395 25.783C57.1722 26.4053 56.5958 27.7469 55.7133 28.347C55.2402 28.7015 54.6074 28.9049 54.0287 28.9049C53.4487 28.9049 52.5009 28.6507 52.5009 27.7878C52.5009 27.4841 52.6591 27.1283 53.3432 27.1283C53.6581 27.1283 54.0273 27.2299 54.0273 27.2299ZM67.2464 24.9955C67.6141 24.6905 67.8777 24.4377 68.0887 24.1326C69.0892 23.8798 70.4061 23.6765 70.9862 24.2329C71.4594 24.6396 71.9867 25.8076 71.7758 26.7213C71.6703 27.1266 71.4081 27.4317 70.9335 27.5842C70.3534 27.7876 69.722 27.3822 69.5111 25.9601C69.4583 25.8584 69.4056 25.8076 69.3529 25.7567C69.3001 25.7059 69.1947 25.7059 69.1419 25.7567C69.1419 25.7567 68.7743 25.9601 68.2996 26.1126C68.1429 25.7581 67.9319 25.4531 67.721 25.2497L67.721 25.2497C67.5628 25.148 67.4046 25.0464 67.2464 24.9955Z" fill="white"/>
<path fill-rule="evenodd" clip-rule="evenodd" d="M56.1136 44.4438C56.8958 45.1754 57.2752 46.1131 57.2752 47.233C57.2752 48.3304 56.849 49.2681 56.0418 50.0223C55.2347 50.8004 54.1199 51.1888 52.7693 51.1888C52.1526 51.1888 51.7014 51.1662 51.4172 51.1436V54.3678C51.4172 54.7788 51.0613 55.146 50.6101 55.146H49.4235C48.9973 55.146 48.6164 54.8028 48.6164 54.3678V44.1924C48.6164 43.7815 48.9724 43.3917 49.4235 43.3917C50.657 43.3691 51.6296 43.3691 52.3416 43.3691C54.073 43.3691 55.3299 43.7349 56.1136 44.4438ZM108.081 54.3452C108.081 54.7562 107.725 55.1234 107.274 55.1234H106.088C105.661 55.1234 105.281 54.7802 105.281 54.3452V45.9069H101.012V54.3452C101.012 54.7562 100.656 55.1234 100.205 55.1234H99.0182C98.5919 55.1234 98.2111 54.7802 98.2111 54.3452V44.1698C98.2111 43.7589 98.567 43.3917 99.0182 43.3917H107.249C107.676 43.3917 108.056 43.7349 108.056 44.1698V54.3452H108.081ZM110.856 44.1698C110.856 43.7589 111.212 43.3917 111.663 43.3917H112.85C113.276 43.3917 113.657 43.7349 113.657 44.1698V47.0735C114.036 47.0283 114.392 47.0042 114.725 47.0042C117.643 47.0042 119.16 48.49 119.16 50.96C119.16 53.4978 117.31 55.1671 114.131 55.1671C113.443 55.1671 112.614 55.1445 111.664 55.1445C111.238 55.1445 110.857 54.7788 110.857 54.3664V44.1698H110.856ZM113.632 52.5841C114.058 52.6293 114.32 52.6533 114.439 52.6533C115.601 52.6533 116.17 52.1279 116.17 51.0292C116.17 50.0237 115.507 49.5195 114.439 49.5195C114.273 49.5195 113.988 49.5421 113.608 49.6113V52.5841H113.632ZM123.118 54.3452C123.118 54.7562 122.762 55.1234 122.311 55.1234H121.125C120.698 55.1234 120.317 54.7802 120.317 54.3452V44.1698C120.317 43.7589 120.673 43.3917 121.125 43.3917H122.311C122.737 43.3917 123.118 43.7349 123.118 44.1698V54.3452ZM92.7354 52.6533H87.9204L87.1381 54.574C86.9726 54.9398 86.7118 55.1234 86.3075 55.1234H85.2396C84.8134 55.1234 84.5043 54.7802 84.5043 54.3918C84.5043 54.3 84.5277 54.1856 84.5511 54.1178L88.9384 43.9425C89.104 43.5767 89.3896 43.3931 89.7925 43.3931H91.0493C91.4522 43.3931 91.7378 43.5767 91.9033 43.9425L96.2906 54.1178C96.3141 54.2096 96.3375 54.3014 96.3375 54.3918C96.3375 54.7802 96.005 55.1234 95.6021 55.1234H94.3687C93.9659 55.1234 93.6802 54.9398 93.5381 54.574L92.7354 52.6533ZM90.3389 46.8221L88.9633 50.1381H91.6909L90.3389 46.8221ZM82.5838 54.3452C82.5838 54.7562 82.2279 55.1234 81.7767 55.1234H80.5901C80.1639 55.1234 79.783 54.7802 79.783 54.3452V45.9069H77.1272L76.8664 48.1256C76.1311 53.7506 75.0163 55.1911 72.5495 55.2137C72.0748 55.2137 71.7672 54.9398 71.7672 54.5274V53.5219C71.7672 52.9965 71.9327 52.7903 72.5026 52.5389C72.9772 52.3327 73.38 51.7848 73.6408 50.8696C73.9015 49.9545 74.1388 48.2626 74.3293 45.7473L74.4479 44.1698C74.4948 43.7123 74.8742 43.3917 75.3019 43.3917H81.7767C82.203 43.3917 82.5838 43.7349 82.5838 44.1698V54.3452ZM66.9287 54.3452C66.9287 54.7562 66.5728 55.1234 66.1216 55.1234H60.3339C59.9076 55.1234 59.5267 54.7802 59.5267 54.3452V44.1698C59.5267 43.7589 59.8827 43.3917 60.3339 43.3917H65.9546C66.3809 43.3917 66.7617 43.7349 66.7617 44.1698V45.1302C66.7617 45.5411 66.4058 45.9083 65.9546 45.9083H62.3261V47.966H65.4331C65.8594 47.966 66.2403 48.3092 66.2403 48.7442V49.7045C66.2403 50.1155 65.8843 50.4827 65.4331 50.4827H62.3261V52.6095H66.145C66.5713 52.6095 66.9522 52.9527 66.9522 53.3877V54.348H66.9287V54.3452ZM51.4172 48.5832C51.8435 48.6284 52.2947 48.675 52.6975 48.675C53.575 48.675 54.3338 48.264 54.3338 47.2344C54.3338 46.3193 53.7888 45.8857 52.6492 45.8857C52.6023 45.8857 52.198 45.9083 51.4392 45.9309V48.5832H51.4172ZM33.6044 44.1698C33.6044 43.7589 33.9604 43.3917 34.4115 43.3917H35.5981C36.0244 43.3917 36.4052 43.7349 36.4052 44.1698V47.0735C36.7846 47.0283 37.164 47.0042 37.4731 47.0042C40.3911 47.0042 41.9087 48.49 41.9087 50.96C41.9087 53.4978 40.0586 55.1671 36.8798 55.1671C36.1913 55.1671 35.3622 55.1445 34.413 55.1445C33.9867 55.1445 33.6059 54.7788 33.6059 54.3664L33.6044 44.1698ZM36.3789 52.5841C36.8051 52.6293 37.0673 52.6533 37.2094 52.6533C38.3711 52.6533 38.9409 52.1279 38.9409 51.0292C38.9409 50.0237 38.2773 49.5195 37.2094 49.5195C37.0439 49.5195 36.7583 49.5421 36.3789 49.6113V52.5841ZM45.8434 54.3452C45.8434 54.7562 45.4874 55.1234 45.0362 55.1234H43.8497C43.4234 55.1234 43.0425 54.7802 43.0425 54.3452V44.1698C43.0425 43.7589 43.3985 43.3917 43.8497 43.3917H45.0362C45.4625 43.3917 45.8434 43.7349 45.8434 44.1698V54.3452ZM25.8713 55.1234C25.4451 55.1234 25.0642 54.7802 25.0642 54.3452V45.9069H22.2179C21.7917 45.9069 21.4108 45.5637 21.4108 45.1288V44.1684C21.4108 43.7575 21.7668 43.3903 22.2179 43.3903H30.7098C31.1361 43.3903 31.5169 43.7334 31.5169 44.1684V45.1288C31.5169 45.5397 31.161 45.9069 30.7098 45.9069H27.8636V54.3452C27.8636 54.7562 27.5076 55.1234 27.0564 55.1234H25.8713ZM19.5153 54.3452C19.5153 54.7562 19.1593 55.1234 18.7081 55.1234H12.9219C12.4956 55.1234 12.1147 54.7802 12.1147 54.3452V44.1698C12.1147 43.7589 12.4707 43.3917 12.9219 43.3917H18.5426C18.9689 43.3917 19.3497 43.7349 19.3497 44.1698V45.1302C19.3497 45.5411 18.9938 45.9083 18.5426 45.9083H14.9141V47.966H18.0211C18.4474 47.966 18.8282 48.3092 18.8282 48.7442V49.7045C18.8282 50.1155 18.4723 50.4827 18.0211 50.4827H14.9141V52.6095H18.7096C19.1359 52.6095 19.5167 52.9527 19.5167 53.3877L19.5153 54.3452ZM6.56433 44.1698C6.56433 43.7589 6.92029 43.3917 7.37147 43.3917H8.55802C8.9843 43.3917 9.36516 43.7349 9.36516 44.1698V54.3692C9.36516 54.7802 9.0092 55.1474 8.55802 55.1474H7.37147C6.9452 55.1474 6.56433 54.8042 6.56433 54.3692V50.6422C5.94762 51.0998 5.0936 51.3286 3.95539 51.3286C2.20048 51.3286 0.208252 50.4135 0.208252 47.579V44.1712C0.208252 43.7603 0.564216 43.3931 1.0154 43.3931H2.20194C2.62822 43.3931 3.00909 43.7363 3.00909 44.1712V46.7783C3.00909 48.3332 3.67267 48.8134 4.71713 48.8134C5.35727 48.8134 5.99742 48.6072 6.56726 48.1962V44.1698H6.56433Z" fill="white"/>
</g>
</svg>
