<svg width="80" height="80" viewBox="0 0 80 80" fill="none" xmlns="http://www.w3.org/2000/svg">
<path d="M40 80C62.0914 80 80 62.0914 80 40C80 17.9086 62.0914 0 40 0C17.9086 0 0 17.9086 0 40C0 62.0914 17.9086 80 40 80Z" fill="black"/>
<path d="M40.0228 77.5948C61.0346 77.5948 78.0681 60.7327 78.0681 39.9322C78.0681 19.1317 61.0346 2.26953 40.0228 2.26953C19.011 2.26953 1.97754 19.1317 1.97754 39.9322C1.97754 60.7327 19.011 77.5948 40.0228 77.5948Z" stroke="#FED38C" stroke-miterlimit="10" stroke-linecap="round" stroke-linejoin="round" stroke-dasharray="0.06 3"/>
<path d="M52.7381 25.3246C53.6472 21.9796 53.3404 18.9187 52.9919 16.9678H27.4175C27.2735 17.7747 27.1371 18.7672 27.0879 19.8923" stroke="#FED38C" stroke-width="0.8" stroke-miterlimit="10" stroke-linecap="round" stroke-linejoin="round"/>
<path d="M28.6112 51.7775C28.4256 52.126 28.2514 52.4934 28.0847 52.8836C26.4406 56.7666 26.8346 60.623 27.3195 63.0361H53.087C53.5719 60.6192 53.9659 56.7666 52.3218 52.8836C49.2761 45.686 42.0822 45.1139 41.8815 40.6249C41.6883 36.2722 48.3631 34.8668 51.6513 28.207" stroke="#FED38C" stroke-width="0.8" stroke-miterlimit="10" stroke-linecap="round" stroke-linejoin="round"/>
<path d="M27.2666 23.4082C27.4219 24.45 27.6833 25.5372 28.0849 26.6396C31.0207 34.6744 38.7336 35.9511 38.5252 40.622C38.3623 44.2208 33.7066 45.3042 30.2972 49.3008" stroke="#FED38C" stroke-width="0.8" stroke-miterlimit="10" stroke-linecap="round" stroke-linejoin="round"/>
<path d="M30.7139 60.4003C31.3048 59.8207 35.4227 55.9188 41.4687 56.5173C45.988 56.9643 48.8368 59.6502 49.6551 60.4798" stroke="#FED38C" stroke-width="0.8" stroke-miterlimit="10" stroke-linecap="round" stroke-linejoin="round"/>
<path d="M28.8546 21.4264C30.2373 26.5367 33.336 31.0826 37.6016 34.223C38.3971 34.8102 39.2419 35.405 40.1284 35.8444C40.4314 35.9921 40.6625 35.7724 40.939 35.6133C41.3179 35.3974 41.6929 35.1701 42.0604 34.9314C44.0643 33.6245 45.8334 31.969 47.2616 30.0484C49.0762 27.605 50.296 24.7487 50.8529 21.7597C50.8907 21.559 50.5839 21.4718 50.546 21.6764C49.6065 26.711 46.7502 31.2303 42.5718 34.2003C41.9088 34.6738 41.2156 35.1057 40.4996 35.4959C40.295 35.6057 40.3405 35.5982 40.1359 35.4845C39.9541 35.3822 39.776 35.2762 39.5942 35.1701C39.1813 34.9201 38.7722 34.6587 38.3744 34.3859C36.1469 32.8555 34.1884 30.9273 32.6276 28.7187C31.0479 26.4875 29.8774 23.9834 29.1614 21.343C29.1084 21.146 28.7977 21.2294 28.8546 21.4264Z" fill="#FED38C" stroke="#FED38C" stroke-width="0.5"/>
<path d="M29.3689 51.2817C29.7894 51.2817 30.1303 50.9408 30.1303 50.5202C30.1303 50.0997 29.7894 49.7588 29.3689 49.7588C28.9483 49.7588 28.6074 50.0997 28.6074 50.5202C28.6074 50.9408 28.9483 51.2817 29.3689 51.2817Z" fill="white"/>
<path d="M52.3981 27.6508C52.8187 27.6508 53.1596 27.3099 53.1596 26.8894C53.1596 26.4688 52.8187 26.1279 52.3981 26.1279C51.9776 26.1279 51.6367 26.4688 51.6367 26.8894C51.6367 27.3099 51.9776 27.6508 52.3981 27.6508Z" fill="white"/>
<path d="M27.0544 22.1733C27.4749 22.1733 27.8158 21.8323 27.8158 21.4118C27.8158 20.9913 27.4749 20.6504 27.0544 20.6504C26.6339 20.6504 26.293 20.9913 26.293 21.4118C26.293 21.8323 26.6339 22.1733 27.0544 22.1733Z" fill="white"/>
<path d="M14.0537 38.5381H25.7177" stroke="#FED38C" stroke-width="0.8" stroke-miterlimit="10" stroke-linecap="round" stroke-linejoin="round"/>
<path d="M19.8877 33.0146V43.4512" stroke="#FED38C" stroke-width="0.8" stroke-miterlimit="10" stroke-linecap="round" stroke-linejoin="round"/>
<path d="M54.2812 38.5381H65.9452" stroke="#FED38C" stroke-width="0.8" stroke-miterlimit="10" stroke-linecap="round" stroke-linejoin="round"/>
<path d="M60.1152 33.0146V43.4512" stroke="#FED38C" stroke-width="0.8" stroke-miterlimit="10" stroke-linecap="round" stroke-linejoin="round"/>
</svg>
