<svg width="184" height="28" viewBox="0 0 184 28" fill="none" xmlns="http://www.w3.org/2000/svg">
<path d="M50.4492 14.0108C50.4492 15.3337 50.0934 16.3654 49.3837 17.1048C48.672 17.8442 47.7449 18.2134 46.6003 18.2134C45.5536 18.2134 44.6798 17.8919 43.979 17.2499C43.2792 16.6079 42.9283 15.7614 42.9283 14.7112V13.3103C42.9283 12.2407 43.2792 11.3892 43.979 10.757C44.6808 10.1237 45.5437 9.80811 46.5707 9.80811C47.7153 9.80811 48.6473 10.1783 49.3679 10.9177C50.0894 11.6571 50.4492 12.6878 50.4492 14.0108V14.0108ZM38.8125 27.1428H42.9283V20.1101C43.4621 20.5583 44.1026 20.9187 44.8528 21.1905C45.6117 21.464 46.414 21.6022 47.222 21.5987C48.4852 21.5987 49.6832 21.3113 50.8199 20.7375C51.9546 20.1647 52.8778 19.3074 53.5875 18.1696C54.2992 17.0317 54.655 15.6454 54.655 14.0098C54.655 12.377 54.314 10.9898 53.632 9.85195C52.9519 8.7141 52.0782 7.85779 51.0126 7.284C49.9451 6.70923 48.8401 6.42282 47.6955 6.42282C45.7809 6.42282 44.1915 7.0463 42.9283 8.29131V6.71507H38.8125V27.1428ZM80.2424 6.71507H83.3816V9.63373H80.2424V16.8135C80.2424 17.2791 80.3808 17.6396 80.6575 17.8919C80.9333 18.1452 81.3277 18.2718 81.8416 18.2718C82.1579 18.2718 82.5523 18.2036 83.0258 18.0673L83.2334 18.1842V21.3064C82.3843 21.5013 81.5155 21.5987 80.6279 21.5987C79.2451 21.5987 78.1499 21.2285 77.3403 20.4891C76.5308 19.7507 76.1266 18.6411 76.1266 17.1622V9.63471H73.4914V6.71507H76.1266V2.54166H76.6603L80.2424 3.76719V6.71507ZM92.6936 9.7935C92.2488 9.43403 91.7012 9.2538 91.0498 9.2538C90.5556 9.2538 90.1365 9.35609 89.7916 9.56067C89.4456 9.76525 89.2736 10.0419 89.2736 10.3917C89.2736 10.8203 89.5504 11.171 90.1029 11.4428C90.6554 11.7156 91.6715 12.0468 93.1522 12.4345C94.6724 12.8437 95.7873 13.3834 96.498 14.0546C97.2097 14.7268 97.5645 15.6357 97.5645 16.7823C97.5645 17.698 97.3224 18.5203 96.839 19.249C96.3547 19.9796 95.6638 20.5534 94.7663 20.9713C93.8668 21.3902 92.827 21.5987 91.6429 21.5987C89.9052 21.5987 88.4888 21.2246 87.3926 20.4755C86.2975 19.7253 85.5522 18.6703 85.1578 17.3084L85.2764 16.9284L88.4443 15.9952C88.8002 17.6299 89.8756 18.4462 91.6715 18.4462C92.2844 18.4462 92.7825 18.3206 93.167 18.0673C93.5525 17.814 93.7443 17.4642 93.7443 17.0171C93.7443 16.5495 93.5229 16.1851 93.0781 15.9221C92.6343 15.6591 91.7704 15.3629 90.4884 15.0317C88.9277 14.6635 87.7534 14.1228 86.9637 13.4126C86.1739 12.7024 85.7795 11.7633 85.7795 10.5962C85.7795 9.81883 86.0009 9.11352 86.4457 8.4803C86.8905 7.84805 87.5162 7.34732 88.3257 6.97713C89.1352 6.60791 90.0624 6.42282 91.1091 6.42282C92.6886 6.42282 93.9716 6.75891 94.9581 7.43013C95.9455 8.10134 96.587 9.04922 96.8835 10.2747L96.7352 10.5962L93.5673 11.3561C93.429 10.6742 93.1374 10.1539 92.6936 9.7935V9.7935ZM104.041 8.52414C104.634 7.90163 105.383 7.39603 106.291 7.00635C107.197 6.61781 108.175 6.41909 109.163 6.42282C110.762 6.42282 112.055 6.88068 113.042 7.79447C114.029 8.71021 114.523 9.9445 114.523 11.5012V21.3055H110.378V12.5212C110.378 11.6659 110.135 11.0181 109.652 10.5806C109.168 10.1423 108.541 9.92404 107.771 9.92404C107.044 9.92334 106.33 10.1094 105.698 10.4637C105.031 10.8387 104.463 11.3637 104.041 11.9961V21.3055H99.8943V0.00292969H104.04L104.041 8.52414ZM125.326 9.95424C126.47 9.95424 127.408 10.3196 128.139 11.0492C128.869 11.7779 129.235 12.7657 129.235 14.0108C129.235 15.2558 128.869 16.2436 128.139 16.9723C127.408 17.7029 126.47 18.0673 125.325 18.0673C124.181 18.0673 123.238 17.7029 122.499 16.9733C121.757 16.2436 121.388 15.2558 121.388 14.0108C121.388 12.7657 121.758 11.7779 122.499 11.0492C123.238 10.3186 124.181 9.95424 125.325 9.95424H125.326ZM125.18 6.42282C123.621 6.42282 122.229 6.75404 121.006 7.41551C119.815 8.04494 118.822 8.98353 118.134 10.1296C117.442 11.2772 117.097 12.5709 117.097 14.0108C117.097 15.4506 117.443 16.7443 118.134 17.8919C118.822 19.0382 119.815 19.9768 121.006 20.606C122.229 21.2684 123.621 21.5987 125.18 21.5987C126.72 21.5987 128.102 21.2675 129.326 20.606C130.517 19.9768 131.51 19.0382 132.198 17.8919C132.89 16.7443 133.235 15.4506 133.235 14.0108C133.235 12.5709 132.889 11.2772 132.198 10.1296C131.509 8.98397 130.516 8.04551 129.326 7.41551C128.102 6.75307 126.72 6.42282 125.18 6.42282ZM146.365 10.9177C147.086 11.6571 147.445 12.6878 147.445 14.0108C147.445 15.3337 147.091 16.3654 146.38 17.1048C145.669 17.8442 144.741 18.2134 143.597 18.2134C142.55 18.2134 141.676 17.8919 140.976 17.2499C140.274 16.6079 139.925 15.7614 139.925 14.7112V13.3103C139.925 12.2407 140.275 11.3892 140.976 10.757C141.676 10.1237 142.541 9.80811 143.567 9.80811C144.711 9.80811 145.645 10.1783 146.365 10.9177V10.9177ZM135.809 27.1438H139.925V20.1101C140.458 20.5583 141.1 20.9187 141.849 21.1905C142.6 21.4623 143.389 21.5987 144.218 21.5987C145.47 21.6011 146.705 21.3057 147.816 20.7375C148.951 20.1647 149.874 19.3074 150.584 18.1696C151.295 17.0317 151.651 15.6454 151.651 14.0098C151.651 12.377 151.31 10.9898 150.629 9.85195C149.947 8.7141 149.074 7.85779 148.009 7.284C146.942 6.70923 145.836 6.42282 144.692 6.42282C142.777 6.42282 141.188 7.0463 139.925 8.29131V6.71507H135.809V27.1438Z" fill="#E9531E"/>
<path d="M158.807 8.46695C159.318 7.86158 159.941 7.35659 160.642 6.97839C161.343 6.6066 162.127 6.41589 162.922 6.42408C163.516 6.42408 163.989 6.50202 164.344 6.65789L163.81 9.86783L163.604 10.0724C163.208 9.97499 162.873 9.92628 162.597 9.92628C161.787 9.92628 161.057 10.1503 160.406 10.5975C159.754 11.0456 159.222 11.6974 158.807 12.5527V21.3077H154.661V6.71634H158.807V8.46695ZM176.948 19.4986C175.626 20.8995 174.017 21.6 172.122 21.6C170.503 21.6 169.23 21.1236 168.302 20.1699C167.373 19.2161 166.91 17.9429 166.91 16.3471V6.71634H171.055V15.5006C171.055 16.3374 171.273 16.9794 171.708 17.4265C172.141 17.8747 172.753 18.0987 173.543 18.0987C174.253 18.0987 174.905 17.899 175.497 17.4996C176.101 17.0889 176.598 16.5439 176.948 15.9088V6.71634H181.094V21.3067H176.948V19.4986Z" fill="#1F6EB4"/>
<path d="M62.4725 10.2755C63.1248 9.7494 63.8839 9.48636 64.7528 9.48636C65.7194 9.48636 66.529 9.7494 67.1803 10.2755C67.8327 10.8005 68.2063 11.501 68.3052 12.3768H61.1984C61.3961 11.5 61.8211 10.8005 62.4725 10.2755V10.2755ZM71.5334 16.9584L68.2468 16.0524C67.6933 17.5526 66.5685 18.3008 64.8714 18.3008C63.8246 18.3008 62.9558 18.0046 62.2659 17.4104C61.574 16.8171 61.1786 16.0144 61.0798 15.0032H72.244V13.9228C72.244 12.3865 71.9327 11.0529 71.311 9.92475C70.7133 8.82063 69.7961 7.91659 68.6758 7.32757C67.5401 6.72455 66.2423 6.42255 64.7814 6.42255C63.4391 6.42255 62.1858 6.74403 61.0214 7.38602C59.8643 8.02105 58.8989 8.94758 58.2242 10.0709C57.5224 11.2194 57.1725 12.5326 57.1725 14.0105C57.1725 15.5088 57.4987 16.8317 58.1491 17.9793C58.7771 19.1045 59.7167 20.0306 60.8584 20.6496C62.0138 21.2828 63.3215 21.5984 64.7824 21.5984C66.5784 21.5984 68.0837 21.1941 69.2975 20.3875C70.369 19.6754 71.1736 18.6486 71.7152 17.3081L71.5334 16.9584ZM28.3935 12.442C28.0772 10.6466 27.0848 5.2282 26.4068 1.52921C26.129 0.021171 24.2253 -0.526322 23.1677 0.596915L18.619 5.43083H13.1114L8.56172 0.596915C7.50411 -0.527296 5.59941 0.0221451 5.32265 1.52921C4.64459 5.2282 3.65221 10.6476 3.33592 12.442C3.22225 13.087 2.83973 15.8809 3.92897 18.7811C5.67255 23.4279 10.3765 27.1435 15.8642 27.1435C21.3529 27.1435 26.0569 23.4279 27.8014 18.7811C28.8907 15.8819 28.5082 13.087 28.3945 12.442H28.3935Z" fill="#E9531E"/>
</svg>
