<svg width="184" height="36" viewBox="0 0 184 36" fill="none" xmlns="http://www.w3.org/2000/svg">
<path d="M85.9769 29.3713H89.6039L94.6735 10.6595V29.3713H98.7539V4.64062H93.1485L88.0789 22.7792L83.0093 4.64062H77.2803V29.3713H80.7837V10.6595L85.9769 29.3713ZM115.817 17.1288C115.817 12.7477 113.633 11.1099 109.099 11.1099C106.255 11.1099 104.03 11.9698 102.711 12.7477V16.228C103.824 15.3682 106.338 14.4674 108.563 14.4674C110.665 14.4674 111.531 15.2454 111.531 17.0879V18.0705H110.871C104.359 18.0705 101.392 20.2406 101.392 23.8847C101.392 27.5288 103.576 29.5761 106.915 29.5761C109.429 29.5761 110.542 28.7981 111.325 27.9383H111.531C111.531 28.3887 111.737 29.0438 111.861 29.3713H116.065C115.941 27.9383 115.859 26.4233 115.859 24.9902C115.817 24.9902 115.817 17.1288 115.817 17.1288ZM111.531 25.1131C110.995 25.891 110.006 26.5461 108.44 26.5461C106.667 26.5461 105.802 25.4406 105.802 23.9257C105.802 21.8375 107.244 21.1005 110.995 21.1005H111.655V25.154H111.531V25.1131ZM123.195 11.4375H119.238V34.5304H123.525V27.3241C124.638 28.9619 126.163 29.7398 128.059 29.7398C132.263 29.7398 135.107 26.4642 135.107 20.4454C135.107 14.4265 132.345 11.1509 128.265 11.1509C126.286 11.1509 124.638 12.0107 123.401 13.7713C123.442 13.7304 123.195 11.4375 123.195 11.4375ZM126.863 26.4233C124.679 26.4233 123.442 24.5808 123.442 20.5272C123.442 16.3509 124.638 14.5083 127.069 14.5083C129.378 14.5083 130.573 16.3509 130.573 20.4044C130.573 24.5808 129.378 26.4233 126.863 26.4233ZM148.419 29.3713H153.283L146.441 19.7493L152.5 11.4375H148.213L142.155 19.7493V11.4375H137.868V29.3713H142.155V20.6091L148.419 29.3713ZM167.585 28.1839V24.7036C166.266 25.5635 164.082 26.3414 161.98 26.3414C158.888 26.3414 157.693 24.9083 157.446 21.8375H167.667V19.5446C167.667 13.3209 164.906 11.028 160.619 11.028C155.426 11.028 152.912 14.9587 152.912 20.4454C152.912 26.669 156.003 29.7398 161.403 29.7398C164.411 29.6989 166.39 29.0438 167.585 28.1839ZM160.661 14.5083C162.763 14.5083 163.422 16.269 163.422 18.439V18.7666H157.446C157.569 15.9414 158.682 14.5083 160.661 14.5083ZM183 14.8359V11.4375H168.698V14.8359H173.767V29.3713H178.054V14.8359H183Z" fill="white"/>
<path d="M51.8506 33.7528C61.0006 33.7528 68.3783 26.4237 68.3783 17.3339C68.3783 8.24417 61.0006 0.915039 51.8506 0.915039C42.7006 0.915039 35.3229 8.24417 35.3229 17.3339C35.2405 26.4237 42.7419 33.7528 51.8506 33.7528Z" fill="#FED42B"/>
<path d="M16.5277 33.7528C25.6557 33.7528 33.0554 26.4018 33.0554 17.3339C33.0554 8.26603 25.6557 0.915039 16.5277 0.915039C7.3997 0.915039 0 8.26603 0 17.3339C0 26.4018 7.3997 33.7528 16.5277 33.7528Z" fill="#FC3F1D"/>
<path d="M18.9188 10.1272H17.2702C14.4263 10.1272 12.9837 11.5603 12.9837 13.7304C12.9837 16.1461 13.9729 17.3335 16.0749 18.7666L17.7236 19.954L12.9837 27.2831H9.10938L13.6432 20.6091C11.0053 18.7666 9.56275 17.006 9.56275 13.9351C9.56275 10.0863 12.2006 7.46582 17.2702 7.46582H22.3398V27.1603H19.0425V10.0863H18.9188V10.1272Z" fill="white"/>
<path d="M43.73 9.92303L29.1807 28.8396L33.055 33.2207L43.8536 19.0128L42.7408 26.7923L48.7996 28.8805L56.1773 17.1703C55.8476 19.3403 55.3117 24.3766 60.134 25.9325C67.7178 28.2254 74.3536 14.6726 77.4036 7.79389L72.9935 5.50098C69.5726 12.6254 64.2969 20.4868 62.1948 19.9545C60.0928 19.4222 61.9888 12.7482 63.184 8.44901V8.32617L56.4658 6.03326L48.4286 19.0537L49.5415 11.9293L43.73 9.92303Z" fill="white"/>
</svg>
