<svg width="80" height="80" viewBox="0 0 80 80" fill="none" xmlns="http://www.w3.org/2000/svg">
<path d="M40 80C62.0914 80 80 62.0914 80 40C80 17.9086 62.0914 0 40 0C17.9086 0 0 17.9086 0 40C0 62.0914 17.9086 80 40 80Z" fill="black"/>
<path d="M40.0228 77.5948C61.0346 77.5948 78.0681 60.7327 78.0681 39.9322C78.0681 19.1317 61.0346 2.26953 40.0228 2.26953C19.011 2.26953 1.97754 19.1317 1.97754 39.9322C1.97754 60.7327 19.011 77.5948 40.0228 77.5948Z" stroke="#FED38C" stroke-miterlimit="10" stroke-linecap="round" stroke-linejoin="round" stroke-dasharray="0.06 3"/>
<path d="M21.7859 29.8891C23.4224 29.1655 25.3354 28.7109 27.1197 29.0822C28.2259 29.3133 29.279 29.8133 30.2829 30.3096C33.8552 32.0787 37.1282 34.6433 41.0566 35.6055C42.9583 36.0715 44.9244 36.1397 46.864 35.9275C47.0458 35.9086 47.0496 35.6169 46.864 35.6396C45.0646 35.8328 43.25 35.7987 41.4771 35.4085C39.314 34.9312 37.329 33.9311 35.4197 32.8439C33.7074 31.8703 32.0292 30.8399 30.2563 29.9762C29.2828 29.5027 28.2637 29.0254 27.1955 28.8019C25.3316 28.4155 23.3504 28.8814 21.6381 29.639C21.4676 29.7148 21.6154 29.9648 21.7859 29.8891Z" fill="#FED38C" stroke="#FED38C" stroke-width="0.5"/>
<path d="M22.9463 55.6901C19.1315 53.9172 16.3699 50.6631 15.1728 46.6362C14.1121 43.0753 14.2182 39.037 15.8017 35.6428C16.6389 33.8471 17.8852 32.3584 19.4914 31.2067C19.6429 31.1007 19.499 30.8468 19.3474 30.9567C12.9643 35.5291 12.7938 45.4354 17.2109 51.4321C18.658 53.3982 20.5938 54.9135 22.8023 55.9363C22.9652 56.0197 23.113 55.7697 22.9463 55.6901Z" fill="#FED38C" stroke="#FED38C" stroke-width="0.5"/>
<path d="M22.8697 55.9588C23.0553 55.9588 23.0553 55.6709 22.8697 55.6709C22.6841 55.6709 22.6841 55.9588 22.8697 55.9588Z" fill="#FFD263"/>
<path d="M26.809 53.6522C30.4229 53.9211 34.1998 53.6825 37.541 52.1596C38.6586 51.652 39.6852 50.9928 40.636 50.2162C42.0528 49.057 43.3333 47.7122 44.8523 46.6856C45.4054 46.3105 46.11 45.856 46.8109 45.909C47.5458 45.9658 48.0951 46.6401 47.9019 47.3637C47.6215 48.413 46.6328 49.2843 45.9093 50.042C45.1024 50.8829 44.25 51.6823 43.3522 52.4286C41.1853 54.2318 38.7002 55.8114 36.0106 56.7055C34.787 57.1146 33.4801 57.2775 32.1958 57.3533C30.0252 57.4783 27.8469 57.2358 25.7445 56.6865C25.5626 56.6411 25.4869 56.9176 25.6687 56.9669C27.5818 57.4669 29.5592 57.7207 31.5367 57.6715C32.9345 57.6374 34.393 57.4972 35.7378 57.0994C38.276 56.3456 40.6436 54.9099 42.7233 53.3036C43.606 52.6218 44.4508 51.8906 45.2501 51.114C46.129 50.2655 47.0647 49.3714 47.7428 48.3448C48.0799 47.8334 48.4019 47.1743 48.1595 46.5606C47.9511 46.034 47.3715 45.6552 46.8109 45.6211C46.1631 45.5832 45.5266 45.9204 44.9963 46.2499C44.2652 46.7045 43.5984 47.2652 42.9468 47.8258C41.6513 48.9434 40.4239 50.1632 38.9654 51.0724C35.3628 53.315 30.9419 53.6749 26.8052 53.368C26.6233 53.3491 26.6271 53.637 26.809 53.6522Z" fill="#FED38C" stroke="#FED38C" stroke-width="0.5"/>
<path d="M53.8229 51.3643C55.5086 52.1068 57.3308 52.4856 59.1756 52.4288C60.172 52.3985 61.2554 52.2204 62.1797 52.6977C63.1116 53.175 63.4526 54.1789 62.9146 55.0957C61.9752 56.7019 59.456 56.717 57.8232 56.7284C55.9897 56.7398 54.1562 56.4557 52.4098 55.9064C50.4589 55.2889 48.633 54.3305 47.0116 53.0841C46.8639 52.9705 46.7199 53.2205 46.8677 53.3341C50.0233 55.7662 53.9933 57.0807 57.9785 57.0201C59.6113 56.9936 61.9259 56.9368 63.0018 55.4934C63.4374 54.9063 63.6306 54.1183 63.3162 53.4326C62.9942 52.7318 62.2441 52.3189 61.513 52.1787C60.3083 51.9439 59.0431 52.2166 57.8194 52.1143C56.4898 52.0045 55.1904 51.6598 53.9668 51.1256C53.8001 51.0385 53.6524 51.2885 53.8229 51.3643Z" fill="#FED38C" stroke="#FED38C" stroke-width="0.5"/>
<path d="M55.251 47.2462C56.8724 48.1023 58.6226 48.6895 60.4371 48.9509C61.3425 49.0797 62.2971 49.1024 63.1343 49.504C64.0132 49.9282 64.7481 50.9208 64.2178 51.8981C64.1307 52.061 64.3769 52.2088 64.4678 52.0421C64.8315 51.3716 64.7027 50.5722 64.2329 49.9851C63.642 49.2501 62.6911 48.966 61.7971 48.8297C60.7288 48.6668 59.6757 48.5607 58.6301 48.2766C57.505 47.9697 56.4254 47.5379 55.395 46.9923C55.2321 46.909 55.0843 47.159 55.251 47.2462Z" fill="#FED38C" stroke="#FED38C" stroke-width="0.5"/>
<path d="M56.0434 39.1662C56.6154 41.6854 56.354 44.3447 55.2895 46.6972C55.2138 46.8639 55.4638 47.0116 55.5395 46.8412C56.6343 44.4091 56.9109 41.6854 56.3199 39.0866C56.282 38.9086 56.0017 38.9844 56.0434 39.1662Z" fill="#FED38C" stroke="#FED38C" stroke-width="0.5"/>
<path d="M56.5934 39.1394C58.6694 38.2605 60.7151 36.946 61.9008 34.9761C62.3629 34.2033 62.647 33.2638 62.1053 32.4532C61.8515 32.0743 61.4878 31.7751 61.1545 31.472C60.6052 30.972 60.0786 30.4568 59.6013 29.8885C58.9876 29.1612 58.6012 28.2823 57.9951 27.5588C57.3473 26.7822 56.4192 26.392 55.4494 26.2139C54.0932 25.9677 53.1196 25.0169 52.4377 23.869C52.1498 23.3841 51.8165 22.5015 51.1194 22.5583C50.1572 22.6378 49.6951 24.0812 49.4261 24.8237C48.9412 26.1647 48.7632 27.555 48.9374 28.9718C48.9602 29.1536 49.248 29.1574 49.2253 28.9718C49.0776 27.7595 49.1647 26.5359 49.5397 25.3729C49.6837 24.9259 49.8466 24.4789 50.0512 24.0546C50.2481 23.6417 50.5171 23.0735 50.9717 22.8954C51.6839 22.6151 52.1385 23.9599 52.4302 24.3994C53.006 25.2669 53.8318 26.0548 54.8433 26.373C55.2259 26.4943 55.6275 26.5208 56.0101 26.6231C56.5707 26.7784 57.1162 27.0966 57.5405 27.4982C58.0974 28.0209 58.4004 28.7672 58.8399 29.3809C59.5218 30.3317 60.3552 31.1311 61.2151 31.919C61.969 32.6123 62.3667 33.332 61.9083 34.3473C60.9196 36.5482 58.5823 37.9878 56.4457 38.8894C56.279 38.9613 56.4268 39.2114 56.5934 39.1394Z" fill="#FED38C" stroke="#FED38C" stroke-width="0.5"/>
<path d="M52.1841 23.6983C52.3735 23.4786 52.5705 23.2703 52.7864 23.0733C53.0137 22.8649 53.2827 22.6339 53.5895 22.5505C53.8547 22.4785 53.9759 22.6338 54.0592 22.8649C54.1918 23.221 54.2752 23.6037 54.3585 23.9711C54.4759 24.4863 54.5744 25.0091 54.6502 25.5319C54.6729 25.6834 54.9002 25.619 54.8775 25.4674C54.8017 24.9522 54.707 24.437 54.5896 23.9294C54.4949 23.5203 54.4115 23.0922 54.2487 22.7058C54.1502 22.471 53.9873 22.2853 53.7107 22.2891C53.3774 22.2967 53.0743 22.524 52.8281 22.721C52.5326 22.9596 52.2674 23.2362 52.0174 23.5241C51.9189 23.6453 52.0856 23.8158 52.1841 23.6983Z" fill="#FED38C" stroke="#FED38C" stroke-width="0.5"/>
<path d="M25.2872 42.8097C25.2797 42.3816 25.3479 41.9536 25.5486 41.5709C25.7229 41.2414 26.007 41.0292 26.2684 40.7754C26.704 40.3436 26.8177 39.764 26.7874 39.1654C26.7192 37.8206 25.7153 36.8167 24.4008 36.6197C23.0711 36.4189 21.8134 37.1349 21.0368 38.1881C20.0936 39.4685 19.9117 41.158 20.0746 42.6998C20.2375 44.2379 20.7641 45.81 21.7263 47.0412C22.5332 48.0754 23.8174 48.636 24.9349 47.6928C25.9047 46.8745 26.6662 45.1774 26.0487 43.9613C25.7532 43.3779 24.4046 42.2074 24.1205 43.4272C23.7985 44.8099 25.8403 44.6508 26.4502 45.3895C27.2761 46.3896 26.8101 48.1663 26.5412 49.2687C26.4919 49.4656 26.7988 49.5528 26.848 49.352C27.1586 48.0792 27.689 45.8896 26.4161 44.9236C26.0752 44.666 25.6585 44.5523 25.2569 44.4235C25.0334 44.3515 24.7645 44.2833 24.5902 44.1129C24.3629 43.8931 24.2872 43.1885 24.7645 43.2188C25.2721 43.2529 25.7456 43.9575 25.8706 44.3818C26.0979 45.1433 25.7835 45.9956 25.3933 46.6434C25.0903 47.1472 24.6508 47.6511 24.0712 47.8253C23.3098 48.0526 22.6165 47.5905 22.1317 47.045C21.2301 46.0259 20.7111 44.6394 20.4762 43.3173C20.2224 41.8854 20.2489 40.2792 20.9308 38.9608C21.499 37.8585 22.6014 36.9228 23.8932 36.9038C25.4994 36.8849 26.7268 38.2184 26.4237 39.8284C26.3101 40.4459 25.8062 40.6807 25.4502 41.1391C25.0827 41.6164 24.9539 42.2225 24.9653 42.8135C24.9728 43.0143 25.291 43.0181 25.2872 42.8097Z" fill="#FED38C" stroke="#FED38C" stroke-width="0.5"/>
<path d="M32.5604 42.8102C32.568 42.3064 32.4846 41.7874 32.2232 41.348C31.9694 40.9199 31.4921 40.685 31.2497 40.2608C30.9239 39.7001 31.0186 38.8326 31.28 38.2644C31.5641 37.6507 32.1285 37.2226 32.765 37.0256C33.9999 36.643 35.2576 37.2036 36.0683 38.1545C37.0116 39.2682 37.2578 40.7873 37.182 42.2041C37.1063 43.602 36.7161 44.9923 35.9963 46.1969C35.3031 47.3599 33.9961 48.5418 32.7233 47.3751C31.7535 46.4848 31.064 44.6551 32.1399 43.602C32.2801 43.4656 32.5528 43.2156 32.765 43.2156C33.1286 43.2118 33.2006 43.7383 33.0301 44.0035C32.7612 44.4164 32.0225 44.4733 31.5982 44.6513C29.7912 45.4165 30.3178 47.8675 30.6776 49.3525C30.7269 49.5495 31.0337 49.4662 30.9845 49.2692C30.7193 48.1782 30.3291 46.6477 30.939 45.5908C31.1966 45.1438 31.655 44.9506 32.1323 44.7991C32.5566 44.6627 33.0907 44.549 33.3256 44.1247C33.5188 43.7762 33.4809 43.1322 33.0756 42.9353C32.7119 42.761 32.2573 43.0678 31.9959 43.2989C30.9011 44.2687 31.2156 45.8143 31.9315 46.9205C32.6437 48.0228 33.8939 48.6252 35.0568 47.7842C36.2577 46.9167 36.932 45.2764 37.2578 43.8823C37.6215 42.3329 37.6594 40.5903 37.0191 39.1091C36.4926 37.8855 35.4054 36.821 34.0492 36.6165C32.6399 36.4043 31.136 37.215 30.814 38.6583C30.6701 39.291 30.6852 40.1054 31.1209 40.6244C31.3519 40.901 31.6664 41.098 31.8785 41.3972C32.1664 41.8064 32.2535 42.3178 32.2422 42.8102C32.2422 43.0148 32.5566 43.0148 32.5604 42.8102Z" fill="#FED38C" stroke="#FED38C" stroke-width="0.5"/>
<path d="M47.0925 35.764C47.4107 34.279 47.9789 32.8622 48.7669 31.5666C48.8654 31.4075 48.6153 31.2636 48.5169 31.4227C47.7137 32.7372 47.1341 34.1843 46.8121 35.6883C46.7743 35.8701 47.0508 35.9458 47.0925 35.764Z" fill="#FED38C" stroke="#FED38C" stroke-width="0.5"/>
<path d="M49.4255 31.1009C49.8983 31.1009 50.2816 30.7177 50.2816 30.2448C50.2816 29.772 49.8983 29.3887 49.4255 29.3887C48.9526 29.3887 48.5693 29.772 48.5693 30.2448C48.5693 30.7177 48.9526 31.1009 49.4255 31.1009Z" fill="white"/>
<path d="M24.3513 57.2055C24.8241 57.2055 25.2074 56.8221 25.2074 56.3493C25.2074 55.8765 24.8241 55.4932 24.3513 55.4932C23.8784 55.4932 23.4951 55.8765 23.4951 56.3493C23.4951 56.8221 23.8784 57.2055 24.3513 57.2055Z" fill="white"/>
<path d="M20.5749 31.2679C21.0477 31.2679 21.431 30.8846 21.431 30.4118C21.431 29.939 21.0477 29.5557 20.5749 29.5557C20.102 29.5557 19.7188 29.939 19.7188 30.4118C19.7188 30.8846 20.102 31.2679 20.5749 31.2679Z" fill="white"/>
<path d="M38.7661 56.0157C39.4101 56.2809 40.0882 56.44 40.7815 56.4892C41.38 56.5309 42.0543 56.5309 42.6112 56.2695C43.1302 56.027 43.4484 55.5232 43.5355 54.9663C43.6378 54.3375 43.4446 53.72 43.1946 53.148C43.1188 52.9775 42.8726 53.1253 42.9445 53.2919C43.1756 53.8185 43.3575 54.4133 43.2362 54.9929C43.1226 55.5422 42.7665 55.9437 42.2286 56.1028C41.7134 56.2506 41.1375 56.2354 40.611 56.1862C40.0011 56.1256 39.4063 55.9702 38.8419 55.7354C38.6676 55.6672 38.5956 55.9475 38.7661 56.0157Z" fill="#FED38C" stroke="#FED38C" stroke-width="0.5"/>
</svg>
