<svg width="248" height="26" viewBox="0 0 248 26" fill="none" xmlns="http://www.w3.org/2000/svg">
<g opacity="0.5">
<path d="M0.434326 16.6548L6.72862 9.28537H0.696183V4.63186H14.115V8.69408L7.41765 16.5617H14.3053V21.3562H0.434326V16.6548Z" fill="white"/>
<path d="M22.1913 12.8992C22.1913 13.4513 22.2735 13.9544 22.4398 14.4114C22.606 14.8683 22.8357 15.2621 23.1288 15.5927C23.4219 15.9236 23.774 16.1794 24.186 16.36C24.5971 16.5413 25.0413 16.6319 25.5159 16.6319C25.9913 16.6319 26.4301 16.5413 26.8341 16.36C27.238 16.1794 27.5901 15.9236 27.8913 15.5927C28.1916 15.2621 28.4257 14.8683 28.592 14.4114C28.7582 13.9544 28.8413 13.4513 28.8413 12.8992C28.8413 12.3642 28.7582 11.8719 28.592 11.4229C28.4257 10.9743 28.1916 10.5961 27.8913 10.2888C27.5901 9.98226 27.238 9.74199 26.8341 9.56866C26.4301 9.39541 25.9913 9.30928 25.5159 9.30928C25.0413 9.30928 24.5971 9.39541 24.186 9.56866C23.774 9.74199 23.4219 9.98226 23.1288 10.2888C22.8357 10.5961 22.606 10.9743 22.4398 11.4229C22.2735 11.8719 22.1913 12.3642 22.1913 12.8992ZM16.1821 12.8992C16.1821 11.5607 16.4198 10.352 16.8944 9.27355C17.3698 8.19541 18.0231 7.27737 18.8543 6.52146C19.6854 5.76555 20.6711 5.18297 21.8106 4.77319C22.951 4.3635 24.186 4.15861 25.5159 4.15861C26.8466 4.15861 28.0808 4.3635 29.2211 4.77319C30.3615 5.18297 31.3508 5.76555 32.19 6.52146C33.0291 7.27737 33.686 8.19541 34.1614 9.27355C34.636 10.352 34.8737 11.5607 34.8737 12.8992C34.8737 14.2388 34.636 15.4593 34.1614 16.5617C33.686 17.6639 33.0291 18.6052 32.19 19.3847C31.3508 20.1642 30.3615 20.7659 29.2211 21.1919C28.0808 21.6159 26.8466 21.8291 25.5159 21.8291C24.186 21.8291 22.951 21.6159 21.8106 21.1919C20.6711 20.7659 19.6854 20.1642 18.8543 19.3847C18.0231 18.6052 17.3698 17.6639 16.8944 16.5617C16.4198 15.4593 16.1821 14.2388 16.1821 12.8992Z" fill="white"/>
<path d="M43.0921 12.8992C43.0921 13.4513 43.1752 13.9544 43.3415 14.4114C43.5077 14.8683 43.7365 15.2621 44.0305 15.5927C44.3227 15.9236 44.6748 16.1794 45.0868 16.36C45.4988 16.5413 45.9421 16.6319 46.4166 16.6319C46.8921 16.6319 47.3309 16.5413 47.7357 16.36C48.1388 16.1794 48.4909 15.9236 48.7921 15.5927C49.0933 15.2621 49.3265 14.8683 49.4928 14.4114C49.659 13.9544 49.7421 13.4513 49.7421 12.8992C49.7421 12.3642 49.659 11.8719 49.4928 11.4229C49.3265 10.9743 49.0933 10.5961 48.7921 10.2888C48.4909 9.98226 48.1388 9.74199 47.7357 9.56866C47.3309 9.39541 46.8921 9.30928 46.4166 9.30928C45.9421 9.30928 45.4988 9.39541 45.0868 9.56866C44.6748 9.74199 44.3227 9.98226 44.0305 10.2888C43.7365 10.5961 43.5077 10.9743 43.3415 11.4229C43.1752 11.8719 43.0921 12.3642 43.0921 12.8992ZM37.0829 12.8992C37.0829 11.5607 37.3206 10.352 37.7952 9.27355C38.2706 8.19541 38.9239 7.27737 39.7551 6.52146C40.5862 5.76555 41.5719 5.18297 42.7114 4.77319C43.8518 4.3635 45.0868 4.15861 46.4166 4.15861C47.7474 4.15861 48.9825 4.3635 50.1219 4.77319C51.2623 5.18297 52.2516 5.76555 53.0908 6.52146C53.9299 7.27737 54.5877 8.19541 55.0623 9.27355C55.5377 10.352 55.7754 11.5607 55.7754 12.8992C55.7754 14.2388 55.5377 15.4593 55.0623 16.5617C54.5877 17.6639 53.9299 18.6052 53.0908 19.3847C52.2516 20.1642 51.2623 20.7659 50.1219 21.1919C48.9825 21.6159 47.7474 21.8291 46.4166 21.8291C45.0868 21.8291 43.8518 21.6159 42.7114 21.1919C41.5719 20.7659 40.5862 20.1642 39.7551 19.3847C38.9239 18.6052 38.2706 17.6639 37.7952 16.5617C37.3206 15.4593 37.0829 14.2388 37.0829 12.8992Z" fill="white"/>
<path d="M57.8881 12.5927H64.4434V16.6548H57.8881V12.5927Z" fill="white"/>
<path d="M76.5341 21.6239C75.2043 21.6239 73.9728 21.4187 72.8414 21.0086C71.7091 20.5999 70.7278 20.0131 69.8958 19.2496C69.0646 18.485 68.4114 17.56 67.9368 16.4736C67.4614 15.3864 67.2245 14.1742 67.2245 12.8354C67.2245 11.4968 67.4614 10.2843 67.9368 9.19719C68.4114 8.10999 69.0602 7.18226 69.8842 6.40964C70.7073 5.63817 71.6733 5.04332 72.7815 4.6267C73.8897 4.20963 75.0774 3.99995 76.3447 3.99995C77.6584 3.99995 78.906 4.2131 80.0857 4.63817C81.2645 5.06386 82.227 5.64608 82.9714 6.38644L79.6692 10.3315C79.3207 9.92252 78.9096 9.59541 78.435 9.35097C77.9596 9.10724 77.3733 8.98466 76.6771 8.98466C76.2178 8.98466 75.77 9.07533 75.3348 9.25692C74.8996 9.43817 74.5153 9.69755 74.1828 10.0353C73.8504 10.375 73.5814 10.7801 73.3758 11.2531C73.1703 11.7253 73.0666 12.2531 73.0666 12.8354C73.0666 14.0006 73.3714 14.9499 73.9809 15.6815C74.5904 16.4142 75.5689 16.7802 76.914 16.7802C77.1526 16.7802 77.3974 16.7607 77.6513 16.7215C77.9042 16.6826 78.1026 16.6239 78.2447 16.5447V15.2683H75.5368V10.8506H83.2565V19.9937C82.8597 20.2291 82.4048 20.4461 81.89 20.6426C81.3762 20.8409 80.8292 21.0086 80.2519 21.151C79.6737 21.2933 79.0678 21.4062 78.435 21.4933C77.8014 21.5801 77.1678 21.6239 76.5341 21.6239Z" fill="white"/>
<path d="M94.2766 10.3076L92.8985 14.4426H95.6306L94.2766 10.3076ZM91.3551 4.47284H97.3643L103.92 21.1982H97.7674L96.8889 18.7413H91.5455L90.7135 21.1982H84.7284L91.3551 4.47284Z" fill="white"/>
<path d="M105.7 4.47284H111.401V16.3555H116.982V21.1982H105.7V4.47284Z" fill="white"/>
<path d="M119.333 4.47284H130.9V9.1499H124.653V10.5909H130.52V14.9607H124.653V16.5208H131.304V21.1982H119.333V4.47284Z" fill="white"/>
<path d="M139.688 11.5357H140.795C140.984 11.5357 141.192 11.5207 141.42 11.4888C141.648 11.4575 141.86 11.3909 142.056 11.2888C142.253 11.1857 142.417 11.0444 142.551 10.8631C142.684 10.6815 142.751 10.4426 142.751 10.143C142.751 9.84332 142.696 9.60688 142.587 9.43363C142.477 9.26039 142.336 9.13052 142.163 9.04332C141.989 8.9579 141.801 8.90199 141.597 8.87915C141.393 8.85479 141.205 8.84332 141.031 8.84332H139.688V11.5357ZM134.249 4.47284H141.492C142.316 4.47284 143.135 4.5555 143.951 4.72075C144.766 4.88706 145.495 5.17843 146.137 5.59435C146.778 6.01248 147.296 6.5715 147.692 7.27186C148.088 7.97319 148.286 8.85061 148.286 9.90652C148.286 10.9295 148.033 11.8319 147.527 12.6114C147.022 13.3909 146.296 13.9937 145.349 14.4187L149.616 21.1982H143.122L139.901 15.2211H139.735V21.1982H134.249V4.47284Z" fill="white"/>
<path d="M151.8 4.47284H163.367V9.1499H157.121V10.5909H162.987V14.9607H157.121V16.5208H163.771V21.1982H151.8V4.47284Z" fill="white"/>
<path d="M176.573 21.1982H170.921V14.3475L164.579 4.47284H171.395L174.056 9.38644L176.597 4.47284H183.247L176.573 14.3475V21.1982Z" fill="white"/>
<path d="M191.014 10.3076L189.636 14.4426H192.368L191.014 10.3076ZM188.092 4.47284H194.101L200.657 21.1982H194.505L193.626 18.7413H188.283L187.451 21.1982H181.466L188.092 4.47284Z" fill="white"/>
<path d="M202.01 18.5288C202.01 18.1038 202.094 17.7055 202.259 17.335C202.426 16.9652 202.655 16.6426 202.948 16.368C203.241 16.0913 203.582 15.8711 203.969 15.7055C204.357 15.5402 204.765 15.4576 205.193 15.4576C205.605 15.4576 205.996 15.5402 206.368 15.7055C206.74 15.8711 207.069 16.0913 207.354 16.368C207.639 16.6426 207.865 16.9652 208.03 17.335C208.198 17.7055 208.281 18.1038 208.281 18.5288C208.281 18.9545 208.198 19.3555 208.03 19.734C207.865 20.111 207.639 20.4347 207.354 20.702C207.069 20.9697 206.74 21.1829 206.368 21.3395C205.996 21.4968 205.605 21.576 205.193 21.576C204.765 21.576 204.357 21.4968 203.969 21.3395C203.582 21.1829 203.241 20.9697 202.948 20.702C202.655 20.4347 202.426 20.111 202.259 19.734C202.094 19.3555 202.01 18.9545 202.01 18.5288Z" fill="white"/>
<path d="M217.02 11.5357H218.127C218.316 11.5357 218.525 11.5207 218.752 11.4888C218.98 11.4575 219.193 11.3909 219.388 11.2888C219.585 11.1857 219.75 11.0444 219.883 10.8631C220.017 10.6815 220.085 10.4426 220.085 10.143C220.085 9.84332 220.028 9.60688 219.919 9.43363C219.809 9.26039 219.668 9.13052 219.495 9.04332C219.321 8.9579 219.133 8.90199 218.93 8.87915C218.725 8.85479 218.537 8.84332 218.363 8.84332H217.02V11.5357ZM211.581 4.47284H218.824C219.648 4.47284 220.467 4.5555 221.283 4.72075C222.099 4.88706 222.827 5.17843 223.469 5.59435C224.111 6.01248 224.629 6.5715 225.024 7.27186C225.42 7.97319 225.618 8.85061 225.618 9.90652C225.618 10.9295 225.365 11.8319 224.86 12.6114C224.355 13.3909 223.628 13.9937 222.682 14.4187L226.948 21.1982H220.455L217.234 15.2211H217.068V21.1982H211.581V4.47284Z" fill="white"/>
<path d="M236.686 21.6701C235.371 21.6701 234.228 21.4888 233.254 21.127C232.28 20.7652 231.468 20.269 230.819 19.6388C230.17 19.0086 229.687 18.2649 229.37 17.4062C229.054 16.5482 228.896 15.6229 228.896 14.6301V4.47284H234.548V14.0166C234.548 14.8194 234.742 15.4451 235.131 15.894C235.518 16.343 236.068 16.568 236.781 16.568C237.494 16.568 238.043 16.343 238.431 15.894C238.82 15.4451 239.013 14.8194 239.013 14.0166V4.47284H244.642V14.6301C244.642 15.6229 244.473 16.5482 244.132 17.4062C243.792 18.2649 243.289 19.0086 242.624 19.6388C241.959 20.269 241.131 20.7652 240.142 21.127C239.152 21.4888 238 21.6701 236.686 21.6701Z" fill="white"/>
</g>
</svg>
