<svg width="80" height="80" viewBox="0 0 80 80" fill="none" xmlns="http://www.w3.org/2000/svg">
<path d="M40 80C62.0914 80 80 62.0914 80 40C80 17.9086 62.0914 0 40 0C17.9086 0 0 17.9086 0 40C0 62.0914 17.9086 80 40 80Z" fill="black"/>
<path d="M40.0228 77.5948C61.0346 77.5948 78.0681 60.7327 78.0681 39.9322C78.0681 19.1317 61.0346 2.26953 40.0228 2.26953C19.011 2.26953 1.97754 19.1317 1.97754 39.9322C1.97754 60.7327 19.011 77.5948 40.0228 77.5948Z" stroke="#FED38C" stroke-miterlimit="10" stroke-linecap="round" stroke-linejoin="round" stroke-dasharray="0.06 3"/>
<path d="M35.2462 43.2159C33.2915 40.9202 32.6323 37.6737 33.4013 34.787C33.4316 34.6772 33.3294 34.5862 33.2233 34.609C31.2837 35.0484 31.4542 37.0827 31.7307 38.6359C31.9088 39.617 32.1247 40.5868 32.4315 41.5377C32.602 42.0718 32.799 42.5984 33.0149 43.1136C33.0604 43.2234 33.2309 43.4848 33.2195 43.5644C33.2081 43.6363 33.1248 43.7273 33.0907 43.7917C31.7269 46.3449 32.7157 49.3339 35.0719 50.8719C35.7766 51.3303 36.6289 51.7015 37.4699 51.7924C38.3942 51.8909 39.2807 51.6333 40.1255 51.2886C40.6937 51.0537 41.565 50.5044 42.1976 50.7923C42.5423 50.9476 42.7393 51.2166 43.1409 51.2772C43.4477 51.3227 43.7508 51.2507 44.0425 51.1446C44.9327 50.8302 45.7358 50.3188 46.6109 49.9741C46.9253 49.8491 47.1261 49.8074 46.9367 50.2544C46.7776 50.6294 46.3798 50.9098 46.054 51.1333C45.1903 51.728 44.2433 52.1864 43.3795 52.7887C42.9325 53.0994 42.1408 53.6524 42.6522 54.2548C43.1939 54.8912 44.3607 55.1033 45.1373 55.2359C45.7964 55.3496 46.467 55.414 47.1375 55.414C48.0163 55.4178 49.9711 55.5163 49.9749 54.2093C49.9749 54.1298 49.9067 54.0654 49.8309 54.0654C48.5164 54.0313 47.1981 53.9896 45.8912 53.8457C45.4896 53.804 44.6865 53.8078 44.3493 53.5199C44.2698 53.4517 44.266 53.4744 44.4062 53.4062C44.7168 53.2509 45.0577 53.16 45.3835 53.0501C46.2283 52.7584 47.1223 52.3985 47.7171 51.7053C48.3421 50.9779 48.6073 49.7241 48.0997 48.8603C47.6754 48.1368 46.8837 48.3565 46.2586 48.6633C45.4631 49.0573 44.5653 49.9021 43.6334 49.9021C42.8984 49.9021 42.8568 49.1179 42.6446 48.5914C42.4855 48.2012 42.2393 47.8564 41.9324 47.5685C41.1142 46.7957 40.0042 46.379 39.0079 45.8979C37.5987 45.216 36.288 44.4016 35.2462 43.2159C35.125 43.0757 34.9204 43.2803 35.0416 43.4204C35.9395 44.4432 37.038 45.216 38.2427 45.8411C39.2352 46.3525 40.3073 46.7465 41.2316 47.3791C41.637 47.6557 42.0044 47.9928 42.2431 48.4247C42.5007 48.8868 42.4931 49.5081 42.8833 49.8983C43.497 50.512 44.4403 50.0271 45.0615 49.6824C45.4972 49.4399 45.9139 49.1634 46.3609 48.9399C46.7056 48.7656 47.217 48.5118 47.5959 48.7353C48.2171 49.1066 48.1111 50.2317 47.9141 50.7999C47.7284 51.3416 47.3269 51.7621 46.8534 52.069C46.1033 52.5614 45.2396 52.7357 44.4289 53.0842C44.1675 53.1941 43.8304 53.4327 44.1107 53.7131C44.4213 54.0237 45.1108 54.0426 45.5085 54.0957C46.9367 54.2851 48.3876 54.3192 49.8233 54.3608C49.7741 54.3116 49.7286 54.2661 49.6794 54.2169C49.6794 54.77 49.2665 54.9064 48.7929 55.0011C48.2095 55.1223 47.5959 55.1412 46.9973 55.1299C46.3609 55.1185 42.3188 54.7662 42.8303 53.6487C43.0045 53.266 43.6068 52.9781 43.9402 52.7622C44.3645 52.4857 44.8039 52.2356 45.2396 51.978C45.8533 51.6182 46.5692 51.2469 47.0087 50.6711C47.1905 50.4325 47.5012 49.8263 47.111 49.6256C46.7928 49.4627 46.2548 49.815 45.9821 49.9438C45.5729 50.1408 45.1638 50.3415 44.7547 50.5309C44.3456 50.7204 43.891 50.9704 43.4326 51.0045C42.7696 51.0537 42.3908 50.3908 41.7165 50.44C41.0915 50.4855 40.4967 50.834 39.9247 51.0613C39.0572 51.4098 38.1366 51.6485 37.1971 51.4666C34.2613 50.906 32.083 47.8716 32.9278 44.9357C33.0225 44.6137 33.1437 44.2993 33.299 44C33.371 43.8636 33.515 43.7045 33.5074 43.5454C33.4998 43.3068 33.2422 42.9355 33.1513 42.7044C33.0452 42.4431 32.9467 42.1779 32.8558 41.9089C32.6778 41.3975 32.5187 40.8785 32.3861 40.3519C32.1361 39.367 31.905 38.3366 31.8406 37.3214C31.7686 36.1925 32.0641 35.1621 33.2953 34.8817C33.2346 34.8211 33.1778 34.7643 33.1172 34.7037C32.3217 37.6964 33.0111 41.0414 35.0378 43.4166C35.1629 43.5606 35.3674 43.356 35.2462 43.2159Z" fill="#FED38C"/>
<path d="M35.2462 43.2159C33.2915 40.9202 32.6323 37.6737 33.4013 34.787C33.4316 34.6772 33.3294 34.5862 33.2233 34.609C31.2837 35.0484 31.4542 37.0827 31.7307 38.6359C31.9088 39.617 32.1247 40.5868 32.4315 41.5377C32.602 42.0718 32.799 42.5984 33.0149 43.1136C33.0604 43.2234 33.2309 43.4848 33.2195 43.5644C33.2081 43.6363 33.1248 43.7273 33.0907 43.7917C31.7269 46.3449 32.7157 49.3339 35.0719 50.8719C35.7766 51.3303 36.6289 51.7015 37.4699 51.7924C38.3942 51.8909 39.2807 51.6333 40.1255 51.2886C40.6937 51.0537 41.565 50.5044 42.1976 50.7923C42.5423 50.9476 42.7393 51.2166 43.1409 51.2772C43.4477 51.3227 43.7508 51.2507 44.0425 51.1446C44.9327 50.8302 45.7358 50.3188 46.6109 49.9741C46.9253 49.8491 47.1261 49.8074 46.9367 50.2544C46.7776 50.6294 46.3798 50.9098 46.054 51.1333C45.1903 51.728 44.2433 52.1864 43.3795 52.7887C42.9325 53.0994 42.1408 53.6524 42.6522 54.2548C43.1939 54.8912 44.3607 55.1033 45.1373 55.2359C45.7964 55.3496 46.467 55.414 47.1375 55.414C48.0164 55.4178 49.9711 55.5163 49.9749 54.2093C49.9749 54.1298 49.9067 54.0654 49.8309 54.0654C48.5164 54.0313 47.1981 53.9896 45.8912 53.8457C45.4896 53.804 44.6865 53.8078 44.3493 53.5199C44.2698 53.4517 44.266 53.4744 44.4062 53.4062C44.7168 53.2509 45.0577 53.16 45.3835 53.0501C46.2283 52.7584 47.1223 52.3985 47.7171 51.7053C48.3421 50.9779 48.6073 49.7241 48.0997 48.8603C47.6754 48.1368 46.8837 48.3565 46.2586 48.6633C45.4631 49.0573 44.5653 49.9021 43.6334 49.9021C42.8984 49.9021 42.8568 49.1179 42.6446 48.5914C42.4855 48.2012 42.2393 47.8564 41.9324 47.5685C41.1142 46.7957 40.0042 46.379 39.0079 45.8979C37.5987 45.216 36.288 44.4016 35.2462 43.2159ZM35.2462 43.2159C35.125 43.0757 34.9204 43.2803 35.0416 43.4204C35.9395 44.4432 37.038 45.216 38.2427 45.8411C39.2352 46.3525 40.3073 46.7465 41.2316 47.3791C41.637 47.6557 42.0044 47.9928 42.2431 48.4247C42.5007 48.8868 42.4931 49.5081 42.8833 49.8983C43.497 50.512 44.4403 50.0271 45.0615 49.6824C45.4972 49.4399 45.9139 49.1634 46.3609 48.9399C46.7056 48.7656 47.217 48.5118 47.5959 48.7353C48.2171 49.1066 48.1111 50.2317 47.9141 50.7999C47.7284 51.3416 47.3269 51.7621 46.8534 52.069C46.1033 52.5614 45.2396 52.7357 44.4289 53.0842C44.1675 53.1941 43.8304 53.4327 44.1107 53.7131C44.4213 54.0237 45.1108 54.0426 45.5085 54.0957C46.9367 54.2851 48.3876 54.3192 49.8233 54.3608C49.7741 54.3116 49.7286 54.2661 49.6794 54.2169C49.6794 54.77 49.2665 54.9064 48.7929 55.0011C48.2095 55.1223 47.5959 55.1412 46.9973 55.1299C46.3609 55.1185 42.3188 54.7662 42.8303 53.6487C43.0045 53.266 43.6068 52.9781 43.9402 52.7622C44.3645 52.4857 44.8039 52.2356 45.2396 51.978C45.8533 51.6182 46.5692 51.2469 47.0087 50.6711C47.1905 50.4325 47.5012 49.8263 47.111 49.6256C46.7928 49.4627 46.2548 49.815 45.9821 49.9438C45.5729 50.1408 45.1638 50.3415 44.7547 50.5309C44.3456 50.7204 43.891 50.9704 43.4326 51.0045C42.7696 51.0537 42.3908 50.3908 41.7165 50.44C41.0915 50.4855 40.4967 50.834 39.9247 51.0613C39.0572 51.4098 38.1366 51.6485 37.1971 51.4666C34.2613 50.906 32.083 47.8716 32.9278 44.9357C33.0225 44.6137 33.1437 44.2993 33.299 44C33.371 43.8636 33.515 43.7045 33.5074 43.5454C33.4998 43.3068 33.2422 42.9355 33.1513 42.7044C33.0452 42.4431 32.9467 42.1779 32.8558 41.9089C32.6778 41.3975 32.5187 40.8785 32.3861 40.3519C32.1361 39.367 31.905 38.3366 31.8406 37.3214C31.7686 36.1925 32.0641 35.1621 33.2953 34.8817C33.2346 34.8211 33.1778 34.7643 33.1172 34.7037C32.3217 37.6964 33.0111 41.0414 35.0378 43.4166C35.1629 43.5606 35.3674 43.356 35.2462 43.2159Z" stroke="#FED38C" stroke-width="0.5" stroke-linejoin="round"/>
<path d="M38.3095 21.7859C36.3774 19.4296 32.9832 18.9182 30.4034 20.5093C30.2443 20.6078 30.392 20.8578 30.5474 20.7593C31.6308 20.0926 32.9453 19.763 34.2144 19.8767C35.741 20.013 37.1389 20.8124 38.1049 21.9905C38.2223 22.1345 38.4269 21.9299 38.3095 21.7859Z" fill="#FED38C" stroke="#FED38C" stroke-width="0.5"/>
<path d="M25.3197 48.4172C25.6682 50.5575 26.0773 52.6903 26.3956 54.8344C26.6494 56.5695 26.9108 58.3802 26.7213 60.1342C26.6532 60.7592 26.5092 61.3805 26.1645 61.9109C25.8538 62.3844 25.4636 62.9526 25.5773 63.555C25.6985 64.1876 26.3842 64.4263 26.9486 64.4944C27.7101 64.5816 28.4071 64.3316 29.0094 63.8732C30.6232 62.6382 31.5665 60.7024 31.9984 58.7515C32.04 58.5696 31.7597 58.4939 31.718 58.6757C31.3392 60.3918 30.574 62.0169 29.2973 63.2405C28.6799 63.8353 27.9563 64.2899 27.0623 64.2179C26.6607 64.1838 26.1569 64.074 25.9448 63.6951C25.7213 63.2974 25.9448 62.8238 26.1493 62.464C26.3842 62.0548 26.6494 61.7063 26.7933 61.2479C26.9638 60.7062 27.0244 60.1304 27.0509 59.5697C27.1267 57.9635 26.907 56.3422 26.6721 54.7549C26.3577 52.6108 25.9448 50.478 25.5962 48.3376C25.5659 48.1596 25.2894 48.2353 25.3197 48.4172Z" fill="#FED38C" stroke="#FED38C" stroke-width="0.5"/>
<path d="M27.6653 31.5673C26.4569 33.916 25.5212 36.4125 25.0553 39.015C24.6802 41.125 24.6575 43.2313 24.8848 45.3603C24.9037 45.5421 25.1916 45.5459 25.1727 45.3603C24.9492 43.2616 24.9605 41.1743 25.3318 39.0945C25.7902 36.511 26.7145 34.041 27.9116 31.7151C28.0025 31.5484 27.7525 31.4006 27.6653 31.5673Z" fill="#FED38C" stroke="#FED38C" stroke-width="0.5"/>
<path d="M39.2686 60.2371C38.17 60.5818 37.3669 61.6766 37.5071 62.8471C37.6511 64.0632 38.7421 65.0064 39.9543 65.0064C41.4961 65.0027 42.8106 63.8207 44.2047 63.3093C45.8564 62.707 47.6444 62.563 49.3757 62.8737C49.5575 62.9078 49.637 62.6274 49.4514 62.5933C48.1634 62.3623 46.8527 62.366 45.5685 62.6236C44.235 62.8926 43.1023 63.4836 41.909 64.1011C40.6513 64.7488 39.0451 65.1125 38.1284 63.7222C37.3404 62.5251 38.0034 60.9303 39.3406 60.5136C39.5224 60.4606 39.4467 60.1802 39.2686 60.2371Z" fill="#FED38C" stroke="#FED38C" stroke-width="0.5"/>
<path d="M58.0802 46.0198C58.0082 44.4061 58.5272 42.868 59.3682 41.5081C59.4667 41.3489 59.2167 41.205 59.1182 41.3641C58.2507 42.7657 57.7165 44.3606 57.7923 46.0236C57.7999 46.2055 58.0916 46.2055 58.0802 46.0198Z" fill="#FED38C" stroke="#FED38C" stroke-width="0.5"/>
<path d="M57.9371 46.1629C58.1227 46.1629 58.1227 45.875 57.9371 45.875C57.7514 45.875 57.7514 46.1629 57.9371 46.1629Z" fill="#FFD263"/>
<path d="M51.4993 62.1273C52.2873 63.2676 53.6738 63.7904 55.0299 63.6767C56.5377 63.5517 57.8408 62.6236 58.7652 61.472C60.7502 58.9983 60.9926 55.7404 60.3638 52.7325C60.0759 51.365 59.6061 50.0656 58.9887 48.8155C58.9053 48.6488 58.6553 48.7965 58.7386 48.9594C59.7728 51.0543 60.4055 53.3727 60.3941 55.7214C60.3789 58.6497 59.0038 62.1084 56.03 63.1691C54.5375 63.6995 52.6775 63.3282 51.7493 61.9796C51.6433 61.8281 51.3932 61.972 51.4993 62.1273Z" fill="#FED38C" stroke="#FED38C" stroke-width="0.5"/>
<path d="M40.0935 31.1886C46.7646 35.367 51.3938 42.2692 52.7045 50.0389C52.9621 51.5655 53.0909 53.1111 53.0947 54.6605C53.0947 54.8461 53.3826 54.8461 53.3826 54.6605C53.3637 46.8227 50.0414 39.2007 44.2151 33.9389C42.9801 32.8251 41.6504 31.8212 40.2412 30.9386C40.0783 30.8401 39.9344 31.0901 40.0935 31.1886Z" fill="#FED38C" stroke="#FED38C" stroke-width="0.5"/>
<path d="M27.9634 31.4423C26.1185 29.5974 25.2321 26.8168 25.0086 24.2484C24.8836 22.7975 24.9631 21.3163 25.2927 19.8957C25.501 18.9979 26.8837 14.5695 28.2778 15.8499C28.8612 16.3878 29.1718 17.2667 29.4294 17.9903C29.7401 18.8615 29.9825 19.7556 30.1985 20.6534C30.2401 20.8352 30.5205 20.7557 30.4788 20.5776C30.2591 19.6571 30.0128 18.7403 29.6908 17.8501C29.437 17.153 29.1491 16.4106 28.6642 15.8385C27.3118 14.2285 26.0731 16.8689 25.6185 17.9448C24.5578 20.464 24.4176 23.3392 25.001 25.991C25.4632 28.0745 26.2208 30.105 27.7588 31.6431C27.8876 31.7794 28.0922 31.5749 27.9634 31.4423Z" fill="#FED38C" stroke="#FED38C" stroke-width="0.5"/>
<path d="M43.6427 21.6793C43.5972 25.0546 42.5896 28.5587 40.0401 30.8998C39.9037 31.0248 40.1083 31.2294 40.2447 31.1044C42.851 28.714 43.8852 25.1266 43.9306 21.6793C43.9306 21.4936 43.6427 21.4936 43.6427 21.6793Z" fill="#FED38C" stroke="#FED38C" stroke-width="0.5"/>
<path d="M38.3035 21.968C38.8679 20.8504 39.6407 19.8996 40.5688 19.0586C41.031 18.6419 41.5651 18.085 42.1902 17.9297C42.8645 17.763 43.1789 18.4714 43.3456 18.998C43.4024 19.176 43.679 19.1003 43.6259 18.9222C43.4593 18.3957 43.1751 17.7214 42.5577 17.6229C41.9326 17.5244 41.3303 18.0282 40.887 18.3957C39.7278 19.3617 38.7391 20.4678 38.0572 21.8164C37.9701 21.9869 38.2201 22.1347 38.3035 21.968Z" fill="#FED38C" stroke="#FED38C" stroke-width="0.5"/>
<path d="M25.0662 47.7085C25.5202 47.7085 25.8882 47.3405 25.8882 46.8865C25.8882 46.4325 25.5202 46.0645 25.0662 46.0645C24.6122 46.0645 24.2441 46.4325 24.2441 46.8865C24.2441 47.3405 24.6122 47.7085 25.0662 47.7085Z" fill="white"/>
<path d="M43.7049 21.0816C44.1589 21.0816 44.5269 20.7136 44.5269 20.2595C44.5269 19.8055 44.1589 19.4375 43.7049 19.4375C43.2509 19.4375 42.8828 19.8055 42.8828 20.2595C42.8828 20.7136 43.2509 21.0816 43.7049 21.0816Z" fill="white"/>
<path d="M58.4402 48.2994C58.8942 48.2994 59.2623 47.9313 59.2623 47.4773C59.2623 47.0233 58.8942 46.6553 58.4402 46.6553C57.9862 46.6553 57.6182 47.0233 57.6182 47.4773C57.6182 47.9313 57.9862 48.2994 58.4402 48.2994Z" fill="white"/>
</svg>
