<svg width="184" height="44" viewBox="0 0 184 44" fill="none" xmlns="http://www.w3.org/2000/svg">
<g opacity="0.5">
<path d="M173.391 22.807H171.271V17.4438H173.391C175.111 17.4438 176.203 18.4197 176.203 20.1526C176.203 21.8625 175.111 22.807 173.391 22.807ZM168.137 22.807H166.009C164.289 22.807 163.205 21.8625 163.205 20.1526C163.205 18.4197 164.289 17.4438 166.009 17.4438H168.137V22.807ZM173.477 14.5473H171.271V13.1291C171.271 12.8872 171.129 12.7465 170.886 12.7465H168.514C168.271 12.7465 168.137 12.8872 168.137 13.1291V14.5473H165.931C162.875 14.5473 160.017 16.7957 160.017 20.1526C160.017 23.4548 162.875 25.7032 165.931 25.7032H168.137V27.1264C168.137 27.3683 168.271 27.5012 168.514 27.5012H170.886C171.129 27.5012 171.271 27.3683 171.271 27.1264V25.7032H173.477C176.525 25.7032 179.383 23.4548 179.383 20.1526C179.383 16.7957 176.525 14.5473 173.477 14.5473ZM152.062 20.6H148.103V15.7287H152.062C153.718 15.7287 154.676 16.7279 154.676 18.1408C154.676 19.5774 153.718 20.6 152.062 20.6ZM152.062 12.7465H145.331C145.08 12.7465 144.946 12.8869 144.946 13.1291V27.1342C144.946 27.3764 145.08 27.509 145.331 27.509H147.727C147.97 27.509 148.103 27.3764 148.103 27.1342V23.5821H152.062C155.352 23.5821 157.833 21.2792 157.833 18.1408C157.833 15.1042 155.352 12.7465 152.062 12.7465ZM181.755 12.7154H181.48V12.2939H181.755C181.912 12.2939 181.967 12.3795 181.967 12.5124C181.967 12.6373 181.912 12.7154 181.755 12.7154ZM182.618 12.4735C182.618 12.0984 182.297 11.7706 181.81 11.7706H181.048C180.946 11.7706 180.891 11.8254 180.891 11.9036V13.4101C180.891 13.4961 180.946 13.5428 181.048 13.5428H181.323C181.433 13.5428 181.48 13.4961 181.48 13.4101V13.1758H181.81L181.912 13.4569C181.967 13.5194 181.967 13.5428 182.077 13.5428H182.509C182.564 13.5428 182.563 13.4961 182.563 13.4335L182.352 12.9965C182.509 12.8869 182.618 12.7076 182.618 12.4735ZM181.7 13.9879C180.891 13.9879 180.404 13.4179 180.404 12.7076C180.404 11.9347 180.891 11.4195 181.7 11.4195C182.509 11.4195 182.996 11.9347 182.996 12.7076C182.996 13.4179 182.509 13.9879 181.7 13.9879ZM181.7 10.8262C180.616 10.8262 179.753 11.6147 179.753 12.7076C179.753 13.8083 180.616 14.5734 181.7 14.5734C182.728 14.5734 183.592 13.7846 183.592 12.7076C183.592 11.638 182.728 10.8262 181.7 10.8262ZM139.936 23.504C138.711 23.504 137.808 24.4254 137.808 25.6117C137.808 26.8064 138.711 27.7275 139.936 27.7275C141.161 27.7275 142.056 26.8064 142.056 25.6117C142.056 24.4254 141.161 23.504 139.936 23.504ZM19.2021 23.368C20.011 24.1487 21.1421 24.6016 22.4614 24.6016C23.3805 24.6016 24.1971 24.3751 24.8883 23.9769C25.7835 23.4539 26.4434 22.6341 26.7887 21.627C26.7887 21.627 26.8125 21.4396 27.0088 21.4396C27.2052 21.4396 27.2287 21.627 27.2287 21.627C27.5823 22.6341 28.2418 23.4539 29.1373 23.9691C29.8363 24.3751 30.6608 24.6016 31.5874 24.6016C32.8911 24.6016 34.0147 24.1487 34.8236 23.3758C32.9385 21.6115 30.1425 20.4949 27.0088 20.4949C23.883 20.4949 21.0792 21.6115 19.2021 23.368ZM27.0088 33.0098C26.2943 34.0093 25.3909 34.8523 24.3543 35.5004C24.3543 35.5393 24.3621 35.5785 24.3621 35.6252C24.3621 36.5777 25.5402 37.3898 26.9381 37.3898C28.3281 37.3898 29.5065 36.5777 29.5065 35.6252C29.5065 35.5473 29.514 35.477 29.53 35.3989C28.548 34.7742 27.6921 33.9623 27.0088 33.0098Z" fill="white"/>
<path d="M140.942 12.6994H130.278C130.089 12.6994 129.9 12.8323 129.9 13.0742V27.056C129.9 27.2979 130.034 27.4383 130.278 27.4383H132.672C132.916 27.4383 133.05 27.2979 133.05 27.056V15.6738H140.942C141.186 15.6738 141.319 15.5334 141.319 15.2912V13.0742C141.319 12.8868 141.162 12.6994 140.942 12.6994ZM15.9907 29.7854C15.9907 30.2069 16.3364 30.5505 16.7604 30.5505C17.1847 30.5505 17.5302 30.2069 17.5302 29.7854C17.5302 29.3636 17.1847 29.0202 16.7604 29.0202C16.3364 29.0202 15.9907 29.3636 15.9907 29.7854ZM19.7056 30.8157C19.7056 31.3076 20.1061 31.7057 20.5933 31.7057C21.0881 31.7057 21.4886 31.3076 21.4886 30.8157C21.4886 30.3317 21.0881 29.9336 20.5933 29.9336C20.1061 29.9336 19.7056 30.3317 19.7056 30.8157ZM14.255 12.9452C14.5142 13.1482 14.8127 13.2419 15.1189 13.2419C15.5195 13.2419 15.9203 13.07 16.1949 12.7344C16.5563 12.2893 17.1688 11.6568 18.0484 11.165C18.716 10.7905 18.944 9.95502 18.5748 9.29914C18.1978 8.63547 17.3573 8.40139 16.6975 8.77618C15.433 9.48651 14.5615 10.3843 14.0508 11.0168C13.572 11.6023 13.6659 12.4689 14.255 12.9452ZM37.3298 8.77618C36.6621 8.40139 35.822 8.63547 35.4528 9.29914C35.0755 9.95502 35.3116 10.7905 35.9712 11.165C36.8583 11.6568 37.471 12.2893 37.8321 12.7344C38.1075 13.07 38.4998 13.2419 38.9083 13.2419C39.2069 13.2419 39.5129 13.1482 39.7722 12.9452C40.3612 12.4689 40.4555 11.6023 39.9764 11.0168C39.4661 10.3843 38.5941 9.48651 37.3298 8.77618ZM29.5073 35.6251C29.5073 36.5776 28.3293 37.3894 26.9392 37.3894C25.541 37.3894 24.363 36.5776 24.363 35.6251C24.363 35.5784 24.3552 35.5392 24.3552 35.5003C25.3919 34.8522 26.2951 34.0089 27.0097 33.0097C27.693 33.9622 28.5491 34.7741 29.5308 35.3988C29.5152 35.4766 29.5073 35.547 29.5073 35.6251ZM37.9501 33.283C36.945 33.8607 35.7982 34.1652 34.6358 34.1652C31.8162 34.1652 29.3266 32.4319 28.4157 29.8087C28.1408 29.0124 27.7087 28.5988 27.0097 28.5988C26.3186 28.5988 25.8789 29.0124 25.6039 29.8087C24.7008 32.4319 22.2032 34.1652 19.3915 34.1652C18.2213 34.1652 17.0746 33.8607 16.0771 33.283C15.4173 32.9004 14.5772 33.1189 14.1924 33.7748C13.8153 34.4307 14.0351 35.2659 14.6949 35.6484C16.1166 36.4684 17.7343 36.8976 19.3915 36.8976C20.2004 36.8976 20.9857 36.7962 21.7398 36.601C22.2739 38.6153 24.4729 40.1219 27.0097 40.1219C29.5465 40.1219 31.7537 38.6153 32.2878 36.601C33.0417 36.7962 33.8269 36.8976 34.6358 36.8976C36.2854 36.8976 37.9108 36.4684 39.3324 35.6484C39.992 35.2659 40.2119 34.4307 39.8271 33.7748C39.4505 33.1189 38.6022 32.9004 37.9501 33.283ZM22.4625 15.2951C23.3891 15.2951 24.2139 15.5214 24.905 15.9276C25.7925 16.4428 26.4441 17.2627 26.7899 18.2697C26.7899 18.2697 26.845 18.4571 27.0097 18.4571C27.1825 18.4571 27.2374 18.2697 27.2374 18.2697C27.583 17.2627 28.235 16.4506 29.1224 15.9276C29.8214 15.5214 30.654 15.2951 31.5882 15.2951C34.2904 15.2951 36.1986 17.2235 36.1986 19.9637C36.1986 22.6495 34.2904 24.6013 31.5882 24.6013C30.6619 24.6013 29.8371 24.375 29.1381 23.969C28.2428 23.4538 27.583 22.634 27.2298 21.6266C27.2298 21.6266 27.2063 21.4395 27.0097 21.4395C26.8134 21.4395 26.7899 21.6266 26.7899 21.6266C26.4441 22.634 25.7846 23.4538 24.8891 23.9768C24.198 24.375 23.3812 24.6013 22.4625 24.6013C19.7372 24.6013 17.8207 22.6495 17.8207 19.9637C17.8207 17.2235 19.7372 15.2951 22.4625 15.2951ZM14.6242 19.9637C14.6242 24.328 18.1508 27.5603 22.4625 27.5603C24.1588 27.5603 25.7296 27.0526 27.0175 26.1782C28.3058 27.0526 29.8844 27.5603 31.5882 27.5603C35.8769 27.5603 39.3955 24.328 39.3955 19.9637C39.3955 15.6232 35.8769 12.336 31.5882 12.336C29.8844 12.336 28.3058 12.8515 27.0175 13.7414C25.7296 12.8515 24.1588 12.336 22.4625 12.336C18.1508 12.336 14.6242 15.6232 14.6242 19.9637ZM23.3734 20.3385C24.5358 20.3385 25.4784 19.5812 25.4784 18.6445C25.4784 17.7154 24.5358 16.958 23.3734 16.958C22.211 16.958 21.2688 17.7154 21.2688 18.6445C21.2688 19.5812 22.211 20.3385 23.3734 20.3385ZM32.5389 30.8157C32.5389 31.3076 32.9393 31.7057 33.434 31.7057C33.9212 31.7057 34.3216 31.3076 34.3216 30.8157C34.3216 30.3317 33.9212 29.9336 33.434 29.9336C32.9393 29.9336 32.5389 30.3317 32.5389 30.8157ZM32.5389 20.3385C33.7013 20.3385 34.6433 19.5812 34.6433 18.6445C34.6433 17.7154 33.7013 16.958 32.5389 16.958C31.3764 16.958 30.4261 17.7154 30.4261 18.6445C30.4261 19.5812 31.3764 20.3385 32.5389 20.3385ZM36.4972 29.7854C36.4972 30.2069 36.8426 30.5505 37.2668 30.5505C37.6909 30.5505 38.0363 30.2069 38.0363 29.7854C38.0363 29.3636 37.6909 29.0202 37.2668 29.0202C36.8426 29.0202 36.4972 29.3636 36.4972 29.7854ZM70.4707 12.7033H58.3371C58.0859 12.7033 57.9529 12.836 57.9529 13.0778V27.0593C57.9529 27.3015 58.0859 27.4419 58.3371 27.4419H60.7325C60.9761 27.4419 61.1092 27.3015 61.1092 27.0593V15.6463H67.6904V27.0593C67.6904 27.3015 67.8316 27.4419 68.0752 27.4419H70.4707C70.7142 27.4419 70.8473 27.3015 70.8473 27.0593V13.0778C70.8473 12.836 70.7142 12.7033 70.4707 12.7033ZM48.4549 24.7105C45.7371 24.7105 43.8288 22.7585 43.8288 20.0803C43.8288 17.3556 45.7371 15.4347 48.4549 15.4347C51.1489 15.4347 53.0578 17.3556 53.0578 20.0803C53.0578 22.7585 51.1489 24.7105 48.4549 24.7105ZM48.4549 12.4834C44.1581 12.4834 40.6476 15.7547 40.6476 20.0803C40.6476 24.4372 44.1581 27.654 48.4549 27.654C52.728 27.654 56.2384 24.4372 56.2384 20.0803C56.2384 15.7547 52.728 12.4834 48.4549 12.4834ZM11.4583 19.245V19.081C12.5503 18.5658 13.0056 17.6756 13.0056 16.5671C13.0056 13.9436 10.2644 12.4834 7.21684 12.4834C4.89989 12.4834 2.72418 13.0767 0.878219 14.5914C0.681895 14.7321 0.713198 14.9195 0.823425 15.0521L2.09574 16.6527C2.23727 16.8401 2.402 16.8401 2.61401 16.6764C3.78449 15.8097 5.0884 15.4035 7.05211 15.4035C9.00772 15.4035 9.87952 15.9735 9.87952 16.8401C9.87952 17.457 9.47119 17.8944 8.5759 17.8944H4.60121C4.35784 17.8944 4.22447 18.027 4.22447 18.2692V20.4086C4.22447 20.6505 4.35784 20.7831 4.60121 20.7831H8.44218C9.82467 20.7831 10.6179 21.3297 10.6179 22.4932C10.6179 23.8673 9.50249 24.7339 6.99703 24.7339C4.73487 24.7339 3.5409 24.328 2.07225 23.0084C1.82865 22.7896 1.66363 22.8678 1.5302 23.0554L0.163628 24.6246C0.0299098 24.8198 0.0299671 24.9761 0.21848 25.1712C2.18213 27.0062 4.24796 27.6543 6.94194 27.6543C10.72 27.6543 13.744 25.7098 13.744 22.5711C13.744 21.1893 13.1706 19.815 11.4583 19.245ZM122.493 20.5371H118.551V15.6738H122.493C124.158 15.6738 125.108 16.673 125.108 18.0782C125.108 19.5145 124.158 20.5371 122.493 20.5371ZM122.493 12.6994H115.779C115.535 12.6994 115.394 12.8321 115.394 13.0742V27.0557C115.394 27.2976 115.535 27.4383 115.779 27.4383H118.174C118.418 27.4383 118.551 27.2976 118.551 27.0557V23.5114H122.493C125.783 23.5114 128.265 21.2163 128.265 18.0782C128.265 15.049 125.783 12.6994 122.493 12.6994ZM105.988 24.7144C103.263 24.7144 101.362 22.7624 101.362 20.0844C101.362 17.3514 103.263 15.4385 105.988 15.4385C108.682 15.4385 110.583 17.3514 110.583 20.0844C110.583 22.7624 108.682 24.7144 105.988 24.7144ZM105.988 12.4873C101.684 12.4873 98.1731 15.7585 98.1731 20.0844C98.1731 24.4411 101.684 27.6579 105.988 27.6579C110.253 27.6579 113.764 24.4411 113.764 20.0844C113.764 15.7585 110.253 12.4873 105.988 12.4873ZM97.5152 12.7033H86.4503C86.2067 12.7033 86.0736 12.836 86.0736 13.0778V15.2948C86.0736 15.537 86.2067 15.6774 86.4503 15.6774H89.631V27.0593C89.631 27.3015 89.7646 27.4419 90.0076 27.4419H92.4031C92.6467 27.4419 92.7798 27.3015 92.7798 27.0593V15.6774H97.5152C97.7588 15.6774 97.9 15.537 97.9 15.2948V13.0778C97.9 12.836 97.7588 12.7033 97.5152 12.7033ZM84.2944 12.6994H72.8598C72.6162 12.6994 72.475 12.8321 72.475 13.0739V15.2909C72.475 15.5331 72.6162 15.6735 72.8598 15.6735H77.5876V27.0554C77.5876 27.2976 77.7288 27.438 77.9724 27.438H80.3673C80.6109 27.438 80.7446 27.2976 80.7446 27.0554V15.6735H84.2944C84.538 15.6735 84.671 15.5331 84.671 15.2909V13.0739C84.671 12.8321 84.538 12.6994 84.2944 12.6994Z" fill="white"/>
</g>
</svg>
