<svg width="32" height="50" viewBox="0 0 32 50" fill="none" xmlns="http://www.w3.org/2000/svg">
<g clip-path="url(#clip0_3720_84964)">
<path d="M16.0002 50.0226C16.1994 50.0226 16.386 49.9148 16.4854 49.7504C17.1265 48.7434 31.9665 24.9495 31.9665 16.2323C31.9665 7.27488 24.8046 -0.0233154 15.9999 -0.0233154C7.19509 -0.0233154 0.0332031 7.2682 0.0332031 16.2323C0.0332031 24.9427 14.8732 48.7425 15.5143 49.7504C15.6137 49.9148 15.8003 50.0226 15.9996 50.0226H16.0002ZM5.70851 16.233C5.70851 10.4492 10.3192 5.74888 16.0002 5.74888C21.6812 5.74888 26.2918 10.4558 26.2918 16.233C26.2918 22.0041 21.6812 26.711 16.0002 26.711C10.3192 26.711 5.70851 22.0041 5.70851 16.233Z" fill="white"/>
</g>
<defs>
<clipPath id="clip0_3720_84964">
<rect width="32" height="50" fill="white"/>
</clipPath>
</defs>
</svg>
