<svg width="130" height="30" viewBox="0 0 130 30" fill="none" xmlns="http://www.w3.org/2000/svg">
<g opacity="0.5">
<path d="M54.3732 21.9011H43.2305L57.456 3.02059C57.766 2.60601 57.6799 2.00142 57.2666 1.69048C57.1116 1.56957 56.9049 1.50047 56.6982 1.50047H36.1177C34.3093 1.50047 32.8282 2.98604 32.8282 4.79982C32.8282 6.61359 34.3093 8.09916 36.1177 8.09916H45.366L31.0888 26.997C30.7616 27.4116 30.8477 27.9989 31.261 28.3271C31.4332 28.4653 31.6399 28.5344 31.8466 28.5171H54.356C56.1644 28.4307 57.5593 26.8761 57.4732 25.045C57.3871 23.3522 56.0438 22.0048 54.356 21.9184V21.9011H54.3732ZM126.293 1.50047C124.485 1.50047 123.004 2.98604 123.004 4.79982V15.8725L105.23 1.72503C104.834 1.39682 104.232 1.44865 103.904 1.86322C103.767 2.03597 103.698 2.24325 103.698 2.46782V25.2178C103.698 27.0315 105.179 28.5171 106.987 28.5171C108.795 28.5171 110.277 27.0488 110.277 25.2178V14.1451L128.05 28.3098C128.463 28.638 129.066 28.5689 129.393 28.1544C129.531 27.9816 129.6 27.7743 129.6 27.567V4.79982C129.583 2.96877 128.119 1.50047 126.293 1.50047ZM79.2593 22.523C71.7332 22.523 66.1188 18.55 66.1188 14.9915C66.1188 11.4331 71.7505 7.46002 79.2593 7.46002C86.7855 7.46002 92.3999 11.4331 92.3999 14.9915C92.3999 18.55 86.8027 22.523 79.2593 22.523ZM79.2593 0.861328C68.3749 0.861328 59.5399 7.18364 59.5399 14.9915C59.5399 22.7994 68.3749 29.1217 79.2593 29.1217C90.1438 29.1217 98.9788 22.7994 98.9788 14.9915C98.9788 7.18364 90.1438 0.861328 79.2593 0.861328ZM14.521 22.5403C10.3705 22.5403 6.9949 19.1718 6.9949 15.0088C6.9949 10.8457 10.3532 7.46002 14.5038 7.46002C18.6544 7.46002 22.0299 10.8285 22.0299 14.9915V15.0088C22.0299 19.1546 18.6716 22.523 14.521 22.5403ZM14.521 0.861328C6.73657 0.861328 0.433238 7.18364 0.416016 14.9915C0.416016 22.7994 6.71935 29.1217 14.5038 29.139C22.2882 29.139 28.5916 22.8167 28.6088 15.0088V14.9915C28.5916 7.18364 22.2882 0.861328 14.521 0.861328Z" fill="white"/>
</g>
</svg>
