<svg width="17" height="11" viewBox="0 0 17 11" fill="none" xmlns="http://www.w3.org/2000/svg">
<path fill-rule="evenodd" clip-rule="evenodd" d="M2.49746 0H0.637659C0.106282 0 0 0.272569 0 0.573042C0 1.10978 0.630519 3.77173 2.93579 7.29236C4.47264 9.69667 6.63791 11 8.60826 11C9.79045 11 9.93671 10.7105 9.93671 10.2119V8.39474C9.93671 7.81579 10.0487 7.70023 10.423 7.70023C10.6989 7.70023 11.1718 7.85053 12.2752 9.00975C13.5362 10.3837 13.7441 11 14.4533 11H16.3131C16.8445 11 17.1102 10.7105 16.957 10.1393C16.7892 9.56994 16.1872 8.74384 15.3883 7.76467C14.9548 7.2065 14.3046 6.60544 14.1075 6.30485C13.8317 5.91846 13.9105 5.74669 14.1075 5.40326C14.1075 5.40326 16.3734 1.92552 16.6099 0.744874C16.7281 0.315468 16.6099 0 16.0475 0H14.1877C13.7148 0 13.4968 0.272569 13.3785 0.573042C13.3785 0.573042 12.4328 3.08475 11.093 4.71628C10.6595 5.18853 10.4624 5.33882 10.226 5.33882C10.1078 5.33882 9.93665 5.18853 9.93665 4.75924V0.744874C9.93665 0.229611 9.79943 0 9.4053 0H6.48273C6.18725 0 6.0095 0.239105 6.0095 0.465763C6.0095 0.954163 6.6794 1.06683 6.74847 2.44073V5.42474C6.74847 6.07895 6.63998 6.19757 6.40358 6.19757C5.77309 6.19757 4.23943 3.67464 3.32982 0.787774C3.15159 0.226658 2.97277 0 2.49746 0V0Z" fill="currentColor"/>
</svg>
