<svg width="80" height="80" viewBox="0 0 80 80" fill="none" xmlns="http://www.w3.org/2000/svg">
<path d="M40 80C62.0914 80 80 62.0914 80 40C80 17.9086 62.0914 0 40 0C17.9086 0 0 17.9086 0 40C0 62.0914 17.9086 80 40 80Z" fill="black"/>
<path d="M40.0228 77.5948C61.0346 77.5948 78.0681 60.7327 78.0681 39.9322C78.0681 19.1317 61.0346 2.26953 40.0228 2.26953C19.011 2.26953 1.97754 19.1317 1.97754 39.9322C1.97754 60.7327 19.011 77.5948 40.0228 77.5948Z" stroke="#FED38C" stroke-miterlimit="10" stroke-linecap="round" stroke-linejoin="round" stroke-dasharray="0.06 3"/>
<path fill-rule="evenodd" clip-rule="evenodd" d="M33.6648 27.918C33.6648 28.0243 33.7355 28.0952 33.8415 28.0952C33.9475 28.0952 34.0535 28.0243 34.0182 27.8826L33.9475 23.4192C33.9475 23.3838 33.8768 23.313 33.8415 23.2776C33.8062 23.2421 33.7002 23.2776 33.6648 23.313L30.3785 26.1469C30.2725 26.2177 30.2725 26.324 30.3431 26.3948C30.4138 26.5011 30.5198 26.5011 30.5905 26.4303L33.2549 24.1364C32.6346 25.8175 31.2062 28.7105 28.1523 30.9645C24.6539 33.515 21.0142 33.8692 19.1767 33.8338C19.0707 33.8338 19 33.9046 19 34.0109C19 34.1172 19.0707 34.188 19.1767 34.188H19.3534C21.2969 34.188 24.9013 33.7984 28.3289 31.2124C31.4964 28.8907 32.9897 25.878 33.5998 24.1724L33.6648 27.918Z" fill="#FED38C"/>
<path d="M33.6648 27.918H33.9149L33.9148 27.9137L33.6648 27.918ZM34.0182 27.8826L33.7682 27.8866L33.7687 27.9153L33.7756 27.9431L34.0182 27.8826ZM33.9475 23.4192H33.6975L33.6975 23.4232L33.9475 23.4192ZM33.8415 23.2776L33.6645 23.4541L33.6645 23.4541L33.8415 23.2776ZM33.6648 23.313L33.8281 23.5023L33.8352 23.4962L33.8418 23.4895L33.6648 23.313ZM30.3785 26.1469L30.5174 26.3547L30.5301 26.3462L30.5417 26.3362L30.3785 26.1469ZM30.3431 26.3948L30.5513 26.2564L30.5376 26.2358L30.5201 26.2183L30.3431 26.3948ZM30.5905 26.4303L30.4274 26.2408L30.4202 26.247L30.4135 26.2537L30.5905 26.4303ZM33.2549 24.1364L33.4895 24.2229L33.8238 23.3167L33.0918 23.9469L33.2549 24.1364ZM28.1523 30.9645L28.2995 31.1665L28.3007 31.1656L28.1523 30.9645ZM19.1767 33.8338L19.1815 33.5838H19.1767V33.8338ZM28.3289 31.2124L28.1811 31.0108L28.1784 31.0129L28.3289 31.2124ZM33.5998 24.1724L33.8498 24.1681L33.3644 24.0882L33.5998 24.1724ZM33.8415 27.8452C33.8455 27.8452 33.8682 27.8476 33.8904 27.8699C33.9126 27.8921 33.9148 27.9145 33.9148 27.918H33.4148C33.4148 28.0278 33.4524 28.1388 33.5364 28.223C33.6205 28.3073 33.7315 28.3452 33.8415 28.3452V27.8452ZM33.7756 27.9431C33.7761 27.945 33.7731 27.934 33.7778 27.9151C33.7827 27.8956 33.7932 27.8782 33.8059 27.8655C33.8176 27.8537 33.8282 27.8488 33.8332 27.847C33.8381 27.8452 33.8408 27.8452 33.8415 27.8452V28.3452C33.9443 28.3452 34.0671 28.3116 34.1599 28.2186C34.2638 28.1144 34.2972 27.9683 34.2608 27.8221L33.7756 27.9431ZM33.6975 23.4232L33.7682 27.8866L34.2682 27.8787L34.1975 23.4153L33.6975 23.4232ZM33.6645 23.4541C33.6735 23.4631 33.6826 23.4722 33.6919 23.482C33.7013 23.4919 33.7093 23.5008 33.7155 23.5082C33.7185 23.5118 33.7205 23.5144 33.7216 23.5159C33.7228 23.5175 33.7222 23.5169 33.7205 23.5141C33.7192 23.5118 33.7147 23.5039 33.71 23.4914C33.7076 23.4848 33.7046 23.4757 33.7022 23.4642C33.6998 23.4529 33.6975 23.4376 33.6975 23.4192H34.1975C34.1975 23.3401 34.163 23.2801 34.1513 23.2602C34.1345 23.2316 34.1151 23.2067 34.1 23.1886C34.0695 23.1519 34.035 23.1176 34.0185 23.101L33.6645 23.4541ZM33.8418 23.4895C33.8322 23.4992 33.8244 23.5047 33.8211 23.507C33.8173 23.5096 33.8149 23.5107 33.8144 23.511C33.8138 23.5113 33.8143 23.5111 33.8139 23.5112C33.8135 23.5113 33.8113 23.5118 33.8075 23.5123C33.8039 23.5127 33.7965 23.5133 33.7861 23.5125C33.7704 23.5114 33.715 23.5047 33.6645 23.4541L34.0185 23.101C33.9503 23.0327 33.8684 23.0171 33.8218 23.0138C33.772 23.0102 33.7267 23.0176 33.6924 23.0262C33.6319 23.0414 33.5489 23.0752 33.4878 23.1364L33.8418 23.4895ZM30.5417 26.3362L33.8281 23.5023L33.5016 23.1236L30.2152 25.9575L30.5417 26.3362ZM30.5201 26.2183C30.5288 26.227 30.5475 26.2538 30.5433 26.2956C30.5389 26.3399 30.5137 26.3572 30.5174 26.3547L30.2396 25.939C30.1373 26.0074 30.059 26.1133 30.0458 26.246C30.0328 26.3764 30.0868 26.4918 30.1662 26.5714L30.5201 26.2183ZM30.4135 26.2537C30.4222 26.245 30.4494 26.226 30.4918 26.2302C30.5365 26.2347 30.5539 26.2603 30.5513 26.2564L30.135 26.5333C30.203 26.6356 30.3088 26.7144 30.4419 26.7277C30.5726 26.7408 30.6881 26.6864 30.7675 26.6068L30.4135 26.2537ZM33.0918 23.9469L30.4274 26.2408L30.7536 26.6197L33.418 24.3258L33.0918 23.9469ZM28.3007 31.1656C31.4073 28.8727 32.8592 25.9311 33.4895 24.2229L33.0204 24.0498C32.4101 25.7038 31.005 28.5482 28.0038 30.7633L28.3007 31.1656ZM19.1719 34.0837C21.043 34.1198 24.7427 33.7596 28.2995 31.1665L28.005 30.7625C24.5651 33.2703 20.9854 33.6186 19.1815 33.5838L19.1719 34.0837ZM19.25 34.0109C19.25 34.0144 19.2478 34.0368 19.2256 34.059C19.2033 34.0813 19.1807 34.0838 19.1767 34.0838V33.5838C19.0667 33.5838 18.9557 33.6216 18.8716 33.7059C18.7876 33.7902 18.75 33.9011 18.75 34.0109H19.25ZM19.1767 33.938C19.1807 33.938 19.2033 33.9405 19.2256 33.9627C19.2478 33.985 19.25 34.0074 19.25 34.0109H18.75C18.75 34.1207 18.7876 34.2316 18.8716 34.3159C18.9557 34.4001 19.0667 34.438 19.1767 34.438V33.938ZM19.3534 33.938H19.1767V34.438H19.3534V33.938ZM28.1784 31.0129C24.8098 33.5542 21.2663 33.938 19.3534 33.938V34.438C21.3275 34.438 24.9927 34.0425 28.4795 31.412L28.1784 31.0129ZM33.3644 24.0882C32.765 25.764 31.2958 28.7278 28.1811 31.0108L28.4767 31.4141C31.6971 29.0536 33.2145 25.992 33.8352 24.2566L33.3644 24.0882ZM33.9148 27.9137L33.8498 24.1681L33.3499 24.1767L33.4149 27.9224L33.9148 27.9137Z" fill="#FED38C"/>
<path d="M51.9337 40.033C51.8631 40.033 51.7571 39.9975 51.7217 39.9267C51.6864 39.8558 51.6157 39.785 51.6157 39.7142C51.6157 39.6433 51.6511 39.537 51.7217 39.5016C51.8277 39.3953 52.0751 39.3953 52.1811 39.5016C52.2518 39.5725 52.2871 39.6433 52.2871 39.7142C52.2871 39.785 52.2518 39.8913 52.1811 39.9267C52.0751 39.9975 52.0044 40.033 51.9337 40.033Z" fill="#FED38C"/>
<path d="M53.4884 56.7175C53.4178 56.5403 53.4531 56.3632 53.6298 56.2924C53.8065 56.2215 53.9831 56.2569 54.0538 56.4341C54.1245 56.6112 54.0892 56.7883 53.9125 56.8591C53.8771 56.8946 53.8065 56.8946 53.7711 56.8946C53.6298 56.8946 53.5238 56.8237 53.4884 56.7175ZM52.6403 54.6629C52.605 54.4858 52.711 54.3087 52.8524 54.2732C53.0291 54.2378 53.2057 54.3087 53.2411 54.4858C53.2764 54.6629 53.2057 54.84 53.0291 54.8754C52.9937 54.8754 52.9584 54.8754 52.923 54.8754C52.7817 54.8754 52.6757 54.8046 52.6403 54.6629ZM52.3223 52.4312C52.3223 52.2541 52.4637 52.1124 52.6403 52.1124C52.817 52.1124 52.9584 52.2541 52.9584 52.4312C52.9584 52.6083 52.817 52.75 52.6403 52.75C52.4637 52.75 52.3223 52.6083 52.3223 52.4312ZM52.817 50.6246C52.6403 50.5892 52.5343 50.4121 52.5697 50.2349C52.605 50.0578 52.7817 49.9515 52.9584 49.987C53.1351 50.0224 53.2411 50.1995 53.2057 50.3766C53.1704 50.5183 53.029 50.6246 52.8877 50.6246C52.8524 50.6246 52.8524 50.6246 52.817 50.6246ZM53.2057 48.4992C53.0291 48.4992 52.8877 48.3221 52.923 48.1449C52.923 47.9678 53.0997 47.8261 53.2764 47.8616C53.4531 47.8616 53.5944 48.0387 53.5591 48.2158C53.5591 48.3929 53.4178 48.4992 53.2057 48.4992C53.2411 48.4992 53.2411 48.4992 53.2057 48.4992ZM52.8877 46.0549C52.8877 45.8778 52.9937 45.7007 53.1704 45.7007C53.3471 45.7007 53.5238 45.807 53.5238 45.9841C53.5591 46.1612 53.4178 46.3383 53.2411 46.3383H53.2057C53.0644 46.3738 52.923 46.2321 52.8877 46.0549ZM52.5697 43.965C52.5343 43.7878 52.6403 43.6107 52.817 43.5753C52.9937 43.5399 53.1704 43.6461 53.2057 43.8233C53.2411 44.0004 53.1351 44.1775 52.9584 44.2129C52.9584 44.2129 52.923 44.2129 52.8877 44.2129C52.711 44.2129 52.605 44.1066 52.5697 43.965ZM52.1103 41.875C52.0749 41.6978 52.181 41.5207 52.3576 41.4853C52.5343 41.4499 52.711 41.5562 52.7464 41.7333C52.7817 41.9104 52.6757 42.0875 52.499 42.1229C52.4637 42.1229 52.4637 42.1229 52.4283 42.1229C52.287 42.1229 52.1456 42.0167 52.1103 41.875Z" fill="#FED38C"/>
<path d="M54.9372 58.7012C54.8665 58.7012 54.7605 58.6658 54.7251 58.5949C54.6898 58.5241 54.6191 58.4532 54.6191 58.3824C54.6191 58.3115 54.6545 58.2053 54.7251 58.1699C54.8312 58.0636 55.0785 58.0636 55.1845 58.1699C55.2552 58.2407 55.2905 58.3115 55.2905 58.3824C55.2905 58.4178 55.2905 58.4532 55.2552 58.5241C55.2552 58.5595 55.2199 58.5949 55.1845 58.6304C55.1492 58.6658 55.1139 58.6658 55.0785 58.7012C55.0078 58.7012 54.9725 58.7012 54.9372 58.7012Z" fill="#FED38C"/>
<path d="M51.5802 32.594C51.5096 32.594 51.4036 32.5586 51.3682 32.4877C51.3329 32.4169 51.2622 32.346 51.2622 32.2752C51.2622 32.2043 51.2975 32.0981 51.3682 32.0626C51.4742 31.9564 51.7216 31.9564 51.8276 32.0626C51.8983 32.1335 51.9336 32.2043 51.9336 32.2752C51.9336 32.346 51.8983 32.4523 51.8276 32.4877C51.7569 32.5231 51.6509 32.594 51.5802 32.594Z" fill="#FED38C"/>
<path d="M50.5557 35.9592C50.5557 35.7821 50.697 35.6404 50.8737 35.605C51.0504 35.605 51.1917 35.7467 51.227 35.9238C51.227 36.1009 51.0857 36.2426 50.909 36.2781C50.697 36.2781 50.5557 36.1364 50.5557 35.9592ZM50.909 34.3652C50.7323 34.3298 50.6263 34.1526 50.6263 33.9755C50.6617 33.7984 50.8384 33.6921 51.015 33.7276C51.1917 33.763 51.2977 33.9401 51.2977 34.0818C51.2624 34.2589 51.1211 34.3652 50.9797 34.3652C50.9444 34.3652 50.9444 34.3652 50.909 34.3652Z" fill="#FED38C"/>
<path d="M51.1564 38.1555C51.0857 38.1555 50.9797 38.1201 50.9444 38.0492C50.909 38.0138 50.8737 37.9784 50.8737 37.9429C50.8737 37.9075 50.8384 37.8721 50.8384 37.8012C50.8384 37.7304 50.8384 37.7304 50.8737 37.6596C50.8737 37.6241 50.909 37.5887 50.9444 37.5533C51.0504 37.4824 51.1917 37.447 51.2978 37.4824C51.3331 37.4824 51.3684 37.5179 51.4038 37.5533C51.4391 37.5887 51.4391 37.6241 51.4744 37.6596C51.4744 37.695 51.5098 37.7304 51.5098 37.8012C51.5098 37.8721 51.5098 37.8721 51.4744 37.9429C51.4744 37.9784 51.4391 38.0138 51.4038 38.0492C51.3684 38.0846 51.3331 38.0846 51.2978 38.1201C51.2271 38.1555 51.1918 38.1555 51.1564 38.1555Z" fill="#FED38C"/>
<path d="M43.9476 25.651C43.9123 25.651 43.8769 25.651 43.8062 25.6156C43.7709 25.6156 43.7356 25.5801 43.7002 25.5447L43.6649 25.5093C43.6649 25.4739 43.6296 25.4739 43.6296 25.4384C43.6296 25.403 43.5942 25.3676 43.5942 25.2967C43.5942 25.2259 43.6296 25.1196 43.7002 25.0842C43.7356 25.0488 43.7709 25.0488 43.8062 25.0134C43.8769 24.9779 43.9829 24.9779 44.0536 25.0134C44.0889 25.0134 44.1243 25.0488 44.1596 25.0842C44.2303 25.155 44.2656 25.2259 44.2656 25.2967C44.2656 25.3322 44.2656 25.3676 44.2303 25.4384C44.2303 25.4739 44.195 25.4739 44.195 25.5093L44.1596 25.5447C44.1243 25.5801 44.0889 25.5801 44.0536 25.6156C44.0183 25.651 43.9829 25.651 43.9476 25.651Z" fill="#FED38C"/>
<path d="M41.0148 36.3135C40.8381 36.2426 40.7674 36.0655 40.8028 35.8884C40.8735 35.7113 41.0501 35.6404 41.2268 35.6759C41.4035 35.7467 41.4742 35.9238 41.4389 36.1009C41.4035 36.2426 41.2622 36.3135 41.1208 36.3135C41.0855 36.3135 41.0502 36.3135 41.0148 36.3135ZM41.6509 34.1881C41.4742 34.1526 41.3682 33.9755 41.4035 33.7984C41.4388 33.6213 41.6155 33.515 41.7922 33.5504C41.9689 33.5859 42.0749 33.763 42.0396 33.9401C42.0042 34.0818 41.8629 34.1881 41.7216 34.1881C41.7216 34.1881 41.6862 34.1881 41.6509 34.1881ZM42.0749 32.0272C41.8982 31.9918 41.7922 31.8501 41.7922 31.673C41.8276 31.4959 41.9689 31.3896 42.1456 31.3896C42.3223 31.425 42.4636 31.5667 42.4283 31.7438C42.393 31.921 42.2516 32.0272 42.1103 32.0272H42.0749ZM42.4283 29.831C42.2516 29.7955 42.1456 29.6184 42.1809 29.4413C42.2163 29.2642 42.3929 29.1579 42.5696 29.1933C42.7463 29.2288 42.8523 29.4059 42.817 29.583C42.7817 29.7247 42.6403 29.831 42.499 29.831C42.499 29.831 42.4636 29.831 42.4283 29.831ZM43.029 27.6701C42.8523 27.5993 42.7817 27.4222 42.817 27.245C42.8877 27.0679 43.0644 26.9971 43.241 27.0325C43.4177 27.1034 43.4884 27.2805 43.4531 27.4576C43.4177 27.5993 43.2764 27.6701 43.135 27.6701C43.0997 27.7056 43.0644 27.7056 43.029 27.6701Z" fill="#FED38C"/>
<path d="M40.308 38.4035C40.2726 38.4035 40.2373 38.4035 40.1666 38.3681C40.1313 38.3681 40.0959 38.3326 40.0606 38.2972C39.9899 38.2264 39.9546 38.1555 39.9546 38.0847C39.9546 38.0492 39.9546 38.0138 39.9899 37.943C39.9899 37.9076 40.0253 37.8721 40.0606 37.8367C40.0959 37.8013 40.1313 37.8013 40.1666 37.7659C40.2373 37.7304 40.3433 37.7304 40.414 37.7659C40.4493 37.7659 40.4846 37.8013 40.52 37.8367C40.5553 37.8721 40.5906 37.9076 40.5906 37.943C40.5906 37.9784 40.626 38.0138 40.626 38.0847C40.626 38.1555 40.5906 38.2618 40.52 38.2972C40.4846 38.3326 40.4493 38.3326 40.414 38.3681C40.3786 38.4035 40.3433 38.4035 40.308 38.4035Z" fill="#FED38C"/>
<path d="M41.0501 46.7989C40.9795 46.7989 40.8735 46.7635 40.8028 46.6926C40.7321 46.6218 40.6968 46.5509 40.6968 46.4801C40.6968 46.4447 40.6968 46.4447 40.6968 46.4092C40.6968 46.3738 40.6968 46.3738 40.7321 46.3384C40.7321 46.3384 40.7321 46.303 40.7675 46.2675L40.8028 46.2321C40.8381 46.1967 40.8735 46.1613 40.9088 46.1613C40.9795 46.1258 41.0855 46.1258 41.1562 46.1613C41.1915 46.1613 41.2268 46.1967 41.2622 46.2321L41.2975 46.2675C41.2975 46.2675 41.3328 46.303 41.3328 46.3384C41.3328 46.3738 41.3328 46.3738 41.3328 46.4092C41.3328 46.4447 41.3328 46.4447 41.3328 46.4801C41.3328 46.5509 41.2975 46.6572 41.2268 46.6926C41.1915 46.728 41.1562 46.728 41.1208 46.7635C41.1208 46.7635 41.0855 46.7989 41.0501 46.7989Z" fill="#FED38C"/>
<path d="M42.817 57.9573C42.7463 57.8156 42.7816 57.6031 42.923 57.5322C43.0643 57.4614 43.2764 57.4968 43.347 57.6739C43.4177 57.8156 43.3824 58.0282 43.2057 58.099C43.1704 58.1344 43.0997 58.1344 43.0644 58.1344C42.9937 58.1344 42.8877 58.0636 42.817 57.9573ZM44.4778 56.7883C44.3365 56.6467 44.3365 56.4695 44.4778 56.3278C44.5838 56.1861 44.7959 56.1861 44.9372 56.3278C45.0786 56.4695 45.0786 56.6467 44.9372 56.7883C44.8665 56.8592 44.7959 56.8946 44.6899 56.8946C44.6192 56.8592 44.5132 56.8238 44.4778 56.7883ZM45.7853 55.2297C45.644 55.1234 45.6086 54.9109 45.7146 54.7692C45.8206 54.6275 45.9973 54.5921 46.174 54.6984C46.3154 54.8046 46.3507 54.9817 46.28 55.1589C46.2093 55.2651 46.1033 55.3006 45.9973 55.3006C45.8913 55.2651 45.8206 55.2651 45.7853 55.2297ZM46.7747 53.4231C46.5981 53.3877 46.4921 53.1751 46.5627 53.0334C46.5981 52.8563 46.8101 52.7501 46.9514 52.8209C47.1281 52.8563 47.2341 53.0689 47.1634 53.2106C47.1281 53.3523 46.9868 53.4231 46.8454 53.4231C46.8454 53.4585 46.8101 53.4585 46.7747 53.4231ZM46.7041 51.156C46.6687 50.9789 46.8101 50.8018 46.9868 50.8018C47.1634 50.7663 47.3401 50.908 47.3401 51.0851C47.3755 51.2623 47.2695 51.4394 47.0574 51.4394C47.0574 51.4394 47.0221 51.4394 46.9868 51.4394C46.8454 51.4394 46.7394 51.3331 46.7041 51.156ZM45.9973 49.3848C45.8913 49.2431 45.9266 49.0306 46.1033 48.9243C46.2447 48.818 46.4567 48.8535 46.5627 49.0306C46.6687 49.1723 46.6334 49.3848 46.4567 49.4911C46.386 49.5265 46.3507 49.5265 46.28 49.5265C46.174 49.5619 46.068 49.4911 45.9973 49.3848ZM44.6545 48.0387C44.5132 47.9325 44.4778 47.7199 44.5838 47.5782C44.6899 47.4365 44.9019 47.4011 45.0432 47.5074C45.1846 47.6136 45.2199 47.8262 45.1139 47.9679C45.0432 48.0387 44.9372 48.1096 44.8312 48.1096C44.7959 48.0741 44.7252 48.0741 44.6545 48.0387ZM42.923 47.1531C42.7463 47.0823 42.6756 46.9052 42.711 46.728C42.7817 46.5509 42.9583 46.4801 43.135 46.5155C43.3117 46.5864 43.3824 46.7635 43.347 46.9406C43.3117 47.0823 43.1704 47.1531 43.029 47.1531C42.9937 47.1886 42.9583 47.1886 42.923 47.1531Z" fill="#FED38C"/>
<path d="M41.1564 58.7012C41.0857 58.7012 40.9797 58.6658 40.9444 58.5949C40.909 58.5241 40.8384 58.4532 40.8384 58.3824C40.8384 58.3115 40.8737 58.2053 40.9444 58.1698C41.0504 58.099 41.1917 58.0636 41.2978 58.099C41.3331 58.099 41.3684 58.1344 41.4038 58.1698C41.4744 58.2407 41.5098 58.3115 41.5098 58.3824C41.5098 58.4178 41.5098 58.4532 41.4744 58.5241C41.4744 58.5595 41.4391 58.5949 41.4038 58.6303C41.3684 58.6658 41.3331 58.6658 41.2978 58.7012C41.2271 58.7012 41.1917 58.7012 41.1564 58.7012Z" fill="#FED38C"/>
<path d="M43.8768 61.8185C43.8061 61.8185 43.7001 61.7831 43.6294 61.7122C43.5588 61.6414 43.5234 61.5705 43.5234 61.4997C43.5234 61.4288 43.5588 61.3226 43.6294 61.2871C43.7355 61.1809 43.9828 61.1809 44.0888 61.2871C44.1595 61.358 44.1948 61.4288 44.1948 61.4997C44.1948 61.5705 44.1595 61.6768 44.0888 61.7122C44.0535 61.7831 43.9475 61.8185 43.8768 61.8185Z" fill="#FED38C"/>
<path d="M46.0679 61.358C46.0679 61.1809 46.1739 61.0038 46.3506 61.0038C46.5272 61.0038 46.6686 61.11 46.7039 61.2871C46.7039 61.4643 46.5979 61.6414 46.4212 61.6414C46.4212 61.6414 46.4212 61.6414 46.3859 61.6414C46.2092 61.6414 46.0679 61.5351 46.0679 61.358Z" fill="#FED38C"/>
<path d="M48.8949 61.358C48.8242 61.358 48.7182 61.3226 48.6475 61.2517C48.5768 61.1809 48.5415 61.11 48.5415 61.0392C48.5415 60.9683 48.5768 60.8621 48.6475 60.8266C48.6828 60.7912 48.7182 60.7912 48.7535 60.7558C48.8242 60.7204 48.9302 60.7204 49.0009 60.7558C49.0362 60.7558 49.0715 60.7912 49.1069 60.8266C49.1776 60.8975 49.2129 60.9683 49.2129 61.0392C49.2129 61.11 49.1776 61.2163 49.1069 61.2517C49.0362 61.2871 48.9655 61.358 48.8949 61.358Z" fill="#FED38C"/>
<path d="M45.1844 57.7093C45.1138 57.7093 45.0077 57.6739 44.9371 57.6031C44.8664 57.5322 44.8311 57.4614 44.8311 57.3905C44.8311 57.3551 44.831 57.3197 44.8664 57.2488C44.8664 57.2134 44.9017 57.178 44.9371 57.1425C44.9724 57.1071 45.0077 57.1071 45.0431 57.0717C45.1491 57.0363 45.3258 57.0717 45.3964 57.1425C45.4318 57.178 45.4671 57.2134 45.4671 57.2488C45.4671 57.2842 45.5025 57.3197 45.5025 57.3905C45.5025 57.4614 45.4671 57.5676 45.3964 57.6031C45.3258 57.6385 45.2551 57.7093 45.1844 57.7093Z" fill="#FED38C"/>
<path d="M48.2587 59.3388C48.1527 59.1971 48.188 58.9846 48.3294 58.8783C48.4707 58.772 48.6827 58.8075 48.7887 58.9492C48.8947 59.0909 48.8594 59.3034 48.7181 59.4097C48.6474 59.4451 48.612 59.4805 48.5414 59.4805C48.4354 59.4805 48.3294 59.4451 48.2587 59.3388ZM46.8805 58.2761C46.7038 58.2053 46.6332 57.9927 46.7038 57.851C46.7745 57.6739 46.9865 57.6031 47.1279 57.6739C47.3046 57.7448 47.3752 57.9573 47.3046 58.099C47.2339 58.2053 47.1279 58.2761 47.0219 58.2761C46.9865 58.3115 46.9159 58.3115 46.8805 58.2761Z" fill="#FED38C"/>
<path d="M48.8949 61.358C48.8242 61.358 48.7182 61.3226 48.6475 61.2517C48.5768 61.1809 48.5415 61.11 48.5415 61.0392C48.5415 60.9683 48.5768 60.8621 48.6475 60.8266C48.6828 60.7912 48.7182 60.7912 48.7535 60.7558C48.8242 60.7204 48.9302 60.7204 49.0009 60.7558C49.0362 60.7558 49.0715 60.7912 49.1069 60.8266C49.1776 60.8975 49.2129 60.9683 49.2129 61.0392C49.2129 61.11 49.1776 61.2163 49.1069 61.2517C49.0362 61.2871 48.9655 61.358 48.8949 61.358Z" fill="#FED38C"/>
<path d="M55.0082 58.7366C54.9728 58.7366 54.9375 58.7366 54.8668 58.7012C54.8668 58.7012 54.8315 58.6658 54.7961 58.6658C54.7608 58.6658 54.7608 58.6303 54.7608 58.6303C54.6901 58.5595 54.6548 58.4886 54.6548 58.4178C54.6548 58.3469 54.6901 58.2407 54.7608 58.2053C54.7961 58.1698 54.8315 58.1344 54.8668 58.1344C54.9728 58.099 55.1142 58.099 55.2202 58.2053C55.2909 58.2761 55.3262 58.3469 55.3262 58.4178C55.3262 58.4532 55.3262 58.4886 55.2908 58.5595C55.2908 58.5949 55.2555 58.6303 55.2202 58.6658C55.1848 58.7012 55.1495 58.7012 55.1142 58.7366C55.0788 58.7366 55.0435 58.7366 55.0082 58.7366Z" fill="#FED38C"/>
<path d="M57.1284 59.3034C56.9871 59.1971 56.9517 58.9846 57.0577 58.8429C57.1637 58.7012 57.3758 58.6658 57.5171 58.7721C57.6585 58.8783 57.6938 59.0909 57.5878 59.2326C57.5171 59.3034 57.4111 59.3743 57.3051 59.3743C57.2344 59.3743 57.1637 59.3743 57.1284 59.3034Z" fill="#FED38C"/>
<path d="M58.6834 61.358C58.6128 61.358 58.5068 61.3225 58.4361 61.2517C58.3654 61.1808 58.3301 61.11 58.3301 61.0391C58.3301 60.9683 58.3654 60.862 58.4361 60.8266C58.4714 60.7912 58.5067 60.7912 58.5421 60.7558C58.6128 60.7203 58.7188 60.7203 58.7894 60.7558C58.8248 60.7558 58.8601 60.7912 58.8954 60.8266C58.9661 60.8974 59.0015 60.9683 59.0015 61.0391C59.0015 61.11 58.9661 61.2163 58.8954 61.2517C58.8248 61.2871 58.7541 61.358 58.6834 61.358Z" fill="#FED38C"/>
<path d="M53.8068 61.3934C53.6301 61.3934 53.4888 61.2517 53.4888 61.0746C53.4888 60.8975 53.6301 60.7558 53.8068 60.7558C53.9835 60.7558 54.1248 60.8975 54.1248 61.0746C54.1248 61.2517 53.9835 61.3934 53.8068 61.3934C53.8068 61.4288 53.8068 61.4288 53.8068 61.3934ZM55.927 61.0746C55.927 60.8975 56.0684 60.7558 56.245 60.7558C56.4217 60.7558 56.5631 60.8975 56.5631 61.0746C56.5631 61.2517 56.4217 61.3934 56.245 61.3934C56.0684 61.3934 55.927 61.2517 55.927 61.0746Z" fill="#FED38C"/>
<path d="M51.3685 61.4288C51.2978 61.4288 51.1918 61.3934 51.1211 61.3225C51.0505 61.2517 51.0151 61.1808 51.0151 61.11C51.0151 61.0391 51.0505 60.9329 51.1211 60.8975C51.2272 60.7912 51.4745 60.7912 51.5805 60.8975C51.6512 60.9683 51.6866 61.0391 51.6866 61.11C51.6866 61.1808 51.6512 61.2871 51.5805 61.3225C51.5099 61.358 51.4392 61.4288 51.3685 61.4288Z" fill="#FED38C"/>
<path d="M27.6573 59.4805C27.5866 59.4805 27.5159 59.4451 27.4806 59.3388C26.8799 57.0009 26.9152 54.9109 27.5512 53.0334C27.9753 51.829 28.5407 51.0143 29.1768 50.0578C29.8128 49.1368 30.5549 48.0741 31.2616 46.4446C31.7917 45.2402 32.1451 43.965 32.4278 42.6897C32.4631 42.5835 32.5338 42.5126 32.6398 42.548C32.7458 42.5835 32.7811 42.6543 32.7811 42.7606C32.5338 44.0712 32.145 45.3465 31.615 46.5863C30.9083 48.2512 30.1662 49.3139 29.4948 50.2704C28.8587 51.1914 28.2933 52.0061 27.9046 53.1397C27.3039 54.9109 27.2686 56.9654 27.8693 59.2326C27.9046 59.3388 27.8339 59.4097 27.7279 59.4451C27.6926 59.4805 27.6926 59.4805 27.6573 59.4805Z" fill="#FED38C" stroke="#FED38C" stroke-width="0.5"/>
<path d="M31.1204 61.1454C31.0144 61.1454 30.9437 61.0746 30.9437 60.9683C30.9437 60.862 31.0144 60.7912 31.1204 60.7912C32.0392 60.7912 32.9579 60.2244 33.806 59.1971C34.1947 58.7366 34.6894 58.0636 34.7954 57.2843C34.9014 56.4695 34.4774 55.5485 33.7353 54.9463C33.0639 54.4149 32.1098 54.0607 31.0497 53.9899C30.9437 53.9899 30.873 53.8836 30.873 53.8127C30.873 53.7065 30.9791 53.6356 31.0497 53.6356C32.1805 53.7065 33.2053 54.0961 33.9474 54.6629C34.7954 55.336 35.2548 56.3632 35.1488 57.3197C35.0428 58.1698 34.4774 58.9137 34.0887 59.4097C33.1699 60.5432 32.1805 61.11 31.1204 61.1454C31.1557 61.1454 31.1204 61.1454 31.1204 61.1454Z" fill="#FED38C"/>
<path d="M31.1204 61.1454C31.0144 61.1454 30.9437 61.0746 30.9437 60.9683C30.9437 60.862 31.0144 60.7912 31.1204 60.7912C32.0392 60.7912 32.9579 60.2244 33.806 59.1971C34.1947 58.7366 34.6894 58.0636 34.7954 57.2843C34.9014 56.4695 34.4774 55.5485 33.7353 54.9463C33.0639 54.4149 32.1098 54.0607 31.0497 53.9899C30.9437 53.9899 30.873 53.8836 30.873 53.8127C30.873 53.7065 30.9791 53.6356 31.0497 53.6356C32.1805 53.7065 33.2053 54.0961 33.9474 54.6629C34.7954 55.336 35.2548 56.3632 35.1488 57.3197C35.0428 58.1698 34.4774 58.9137 34.0887 59.4097C33.1699 60.5432 32.1805 61.11 31.1204 61.1454ZM31.1204 61.1454C31.1557 61.1454 31.1204 61.1454 31.1204 61.1454Z" stroke="#FED38C" stroke-width="0.5"/>
<path fill-rule="evenodd" clip-rule="evenodd" d="M27.7987 62.5623C29.2122 62.8812 30.7317 63.0229 32.3572 63.0229C33.4779 63.0229 34.6276 62.9356 35.8852 62.8401C36.0155 62.8303 36.1469 62.8203 36.2795 62.8103C36.3502 62.7749 36.4209 62.704 36.4209 62.5978C36.416 62.5879 36.4104 62.578 36.4041 62.5683C36.5703 61.9151 36.1566 61.2403 35.6435 60.8975C35.1135 60.5078 34.4421 60.3307 33.8414 60.189C33.7354 60.189 33.6647 60.2244 33.6293 60.3307C33.6293 60.437 33.6647 60.5078 33.7707 60.5432C33.8081 60.5526 33.8459 60.562 33.8839 60.5714C34.4197 60.7046 35.0049 60.8501 35.4669 61.1809C35.8417 61.4541 36.1836 61.9909 36.0809 62.4735C33.057 62.8801 30.309 62.8379 27.9047 62.279C27.1979 62.1018 26.4205 61.8893 25.6431 61.4288C24.3003 60.6141 23.2755 59.3034 22.7808 57.7447C21.5794 54.0961 24.4063 50.8726 24.7244 50.5183C24.795 50.4475 24.795 50.3412 24.7244 50.2704C24.6537 50.1995 24.5477 50.1995 24.477 50.2704C24.1236 50.6246 21.1907 53.9898 22.4275 57.8156C22.9575 59.4451 24.0176 60.8266 25.4311 61.6768C26.2792 62.1727 27.0566 62.3852 27.7987 62.5623Z" fill="#FED38C"/>
<path d="M27.7987 62.5623L27.7406 62.8055L27.7437 62.8062L27.7987 62.5623ZM35.8852 62.8401L35.8663 62.5909H35.8663L35.8852 62.8401ZM36.2795 62.8103L36.2983 63.0596L36.3475 63.0559L36.3916 63.0338L36.2795 62.8103ZM36.4209 62.5978H36.6709V62.5389L36.6446 62.4862L36.4209 62.5978ZM36.4041 62.5683L36.1618 62.5067L36.1348 62.6128L36.1945 62.7047L36.4041 62.5683ZM35.6435 60.8975L35.4953 61.0991L35.5046 61.1053L35.6435 60.8975ZM33.8414 60.189L33.8988 59.9457L33.8705 59.939H33.8414V60.189ZM33.6293 60.3307L33.3921 60.2518L33.3793 60.2902V60.3307H33.6293ZM33.7707 60.5432L33.6915 60.7803L33.7006 60.7834L33.7099 60.7857L33.7707 60.5432ZM33.8839 60.5714L33.9442 60.3288H33.9442L33.8839 60.5714ZM35.4669 61.1809L35.6141 60.9788L35.6124 60.9776L35.4669 61.1809ZM36.0809 62.4735L36.1142 62.7213L36.2887 62.6978L36.3254 62.5256L36.0809 62.4735ZM27.9047 62.279L27.8439 62.5215L27.8481 62.5225L27.9047 62.279ZM25.6431 61.4288L25.5134 61.6425L25.5157 61.6439L25.6431 61.4288ZM22.7808 57.7447L23.0191 57.6691L23.0183 57.6665L22.7808 57.7447ZM24.7244 50.5183L24.5471 50.3415L24.5383 50.3513L24.7244 50.5183ZM24.7244 50.2704L24.9013 50.0938L24.9013 50.0938L24.7244 50.2704ZM24.477 50.2704L24.3 50.0938L24.3 50.0938L24.477 50.2704ZM22.4275 57.8156L22.1896 57.8925L22.1897 57.8929L22.4275 57.8156ZM25.4311 61.6768L25.3022 61.891L25.3049 61.8926L25.4311 61.6768ZM32.3572 62.7729C30.7459 62.7729 29.2453 62.6324 27.8537 62.3185L27.7437 62.8062C29.179 63.13 30.7174 63.2729 32.3572 63.2729V62.7729ZM35.8663 62.5909C34.6067 62.6865 33.4667 62.7729 32.3572 62.7729V63.2729C33.4891 63.2729 34.6485 63.1847 35.9041 63.0894L35.8663 62.5909ZM36.2608 62.561C36.128 62.571 35.9965 62.581 35.8663 62.5909L35.9041 63.0894C36.0344 63.0795 36.1657 63.0696 36.2983 63.0596L36.2608 62.561ZM36.1709 62.5978C36.1709 62.5961 36.1713 62.5926 36.1727 62.5884C36.1741 62.5844 36.1758 62.5819 36.1766 62.5808C36.1772 62.58 36.1769 62.5806 36.175 62.5821C36.1731 62.5836 36.1705 62.5853 36.1675 62.5868L36.3916 63.0338C36.5133 62.9728 36.6709 62.831 36.6709 62.5978H36.1709ZM36.1945 62.7047C36.1955 62.7062 36.1964 62.7078 36.1972 62.7094L36.6446 62.4862C36.6356 62.468 36.6253 62.4499 36.6136 62.432L36.1945 62.7047ZM35.5046 61.1053C35.9651 61.413 36.2928 61.9921 36.1618 62.5067L36.6463 62.63C36.8479 61.8381 36.3481 61.0676 35.7825 60.6896L35.5046 61.1053ZM33.784 60.4323C34.3878 60.5747 35.0116 60.7432 35.4955 61.0989L35.7916 60.696C35.2154 60.2725 34.4964 60.0866 33.8988 59.9457L33.784 60.4323ZM33.8666 60.4096C33.8689 60.4026 33.8693 60.4044 33.8648 60.4105C33.8598 60.4174 33.8519 60.4254 33.8416 60.4319C33.8317 60.438 33.8245 60.4398 33.8235 60.4401C33.8231 60.4401 33.8282 60.439 33.8414 60.439V59.939C33.7636 59.939 33.6666 59.9515 33.5761 60.0081C33.4806 60.0679 33.4236 60.1571 33.3921 60.2518L33.8666 60.4096ZM33.8499 60.3061C33.8431 60.3038 33.845 60.3035 33.8512 60.308C33.8581 60.313 33.866 60.321 33.8724 60.3313C33.8785 60.341 33.8803 60.3482 33.8804 60.349C33.8805 60.3492 33.8793 60.344 33.8793 60.3307H33.3793C33.3793 60.4085 33.3917 60.5054 33.4481 60.5958C33.5077 60.6914 33.5967 60.7487 33.6915 60.7803L33.8499 60.3061ZM33.9442 60.3288C33.9062 60.3194 33.8686 60.31 33.8315 60.3007L33.7099 60.7857C33.7476 60.7952 33.7856 60.8046 33.8236 60.8141L33.9442 60.3288ZM35.6124 60.9776C35.1048 60.6141 34.4704 60.4596 33.9442 60.3288L33.8236 60.8141C34.369 60.9496 34.905 61.0861 35.3213 61.3841L35.6124 60.9776ZM36.3254 62.5256C36.3925 62.2102 36.3116 61.8951 36.1745 61.6329C36.037 61.3698 35.8323 61.1379 35.6141 60.9788L35.3196 61.3829C35.4763 61.4971 35.6299 61.6702 35.7314 61.8645C35.8333 62.0596 35.872 62.2542 35.8363 62.4215L36.3254 62.5256ZM27.8481 62.5225C30.2898 63.0901 33.0696 63.1306 36.1142 62.7213L36.0476 62.2258C33.0445 62.6295 30.3283 62.5857 27.9613 62.0355L27.8481 62.5225ZM25.5157 61.6439C26.3266 62.1242 27.1346 62.3437 27.8439 62.5215L27.9655 62.0365C27.2613 61.86 26.5145 61.6544 25.7705 61.2137L25.5157 61.6439ZM22.5425 57.8204C23.055 59.4349 24.1174 60.7955 25.5134 61.6425L25.7728 61.2151C24.4833 60.4326 23.4961 59.1718 23.0191 57.6691L22.5425 57.8204ZM24.5383 50.3513C24.3721 50.5364 23.5669 51.4527 22.9554 52.7923C22.3438 54.132 21.9161 55.9179 22.5434 57.8229L23.0183 57.6665C22.4441 55.9229 22.8292 54.2728 23.4102 53C23.9913 51.727 24.7586 50.8545 24.9104 50.6853L24.5383 50.3513ZM24.5474 50.4469C24.5374 50.4369 24.5274 50.4183 24.5274 50.3943C24.5274 50.3704 24.5374 50.3518 24.5474 50.3418L24.9013 50.6949C25.0694 50.5265 25.0694 50.2622 24.9013 50.0938L24.5474 50.4469ZM24.654 50.4469C24.644 50.4569 24.6251 50.4672 24.6007 50.4672C24.5763 50.4672 24.5574 50.4569 24.5474 50.4469L24.9013 50.0938C24.733 49.925 24.4684 49.925 24.3 50.0938L24.654 50.4469ZM22.6653 57.7387C22.0728 55.9057 22.4759 54.1751 23.0833 52.845C23.6916 51.5131 24.4942 50.6072 24.654 50.4469L24.3 50.0938C24.1065 50.2878 23.2659 51.2416 22.6285 52.6373C21.9903 54.0348 21.5454 55.8998 22.1896 57.8925L22.6653 57.7387ZM25.56 61.4625C24.2018 60.6456 23.178 59.3148 22.6652 57.7383L22.1897 57.8929C22.737 59.5754 23.8334 61.0075 25.3022 61.891L25.56 61.4625ZM27.8567 62.3192C27.1213 62.1436 26.3729 61.9379 25.5573 61.4609L25.3049 61.8926C26.1855 62.4075 26.9919 62.6268 27.7406 62.8055L27.8567 62.3192Z" fill="#FED38C"/>
<path fill-rule="evenodd" clip-rule="evenodd" d="M40.0253 61.11C40.0606 61.1454 40.0959 61.1454 40.1313 61.1454C40.1495 61.1454 40.1677 61.1431 40.1846 61.139C40.201 61.1432 40.2186 61.1454 40.2373 61.1454C40.4847 61.1454 41.0854 61.1454 41.6508 61.5351C42.0395 61.7831 42.2515 62.1373 42.3575 62.3853L37.8344 62.4207C37.7284 62.4207 37.6577 62.4915 37.6577 62.5978C37.6577 62.7041 37.7284 62.7749 37.8344 62.7749L42.6402 62.7041C42.7109 62.7041 42.7462 62.6686 42.7816 62.6332C42.8169 62.5978 42.8169 62.5624 42.8169 62.4916V62.4915C42.7109 62.2081 42.4989 61.6414 41.8628 61.2163C41.2267 60.7912 40.52 60.7912 40.2373 60.7912C40.211 60.7912 40.1869 60.7956 40.1655 60.8037C38.8226 59.9444 38.7535 58.1632 38.7885 57.426C38.7885 57.0274 38.8481 56.6289 38.9078 56.2304C38.9276 56.0976 38.9475 55.9647 38.9652 55.8319C39.0712 55.1943 39.1772 54.5567 39.1772 53.919C39.1772 53.8128 39.1065 53.7419 39.0005 53.7419C38.8945 53.7419 38.8238 53.8128 38.8238 53.919C38.7885 54.5212 38.7178 55.1589 38.6118 55.7611L38.6118 55.7611C38.5411 56.2924 38.4705 56.8238 38.4351 57.3905C38.3998 58.1699 38.4705 60.1536 40.0253 61.11Z" fill="#FED38C"/>
<path d="M40.0253 61.11L40.2023 60.9335L40.1814 60.9125L40.1563 60.8971L40.0253 61.11ZM40.1846 61.139L40.2473 60.897L40.1868 60.8813L40.1261 60.8959L40.1846 61.139ZM41.6508 61.5351L41.5088 61.7411L41.5163 61.7459L41.6508 61.5351ZM42.3575 62.3853L42.3595 62.6353L42.735 62.6323L42.5874 62.287L42.3575 62.3853ZM37.8344 62.4207V62.6707L37.8364 62.6707L37.8344 62.4207ZM37.8344 62.7749V63.0249L37.8381 63.0249L37.8344 62.7749ZM42.6402 62.7041V62.454L42.6365 62.4541L42.6402 62.7041ZM42.7816 62.6332L42.9586 62.8098L42.7816 62.6332ZM42.8169 62.4915H43.0669V62.4463L43.0511 62.4039L42.8169 62.4915ZM41.8628 61.2163L41.7239 61.4241L41.8628 61.2163ZM40.1655 60.8037L40.0308 61.0143L40.1369 61.0822L40.2547 61.0373L40.1655 60.8037ZM38.7885 57.426L39.0385 57.4378V57.426H38.7885ZM38.9078 56.2304L39.155 56.2674H39.155L38.9078 56.2304ZM38.9652 55.8319L38.7184 55.7909L38.7174 55.7989L38.9652 55.8319ZM38.8238 53.919L39.0734 53.9337L39.0738 53.9264V53.919H38.8238ZM38.6118 55.7611L38.3654 55.7177L38.3642 55.7267L38.6118 55.7611ZM38.6118 55.7611L38.3642 55.7267L38.364 55.7281L38.6118 55.7611ZM38.4351 57.3905L38.1856 57.375L38.1854 57.3792L38.4351 57.3905ZM40.1313 60.8954C40.1212 60.8954 40.1201 60.8954 40.1204 60.8954C40.1218 60.8955 40.1289 60.896 40.1391 60.8985C40.1498 60.9012 40.1621 60.9057 40.1746 60.9127C40.1869 60.9197 40.1961 60.9273 40.2023 60.9335L39.8483 61.2866C39.9614 61.3999 40.0921 61.3954 40.1313 61.3954V60.8954ZM40.1261 60.8959C40.127 60.8957 40.1284 60.8954 40.1313 60.8954V61.3954C40.1705 61.3954 40.2083 61.3904 40.2432 61.3821L40.1261 60.8959ZM40.2373 60.8954C40.2383 60.8954 40.2418 60.8956 40.2473 60.897L40.122 61.381C40.1602 61.3909 40.1989 61.3954 40.2373 61.3954V60.8954ZM41.7927 61.3292C41.1595 60.8929 40.4899 60.8954 40.2373 60.8954V61.3954C40.4794 61.3954 41.0113 61.398 41.5089 61.7409L41.7927 61.3292ZM42.5874 62.287C42.4693 62.0108 42.2303 61.6082 41.7852 61.3243L41.5163 61.7459C41.8487 61.9579 42.0337 62.2638 42.1277 62.4835L42.5874 62.287ZM37.8364 62.6707L42.3595 62.6353L42.3556 62.1353L37.8324 62.1707L37.8364 62.6707ZM37.9077 62.5978C37.9077 62.6013 37.9055 62.6237 37.8833 62.6459C37.8611 62.6682 37.8384 62.6707 37.8344 62.6707V62.1707C37.7244 62.1707 37.6134 62.2085 37.5293 62.2928C37.4453 62.3771 37.4077 62.488 37.4077 62.5978H37.9077ZM37.8344 62.5249C37.8384 62.5249 37.8611 62.5274 37.8833 62.5497C37.9055 62.5719 37.9077 62.5943 37.9077 62.5978H37.4077C37.4077 62.7076 37.4453 62.8185 37.5293 62.9028C37.6134 62.9871 37.7244 63.0249 37.8344 63.0249V62.5249ZM42.6365 62.4541L37.8307 62.5249L37.8381 63.0249L42.6439 62.954L42.6365 62.4541ZM42.6046 62.4567C42.5948 62.4664 42.5915 62.4697 42.5889 62.472C42.5871 62.4735 42.5896 62.4711 42.5953 62.4677C42.6015 62.4639 42.6099 62.46 42.6196 62.4573C42.6292 62.4546 42.6366 62.4541 42.6402 62.4541V62.9541C42.821 62.9541 42.9207 62.8478 42.9586 62.8098L42.6046 62.4567ZM42.5669 62.4916C42.5669 62.5107 42.5669 62.5208 42.5665 62.5286C42.5663 62.536 42.5659 62.5337 42.5673 62.5268C42.569 62.5184 42.5728 62.5048 42.5809 62.4894C42.5891 62.4739 42.5982 62.463 42.6046 62.4567L42.9586 62.8098C43.0784 62.6897 43.0669 62.5421 43.0669 62.4916H42.5669ZM42.5669 62.4915V62.4916H43.0669V62.4915H42.5669ZM41.7239 61.4241C42.2908 61.803 42.4801 62.3046 42.5827 62.5791L43.0511 62.4039C42.9417 62.1116 42.707 61.4798 42.0017 61.0084L41.7239 61.4241ZM40.2373 61.0412C40.5178 61.0412 41.1557 61.0444 41.7239 61.4241L42.0017 61.0084C41.2977 60.538 40.5222 60.5412 40.2373 60.5412V61.0412ZM40.2547 61.0373C40.2451 61.0409 40.2387 61.0412 40.2373 61.0412V60.5412C40.1834 60.5412 40.1287 60.5502 40.0763 60.5702L40.2547 61.0373ZM38.5388 57.4141C38.5206 57.7969 38.5288 58.4561 38.7195 59.1366C38.9106 59.8181 39.2909 60.5409 40.0308 61.0143L40.3003 60.5931C39.6972 60.2073 39.3715 59.6098 39.201 59.0016C39.0302 58.3924 39.0214 57.7923 39.0382 57.4378L38.5388 57.4141ZM38.6605 56.1934C38.6014 56.5887 38.5385 57.0057 38.5385 57.426H39.0385C39.0385 57.0492 39.0949 56.6692 39.155 56.2674L38.6605 56.1934ZM38.7174 55.7989C38.7 55.9294 38.6804 56.0602 38.6605 56.1934L39.155 56.2674C39.1748 56.1349 39.195 56.0001 39.213 55.8649L38.7174 55.7989ZM38.9272 53.919C38.9272 54.5325 38.8252 55.1496 38.7186 55.7909L39.2118 55.8729C39.3172 55.2389 39.4272 54.5808 39.4272 53.919H38.9272ZM39.0005 53.9919C38.9965 53.9919 38.9738 53.9895 38.9516 53.9672C38.9294 53.9449 38.9272 53.9225 38.9272 53.919H39.4272C39.4272 53.8093 39.3896 53.6983 39.3056 53.6141C39.2215 53.5298 39.1105 53.4919 39.0005 53.4919V53.9919ZM39.0738 53.919C39.0738 53.9225 39.0716 53.9449 39.0494 53.9672C39.0272 53.9895 39.0045 53.9919 39.0005 53.9919V53.4919C38.8905 53.4919 38.7795 53.5298 38.6954 53.6141C38.6114 53.6983 38.5738 53.8093 38.5738 53.919H39.0738ZM38.858 55.8044C38.9659 55.1918 39.0375 54.5445 39.0734 53.9337L38.5742 53.9044C38.5394 54.498 38.4698 55.1259 38.3656 55.7177L38.858 55.8044ZM38.8594 55.7955L38.8594 55.7954L38.3642 55.7267L38.3642 55.7267L38.8594 55.7955ZM38.6846 57.4061C38.7193 56.8494 38.7888 56.3264 38.8596 55.794L38.364 55.7281C38.2935 56.2584 38.2216 56.7982 38.1856 57.375L38.6846 57.4061ZM40.1563 60.8971C39.4478 60.4613 39.0703 59.7884 38.8739 59.114C38.677 58.4377 38.6678 57.7774 38.6849 57.4019L38.1854 57.3792C38.1671 57.783 38.1756 58.5042 38.3939 59.2538C38.6127 60.0051 39.0479 60.8023 39.8943 61.323L40.1563 60.8971Z" fill="#FED38C"/>
<path d="M38.8239 53.3168C39.2142 53.3168 39.5307 52.9996 39.5307 52.6083C39.5307 52.2171 39.2142 51.8999 38.8239 51.8999C38.4336 51.8999 38.1172 52.2171 38.1172 52.6083C38.1172 52.9996 38.4336 53.3168 38.8239 53.3168Z" fill="white"/>
<path d="M27.9401 61.3934C28.3305 61.3934 28.6469 61.0762 28.6469 60.6849C28.6469 60.2936 28.3305 59.9764 27.9401 59.9764C27.5498 59.9764 27.2334 60.2936 27.2334 60.6849C27.2334 61.0762 27.5498 61.3934 27.9401 61.3934Z" fill="white"/>
<path d="M32.9934 41.8395C33.3837 41.8395 33.7001 41.5224 33.7001 41.1311C33.7001 40.7398 33.3837 40.4226 32.9934 40.4226C32.603 40.4226 32.2866 40.7398 32.2866 41.1311C32.2866 41.5224 32.603 41.8395 32.9934 41.8395Z" fill="white"/>
<path fill-rule="evenodd" clip-rule="evenodd" d="M37.9837 45.6433C37.5501 46.5953 37.5621 47.7917 38.0467 49.314C38.1527 49.6682 38.2941 50.0579 38.4354 50.4121C38.5414 50.6955 38.6475 50.9789 38.7181 51.2623C38.7535 51.3685 38.6828 51.4394 38.6121 51.4748C38.5945 51.4748 38.5856 51.4837 38.5768 51.4925C38.5679 51.5014 38.5591 51.5102 38.5414 51.5102C38.4708 51.5102 38.4001 51.4748 38.3648 51.4039C38.3118 51.2623 38.2676 51.1206 38.2234 50.9789C38.1792 50.8372 38.1351 50.6955 38.0821 50.5538C38.0015 50.3519 37.9325 50.1386 37.8618 49.9203C37.8084 49.7555 37.7542 49.5878 37.6934 49.4202C37.128 47.6491 37.1633 46.2675 37.7994 45.2048C37.804 45.1954 37.81 45.1867 37.817 45.1786C37.8368 45.1507 37.8663 45.1246 37.9054 45.0985C38.3294 44.9214 40.5203 43.8941 41.1563 42.796C41.1653 42.778 41.1753 42.7585 41.186 42.7376C41.3014 42.512 41.4978 42.1284 41.3684 41.8041C41.2977 41.5916 41.1564 41.4853 41.0503 41.4145C40.5025 40.9477 39.9971 40.417 39.6824 40.0865C39.5911 39.9906 39.5158 39.9116 39.4602 39.8558C39.2663 39.6615 39.1593 39.5107 39.071 39.3864C39.0467 39.352 39.0237 39.3197 39.0008 39.2891C38.8948 39.1119 38.7888 38.9703 38.5414 38.7577C38.5351 38.7523 38.5288 38.7468 38.5224 38.7414C38.2795 38.5326 38.0005 38.2927 37.5873 38.1201C37.2918 38.0016 37.0951 38.007 36.9146 38.0119C36.8793 38.0129 36.8446 38.0138 36.8099 38.0138C36.7747 38.0138 36.7396 38.0148 36.7042 38.0158C36.5266 38.0207 36.3448 38.0257 36.1385 37.9075C35.5731 37.6596 35.3257 37.1636 35.1491 36.774C35.0077 36.4552 34.9017 36.2781 34.7604 36.2781C34.6544 36.2781 34.3717 36.3489 33.9829 37.2699C33.6649 37.943 33.5942 38.7577 33.7356 39.5725C33.7356 39.6787 33.7003 39.7496 33.5942 39.785C33.4882 39.785 33.4176 39.7496 33.3822 39.6433C33.2409 38.7223 33.3116 37.8721 33.6649 37.1282C34.0183 36.3135 34.407 35.9238 34.7957 35.9592C35.1491 35.9947 35.3258 36.3135 35.4671 36.6677C35.4811 36.6958 35.4951 36.7243 35.5092 36.7531C35.6735 37.0877 35.8569 37.4611 36.2798 37.6242C36.4919 37.695 36.6332 37.695 36.8099 37.695C36.8387 37.695 36.8688 37.6943 36.9004 37.6937C37.1013 37.6893 37.3622 37.6836 37.7287 37.8367C38.2234 38.0138 38.5414 38.2972 38.7888 38.5452C39.0511 38.7752 39.1613 38.9138 39.2887 39.0741C39.2986 39.0866 39.3086 39.0992 39.3188 39.1119L39.319 39.1122C39.425 39.2538 39.531 39.3955 39.7429 39.6433C39.799 39.6996 39.8733 39.7777 39.9629 39.8719C40.2683 40.193 40.7513 40.7009 41.2977 41.1665C41.4391 41.2728 41.6157 41.4499 41.7218 41.7333C41.8984 42.2646 41.6157 42.796 41.4744 43.044C40.809 44.2375 38.7209 45.2223 38.0987 45.5158L38.082 45.5236C38.049 45.5614 38.0139 45.6048 37.9837 45.6433Z" fill="#FED38C"/>
<path d="M37.9837 45.6433L37.787 45.489L37.7686 45.5125L37.7562 45.5397L37.9837 45.6433ZM38.0467 49.314L38.2863 49.2423L38.2849 49.2381L38.0467 49.314ZM38.4354 50.4121L38.6696 50.3245L38.6676 50.3194L38.4354 50.4121ZM38.7181 51.2623L38.4756 51.3227L38.4779 51.332L38.4809 51.3411L38.7181 51.2623ZM38.6121 51.4748V51.7248H38.6713L38.7241 51.6983L38.6121 51.4748ZM38.3648 51.4039L38.1306 51.4915L38.1352 51.5038L38.141 51.5155L38.3648 51.4039ZM38.2234 50.9789L38.4621 50.9045V50.9045L38.2234 50.9789ZM38.0821 50.5538L38.3163 50.4662L38.3143 50.4611L38.0821 50.5538ZM37.8618 49.9203L38.0996 49.8433L37.8618 49.9203ZM37.6934 49.4202L37.455 49.4963L37.4583 49.5055L37.6934 49.4202ZM37.7994 45.2048L38.0139 45.3332L38.0188 45.325L38.0231 45.3164L37.7994 45.2048ZM37.817 45.1786L38.0057 45.3425L38.0136 45.3335L38.0205 45.3237L37.817 45.1786ZM37.9054 45.0985L37.809 44.8678L37.7866 44.8772L37.7665 44.8907L37.9054 45.0985ZM41.1563 42.796L41.3727 42.9213L41.3766 42.9146L41.3801 42.9076L41.1563 42.796ZM41.186 42.7376L41.4085 42.8515V42.8515L41.186 42.7376ZM41.3684 41.8041L41.1312 41.883L41.1335 41.89L41.1362 41.8968L41.3684 41.8041ZM41.0503 41.4145L40.8882 41.6048L40.8993 41.6142L40.9114 41.6223L41.0503 41.4145ZM39.6824 40.0865L39.8634 39.9141H39.8634L39.6824 40.0865ZM39.4602 39.8558L39.6372 39.6793L39.4602 39.8558ZM39.071 39.3864L39.2749 39.2417L39.2749 39.2417L39.071 39.3864ZM39.0008 39.2891L38.7863 39.4175L38.7929 39.4285L38.8006 39.4388L39.0008 39.2891ZM38.5414 38.7577L38.3785 38.9473V38.9473L38.5414 38.7577ZM38.5224 38.7414L38.3594 38.9309L38.3594 38.9309L38.5224 38.7414ZM37.5873 38.1201L37.6837 37.8894L37.6804 37.888L37.5873 38.1201ZM36.9146 38.0119L36.9078 37.762H36.9078L36.9146 38.0119ZM36.7042 38.0158L36.7111 38.2657H36.7111L36.7042 38.0158ZM36.1385 37.9075L36.2628 37.6906L36.2512 37.684L36.2389 37.6786L36.1385 37.9075ZM35.1491 36.774L34.9205 36.8753L34.9214 36.8772L35.1491 36.774ZM33.9829 37.2699L34.2092 37.3768L34.2133 37.3671L33.9829 37.2699ZM33.7356 39.5725H33.9856V39.5509L33.9819 39.5297L33.7356 39.5725ZM33.5942 39.785V40.035H33.6349L33.6735 40.0221L33.5942 39.785ZM33.3822 39.6433L33.1351 39.6812L33.1383 39.7021L33.145 39.7222L33.3822 39.6433ZM33.6649 37.1282L33.8909 37.2356L33.8943 37.2277L33.6649 37.1282ZM34.7957 35.9592L34.8206 35.7105L34.8184 35.7103L34.7957 35.9592ZM35.4671 36.6677L35.2349 36.7604L35.2388 36.77L35.2434 36.7793L35.4671 36.6677ZM35.5092 36.7531L35.2848 36.8632L35.2848 36.8632L35.5092 36.7531ZM36.2798 37.6242L36.1898 37.8577L36.2006 37.8613L36.2798 37.6242ZM36.9004 37.6937L36.895 37.4437H36.895L36.9004 37.6937ZM37.7287 37.8367L37.6322 38.0677L37.6444 38.0721L37.7287 37.8367ZM38.7888 38.5452L38.6118 38.7217L38.6177 38.7276L38.6239 38.7331L38.7888 38.5452ZM39.2887 39.0741L39.4844 38.9185L39.4844 38.9185L39.2887 39.0741ZM39.3188 39.1119L39.5189 38.9619L39.5142 38.956L39.3188 39.1119ZM39.319 39.1122L39.5192 38.9625L39.519 38.9622L39.319 39.1122ZM39.7429 39.6433L39.5529 39.8058L39.5591 39.8131L39.5659 39.8199L39.7429 39.6433ZM39.9629 39.8719L39.7817 40.0442L39.9629 39.8719ZM41.2977 41.1665L41.1356 41.3568L41.1414 41.3618L41.1475 41.3663L41.2977 41.1665ZM41.7218 41.7333L41.9591 41.6544L41.9559 41.6457L41.7218 41.7333ZM41.4744 43.044L41.2572 42.9202L41.256 42.9222L41.4744 43.044ZM38.0987 45.5158L37.992 45.2897L37.992 45.2897L38.0987 45.5158ZM38.082 45.5236L37.9754 45.2975L37.9283 45.3197L37.894 45.3589L38.082 45.5236ZM37.7562 45.5397C37.2869 46.5701 37.314 47.8365 37.8085 49.3898L38.2849 49.2381C37.8102 47.747 37.8133 46.6205 38.2112 45.7469L37.7562 45.5397ZM37.8072 49.3856C37.916 49.749 38.0601 50.146 38.2032 50.5047L38.6676 50.3194C38.5281 49.9697 38.3895 49.5873 38.2862 49.2423L37.8072 49.3856ZM38.2013 50.4997C38.3083 50.7857 38.4089 51.0556 38.4756 51.3227L38.9607 51.2018C38.886 50.9022 38.7746 50.6053 38.6696 50.3245L38.2013 50.4997ZM38.4809 51.3411C38.4789 51.3353 38.4761 51.3221 38.4783 51.3044C38.4805 51.2869 38.4866 51.2726 38.4927 51.2628C38.4984 51.2538 38.5032 51.2497 38.5038 51.2492C38.5045 51.2486 38.5033 51.2497 38.5001 51.2513L38.7241 51.6983C38.7851 51.6678 38.8628 51.6143 38.917 51.5274C38.9773 51.4306 38.9972 51.3091 38.9554 51.1834L38.4809 51.3411ZM38.6121 51.2248C38.4843 51.2248 38.4112 51.3045 38.3998 51.3159L38.7538 51.6691C38.7615 51.6614 38.7451 51.6795 38.72 51.6946C38.6875 51.7141 38.6497 51.7248 38.6121 51.7248V51.2248ZM38.3998 51.3159C38.3921 51.3237 38.4085 51.3055 38.4336 51.2904C38.4661 51.2709 38.5039 51.2602 38.5414 51.2602V51.7602C38.6693 51.7602 38.7424 51.6805 38.7538 51.6691L38.3998 51.3159ZM38.5414 51.2602C38.5473 51.2602 38.5552 51.2616 38.5641 51.2667C38.5741 51.2724 38.5832 51.2817 38.5885 51.2924L38.141 51.5155C38.2244 51.6827 38.3896 51.7602 38.5414 51.7602V51.2602ZM38.5989 51.3164C38.5487 51.1823 38.5066 51.0472 38.4621 50.9045L37.9847 51.0533C38.0286 51.1939 38.0748 51.3423 38.1306 51.4915L38.5989 51.3164ZM38.4621 50.9045C38.4182 50.7638 38.3721 50.6155 38.3162 50.4662L37.8479 50.6414C37.8981 50.7755 37.9403 50.9106 37.9847 51.0533L38.4621 50.9045ZM38.3143 50.4611C38.2374 50.2684 38.1708 50.0631 38.0996 49.8433L37.6239 49.9973C37.6941 50.214 37.7657 50.4355 37.8499 50.6464L38.3143 50.4611ZM38.0996 49.8433C38.0465 49.6791 37.9909 49.5074 37.9284 49.335L37.4583 49.5055C37.5174 49.6683 37.5704 49.8318 37.6239 49.9973L38.0996 49.8433ZM37.9315 49.3442C37.377 47.607 37.4299 46.309 38.0139 45.3332L37.5848 45.0764C36.8967 46.2261 36.879 47.6911 37.4552 49.4963L37.9315 49.3442ZM38.0231 45.3164C38.0179 45.3268 38.0118 45.3355 38.0057 45.3425L37.6282 45.0147C37.6081 45.0378 37.5902 45.0641 37.5756 45.0932L38.0231 45.3164ZM38.0205 45.3237C38.018 45.3272 38.0175 45.3271 38.0213 45.3237C38.0252 45.3201 38.0323 45.3144 38.0443 45.3064L37.7665 44.8907C37.7137 44.9259 37.6574 44.9718 37.6134 45.0335L38.0205 45.3237ZM38.0017 45.3292C38.2236 45.2366 38.889 44.9298 39.5818 44.5059C40.2632 44.089 41.0202 43.5299 41.3727 42.9213L40.94 42.6707C40.6565 43.1602 40 43.6639 39.3209 44.0794C38.6532 44.4879 38.0112 44.7834 37.809 44.8678L38.0017 45.3292ZM41.3801 42.9076C41.3883 42.891 41.3977 42.8727 41.4085 42.8515L40.9634 42.6237C40.9529 42.6443 40.9423 42.665 40.9326 42.6844L41.3801 42.9076ZM41.4085 42.8515C41.4651 42.7409 41.5543 42.5682 41.6093 42.377C41.664 42.1865 41.6944 41.9466 41.6006 41.7115L41.1362 41.8968C41.1718 41.9859 41.1687 42.0999 41.1287 42.2388C41.089 42.3768 41.0223 42.5087 40.9634 42.6237L41.4085 42.8515ZM41.6056 41.7253C41.5083 41.4325 41.3095 41.287 41.1892 41.2066L40.9114 41.6223C41.0032 41.6837 41.0872 41.7507 41.1312 41.883L41.6056 41.7253ZM41.2125 41.2242C40.6759 40.767 40.1789 40.2454 39.8634 39.9141L39.5013 40.2589C39.8154 40.5887 40.3291 41.1284 40.8882 41.6048L41.2125 41.2242ZM39.8634 39.9141C39.773 39.8192 39.6953 39.7376 39.6372 39.6793L39.2832 40.0324C39.3363 40.0856 39.4091 40.1621 39.5013 40.2589L39.8634 39.9141ZM39.6372 39.6793C39.4584 39.5 39.3609 39.3629 39.2749 39.2417L38.8672 39.5311C38.9577 39.6586 39.0743 39.823 39.2832 40.0324L39.6372 39.6793ZM39.2749 39.2417C39.2509 39.2079 39.2261 39.1729 39.201 39.1393L38.8006 39.4388C38.8213 39.4665 38.8424 39.4962 38.8672 39.5311L39.2749 39.2417ZM39.2153 39.1607C39.0958 38.9609 38.9725 38.7985 38.7044 38.5681L38.3785 38.9473C38.6051 39.142 38.6938 39.263 38.7863 39.4175L39.2153 39.1607ZM38.7044 38.5681C38.6981 38.5627 38.6918 38.5573 38.6854 38.5518L38.3594 38.9309C38.3658 38.9364 38.3721 38.9419 38.3785 38.9473L38.7044 38.5681ZM38.6854 38.5518C38.4423 38.3428 38.137 38.0788 37.6837 37.8894L37.491 38.3508C37.864 38.5066 38.1168 38.7223 38.3594 38.9309L38.6854 38.5518ZM37.6804 37.888C37.3371 37.7504 37.0994 37.7568 36.9078 37.762L36.9215 38.2618C37.0908 38.2572 37.2465 38.2528 37.4943 38.3521L37.6804 37.888ZM36.9078 37.762C36.8719 37.763 36.8406 37.7638 36.8099 37.7638V38.2638C36.8486 38.2638 36.8867 38.2628 36.9215 38.2618L36.9078 37.762ZM36.8099 37.7638C36.7707 37.7638 36.732 37.7649 36.6973 37.7659L36.7111 38.2657C36.7471 38.2647 36.7788 38.2638 36.8099 38.2638V37.7638ZM36.6973 37.7659C36.5206 37.7708 36.4029 37.7709 36.2628 37.6906L36.0143 38.1245C36.2868 38.2806 36.5325 38.2706 36.7111 38.2657L36.6973 37.7659ZM36.2389 37.6786C35.7678 37.472 35.5528 37.0589 35.3767 36.6707L34.9214 36.8772C35.0987 37.2684 35.3785 37.8472 36.0381 38.1365L36.2389 37.6786ZM35.3776 36.6727C35.307 36.5134 35.2358 36.3667 35.1562 36.2584C35.0781 36.1522 34.9513 36.0281 34.7604 36.0281V36.5281C34.7108 36.5281 34.7076 36.4925 34.7533 36.5545C34.7973 36.6145 34.8498 36.7157 34.9205 36.8753L35.3776 36.6727ZM34.7604 36.0281C34.6327 36.0281 34.4739 36.0784 34.3007 36.252C34.1358 36.4173 33.9528 36.6984 33.7526 37.1727L34.2133 37.3671C34.4018 36.9204 34.5545 36.7056 34.6547 36.6052C34.7465 36.5131 34.7821 36.5281 34.7604 36.5281V36.0281ZM33.7569 37.1631C33.4122 37.8927 33.3412 38.7617 33.4893 39.6152L33.9819 39.5297C33.8473 38.7537 33.9176 37.9933 34.209 37.3767L33.7569 37.1631ZM33.4856 39.5725C33.4856 39.5857 33.4844 39.591 33.4845 39.5908C33.4847 39.59 33.4864 39.5828 33.4925 39.573C33.4989 39.5628 33.5069 39.5548 33.5138 39.5498C33.52 39.5453 33.5219 39.5456 33.515 39.5479L33.6735 40.0221C33.7682 39.9904 33.8572 39.9331 33.9168 39.8375C33.9732 39.7471 33.9856 39.6502 33.9856 39.5725H33.4856ZM33.5942 39.535C33.5811 39.535 33.576 39.5338 33.5764 39.5339C33.5774 39.5341 33.5846 39.536 33.5945 39.5421C33.6048 39.5486 33.6127 39.5566 33.6177 39.5635C33.6221 39.5696 33.6218 39.5714 33.6194 39.5644L33.145 39.7222C33.1765 39.8168 33.2335 39.906 33.329 39.9659C33.4194 40.0225 33.5164 40.035 33.5942 40.035V39.535ZM33.6293 39.6054C33.4932 38.7187 33.5646 37.9222 33.8907 37.2355L33.4391 37.021C33.0586 37.8221 32.9885 38.7258 33.1351 39.6812L33.6293 39.6054ZM33.8943 37.2277C34.0651 36.8339 34.236 36.5636 34.3961 36.3994C34.5546 36.2368 34.6794 36.1997 34.773 36.2082L34.8184 35.7103C34.5233 35.6834 34.2594 35.8233 34.038 36.0504C33.8182 36.2759 33.6181 36.6078 33.4356 37.0287L33.8943 37.2277ZM34.7708 36.208C34.8673 36.2177 34.9437 36.263 35.0181 36.3531C35.0982 36.45 35.1661 36.5879 35.2349 36.7604L35.6993 36.5751C35.6268 36.3933 35.5357 36.1946 35.4037 36.0348C35.2661 35.8681 35.0775 35.7362 34.8206 35.7105L34.7708 36.208ZM35.2434 36.7793C35.257 36.8065 35.2706 36.8343 35.2848 36.8632L35.7336 36.6429C35.7196 36.6142 35.7052 36.585 35.6908 36.5561L35.2434 36.7793ZM35.2848 36.8632C35.4431 37.1857 35.663 37.6542 36.1899 37.8574L36.3698 37.3909C36.0507 37.2679 35.904 36.9898 35.7336 36.6429L35.2848 36.8632ZM36.2006 37.8613C36.453 37.9456 36.6285 37.945 36.8099 37.945V37.445C36.6379 37.445 36.5307 37.4444 36.3591 37.387L36.2006 37.8613ZM36.8099 37.945C36.8419 37.945 36.8748 37.9443 36.9058 37.9436L36.895 37.4437C36.8628 37.4444 36.8355 37.445 36.8099 37.445V37.945ZM36.9058 37.9436C37.0958 37.9395 37.3146 37.9347 37.6323 38.0674L37.825 37.606C37.4099 37.4326 37.1068 37.4391 36.895 37.4437L36.9058 37.9436ZM37.6444 38.0721C38.0879 38.2308 38.3746 38.484 38.6118 38.7217L38.9658 38.3686C38.7082 38.1104 38.3589 37.7968 37.8129 37.6013L37.6444 38.0721ZM38.6239 38.7331C38.8704 38.9493 38.9701 39.075 39.093 39.2297L39.4844 38.9185C39.3525 38.7526 39.2318 38.6012 38.9536 38.3572L38.6239 38.7331ZM39.093 39.2297C39.1029 39.2421 39.1131 39.2549 39.1234 39.2679L39.5142 38.956C39.5042 38.9434 39.4943 38.931 39.4844 38.9185L39.093 39.2297ZM39.1188 39.2619L39.119 39.2622L39.519 38.9622L39.5188 38.9619L39.1188 39.2619ZM39.1189 39.262C39.2263 39.4056 39.336 39.5521 39.5529 39.8058L39.9329 39.4808C39.726 39.2389 39.6237 39.102 39.5192 38.9625L39.1189 39.262ZM39.5659 39.8199C39.6194 39.8735 39.6913 39.949 39.7817 40.0442L40.1441 39.6996C40.0553 39.6063 39.9786 39.5256 39.9199 39.4667L39.5659 39.8199ZM39.7817 40.0442C40.0867 40.3648 40.5779 40.8817 41.1356 41.3568L41.4598 40.9762C40.9247 40.5202 40.4499 40.0212 40.1441 39.6996L39.7817 40.0442ZM41.1475 41.3663C41.2617 41.4522 41.4025 41.5935 41.4876 41.8209L41.9559 41.6457C41.8289 41.3063 41.6164 41.0933 41.4479 40.9667L41.1475 41.3663ZM41.4845 41.8122C41.6223 42.2264 41.4027 42.6649 41.2572 42.9202L41.6916 43.1678C41.8288 42.9271 42.1746 42.3029 41.959 41.6544L41.4845 41.8122ZM41.256 42.9222C40.9559 43.4606 40.3146 43.9773 39.6367 44.4061C38.9679 44.8293 38.3025 45.1432 37.992 45.2897L38.2053 45.7419C38.517 45.5949 39.2069 45.2697 39.904 44.8287C40.5921 44.3934 41.3275 43.8208 41.6928 43.1657L41.256 42.9222ZM37.992 45.2897L37.9754 45.2975L38.1887 45.7497L38.2053 45.7419L37.992 45.2897ZM37.894 45.3589C37.8567 45.4015 37.8184 45.4489 37.787 45.489L38.1805 45.7976C38.2093 45.7607 38.2413 45.7212 38.2701 45.6883L37.894 45.3589Z" fill="#FED38C"/>
<path d="M44.5843 22.6399C44.549 22.6399 44.5137 22.6399 44.443 22.6045C44.4077 22.6045 44.3723 22.5691 44.337 22.5337C44.3016 22.4983 44.2663 22.4628 44.2663 22.4274C44.2663 22.392 44.231 22.3566 44.231 22.2857C44.231 22.2149 44.2663 22.1086 44.337 22.0732C44.3723 22.0377 44.4077 22.0377 44.443 22.0023C44.549 21.9669 44.6903 21.9669 44.7964 22.0732C44.867 22.144 44.9024 22.2149 44.9024 22.2857C44.9024 22.3211 44.9023 22.3566 44.867 22.4274C44.867 22.4628 44.8317 22.4983 44.7964 22.5337C44.761 22.6045 44.655 22.6399 44.5843 22.6399Z" fill="#FED38C"/>
<path d="M54.4431 30.6811C54.3371 30.5394 54.3724 30.3269 54.5138 30.2206C54.6551 30.1143 54.8671 30.1498 54.9732 30.2915C55.0792 30.4331 55.0438 30.6457 54.9025 30.752C54.8318 30.7874 54.7611 30.8228 54.7258 30.8228C54.6198 30.8228 54.5138 30.7874 54.4431 30.6811ZM56.1039 29.335C55.9626 29.2287 55.9626 29.0162 56.0686 28.8745C56.1746 28.7328 56.3866 28.7328 56.528 28.8391C56.6693 28.9454 56.6693 29.1579 56.5633 29.2996C56.4926 29.3704 56.422 29.4059 56.316 29.4059C56.2453 29.4413 56.1746 29.4059 56.1039 29.335ZM57.3407 27.5993C57.164 27.5638 57.0934 27.3513 57.1287 27.2096C57.1994 27.0325 57.3761 26.9616 57.5527 26.9971C57.7294 27.0679 57.8001 27.245 57.7648 27.3867C57.7294 27.5284 57.5881 27.5993 57.4467 27.5993C57.3761 27.5993 57.3407 27.5993 57.3407 27.5993ZM56.7753 25.5447C56.634 25.403 56.634 25.2259 56.7753 25.0842C56.9167 24.9425 57.0934 24.9425 57.2347 25.0842C57.3761 25.2259 57.3761 25.403 57.2347 25.5447C57.164 25.6155 57.0934 25.651 57.0227 25.651C56.9167 25.651 56.8107 25.6155 56.7753 25.5447ZM55.2205 24.0569C55.1145 23.9152 55.1145 23.7027 55.2205 23.5964C55.3619 23.4547 55.5739 23.4901 55.6799 23.5964C55.8212 23.7381 55.7859 23.9152 55.6799 24.0569C55.6092 24.1277 55.5385 24.1277 55.4679 24.1277C55.3972 24.1632 55.2912 24.1277 55.2205 24.0569ZM53.807 22.4274C53.701 22.2857 53.701 22.0732 53.8424 21.9669C53.9837 21.8606 54.1957 21.8961 54.3017 22.0023C54.4078 22.144 54.4078 22.3566 54.2664 22.4628C54.1957 22.4983 54.1251 22.5337 54.0544 22.5337C53.9484 22.5691 53.8777 22.5337 53.807 22.4274ZM52.4996 20.7979C52.3582 20.6562 52.3582 20.4791 52.4996 20.3374C52.6056 20.1957 52.8176 20.1957 52.9589 20.3374C53.1003 20.4791 53.1003 20.6562 52.9589 20.7979C52.8883 20.8688 52.8176 20.9042 52.7469 20.9042C52.6409 20.9042 52.5702 20.8688 52.4996 20.7979ZM44.4781 20.5145C44.3014 20.5145 44.1601 20.3374 44.1954 20.1603C44.1954 19.9832 44.3721 19.8415 44.5488 19.8769C44.7254 19.8769 44.8668 20.054 44.8315 20.2312C44.7961 20.3728 44.6548 20.5145 44.4781 20.5145ZM50.8741 19.6998C50.6974 19.629 50.6267 19.4518 50.6974 19.2747C50.768 19.0976 50.9447 19.0267 51.1214 19.0976C51.2981 19.1684 51.3688 19.3456 51.2981 19.5227C51.2628 19.6644 51.1214 19.7352 50.9801 19.7352C50.9447 19.6998 50.9094 19.6998 50.8741 19.6998ZM48.7538 19.4518C48.5772 19.381 48.5065 19.2039 48.5772 19.0267C48.6478 18.8496 48.8245 18.7788 49.0012 18.8496C49.1779 18.9205 49.2486 19.0976 49.1779 19.2747C49.1426 19.4164 49.0012 19.4873 48.8952 19.4873C48.8599 19.4518 48.7892 19.4518 48.7538 19.4518ZM44.8668 18.4245C44.6901 18.3537 44.6194 18.1766 44.6901 17.9995C44.7608 17.8223 44.9375 17.7515 45.1141 17.8223C45.2908 17.8932 45.3615 18.0703 45.2908 18.2474C45.2555 18.3891 45.1141 18.46 45.0081 18.46C44.9728 18.4245 44.9021 18.4245 44.8668 18.4245ZM47.2344 17.6806C47.1637 17.5035 47.2344 17.3264 47.411 17.2556C47.5877 17.1847 47.7644 17.2556 47.8351 17.4327C47.9058 17.6098 47.8351 17.7869 47.6584 17.8578C47.6231 17.8932 47.5877 17.8932 47.5171 17.8932C47.411 17.8932 47.305 17.8223 47.2344 17.6806ZM45.8916 16.5117C45.7855 16.37 45.8562 16.1574 45.9976 16.0512C46.1389 15.9449 46.3509 16.0157 46.4216 16.1574C46.5276 16.2991 46.457 16.5117 46.3156 16.5825C46.2449 16.6179 46.2096 16.6179 46.1389 16.6179C46.0682 16.6888 45.9622 16.6179 45.8916 16.5117Z" fill="#FED38C"/>
<path d="M52.888 31.9209C52.8527 31.9209 52.8174 31.9209 52.7467 31.8855C52.7114 31.8855 52.676 31.8501 52.6407 31.8147C52.57 31.7438 52.5347 31.673 52.5347 31.6021C52.5347 31.5313 52.57 31.425 52.6407 31.3896C52.676 31.3542 52.7114 31.3542 52.7467 31.3187C52.8527 31.2833 52.9941 31.3187 53.1001 31.3896C53.1707 31.4604 53.2061 31.5313 53.2061 31.6021C53.2061 31.673 53.1707 31.7792 53.1001 31.8147C53.0294 31.8855 52.9587 31.9209 52.888 31.9209Z" fill="#FED38C"/>
</svg>
