<svg width="124" height="60" viewBox="0 0 124 60" fill="none" xmlns="http://www.w3.org/2000/svg">
<path d="M73.9503 32.8838C80.7372 26.3405 80.7372 15.7319 73.9503 9.18867C67.1633 2.64545 56.1595 2.64545 49.3726 9.18867C42.5856 15.7319 42.5856 26.3405 49.3726 32.8838C56.1595 39.427 67.1633 39.427 73.9503 32.8838Z" fill="#16932B"/>
<path d="M72.6103 31.5916C78.657 25.7621 78.657 16.3105 72.6103 10.481C66.5636 4.65143 56.7599 4.65143 50.7132 10.481C44.6665 16.3105 44.6665 25.7621 50.7132 31.5916C56.7599 37.4212 66.5636 37.4212 72.6103 31.5916Z" fill="#FF6927"/>
<path fill-rule="evenodd" clip-rule="evenodd" d="M74.3552 16.4158C74.6716 16.3649 74.8826 16.1615 74.8298 15.9582C74.7771 15.7548 74.5134 15.6531 74.1985 15.704C73.8821 15.7548 73.6711 15.9582 73.7239 16.1615C73.7751 16.3649 74.0388 16.4666 74.3552 16.4158Z" fill="white"/>
<path fill-rule="evenodd" clip-rule="evenodd" d="M54.764 26.1637C54.7113 26.7216 54.6058 27.2808 54.0272 27.23C54.0272 27.23 53.658 27.1283 53.3431 27.1283C52.659 27.1283 52.5008 27.4842 52.5008 27.7878C52.5008 28.6507 53.4485 28.9049 54.0286 28.9049C54.6073 28.9049 55.2401 28.7016 55.7132 28.3471C56.6083 27.7384 57.1884 26.3671 57.4506 25.757C57.1869 25.6553 56.8719 25.5536 56.6083 25.4519C56.1322 25.9109 55.4481 26.1637 54.764 26.1637Z" fill="white"/>
<path fill-rule="evenodd" clip-rule="evenodd" d="M63.8741 23.9309C63.9795 24.2867 64.1377 24.9971 64.2432 25.3022C64.2432 25.3022 63.7159 25.5055 63.6646 25.5564C63.5064 25.6072 63.5064 25.7597 63.5591 25.9123C63.6119 26.0648 63.7701 26.0648 63.9283 26.0139C64.6124 25.6581 66.5621 24.846 67.4044 25.6581C67.879 26.0648 68.2994 27.4347 67.983 28.3484C67.8248 28.9063 67.4044 29.2113 66.7188 29.2622C66.3497 29.313 66.0348 29.2113 65.8238 29.0079C65.2452 28.4995 65.2452 27.4841 65.2452 27.4841C65.2452 27.3824 65.1924 27.3316 65.087 27.2807C65.0342 27.2299 64.9288 27.2299 64.8233 27.2807C64.8233 27.2807 63.3482 28.2962 62.1367 27.7383C60.3994 26.9263 60.8198 24.7429 60.8198 24.6921C60.8198 24.5395 60.7671 24.4379 60.6089 24.4379C60.4507 24.4379 60.3452 24.4887 60.3452 24.6412C60.3452 24.6412 60.2397 25.2499 60.3452 25.9108C59.081 25.7583 57.975 25.555 57.0273 25.2005C57.5546 24.6426 57.8168 23.9309 57.8168 23.1188C57.8168 22.9663 57.7113 22.8646 57.5531 22.8646C57.3949 22.8646 57.2895 22.9663 57.2895 23.1188C57.2895 24.5918 56.0253 25.7597 54.5502 25.7597C53.4442 25.7597 52.4437 25.1002 51.969 24.0848C52.0218 23.9323 51.9163 23.9323 51.7596 23.9323C51.6014 23.9831 51.6014 24.1356 51.6014 24.2373C51.7596 24.5932 51.9705 24.8968 52.2327 25.2019C51.6541 26.4207 50.6009 27.792 48.8093 27.2836C48.2307 27.131 47.8615 26.7752 47.7561 26.319C47.7033 25.9631 47.7561 25.6086 48.0198 25.4561C48.2307 25.3036 48.5471 25.2527 48.8621 25.4053C49.7571 25.7103 50.2844 24.2882 50.8103 22.9168C51.074 22.1556 51.4417 21.2927 51.7054 21.1402C52.0218 20.9369 52.8113 20.9369 53.2332 21.4961C53.286 21.6486 53.3387 22.0045 53.3387 22.0045C53.3387 22.1062 53.4969 22.2079 53.6024 22.157C53.7606 22.157 53.8133 22.0045 53.8133 21.9028C53.5496 20.4298 53.9715 19.5161 54.3407 19.06C54.3407 19.06 51.6014 17.08 52.0233 14.439C52.0233 14.2865 52.1287 14.1848 52.1815 14.1848C52.2342 14.1848 52.3397 14.3373 52.3397 14.5407C52.4979 15.0491 52.7615 15.8103 53.4984 16.6224C54.1825 17.4344 54.7626 17.892 55.3412 18.0954C55.3939 18.0954 56.7108 18.3496 59.1865 18.3496C60.6089 18.3496 62.4517 18.1971 62.5571 18.1462C62.6626 18.7549 62.979 19.7703 63.8213 20.6855C64.6109 21.5484 65.4532 21.9043 66.086 22.1585C66.9811 22.5144 67.7706 22.6669 68.298 22.7671C68.298 22.818 68.2452 22.818 68.2452 22.8688C67.9288 23.63 67.4029 24.291 66.6646 24.8488C66.0333 24.798 65.295 24.9505 64.7164 25.1539C64.6636 25.0013 64.5582 24.596 64.3472 23.8842C64.2945 23.7317 64.189 23.6809 64.0308 23.7317C63.9268 23.6766 63.8741 23.8292 63.8741 23.9309Z" fill="white"/>
<path fill-rule="evenodd" clip-rule="evenodd" d="M69.6673 11.1354C69.1927 11.0845 68.6668 12.3542 68.4559 12.8103C68.8778 12.8612 69.2982 12.9628 69.7201 13.1662C69.8256 13.0137 69.9838 11.1354 69.6673 11.1354Z" fill="white"/>
<path fill-rule="evenodd" clip-rule="evenodd" d="M69.4036 19.462C69.4036 19.462 69.2454 19.4112 69.0344 19.462C69.2454 19.9704 69.7185 20.3249 70.3513 20.4774C71.4046 20.7316 72.616 20.6808 73.8802 19.5637C74.5116 19.0059 75.1444 17.9904 75.2499 17.0753C75.1444 17.2278 74.9862 17.2787 74.828 17.3803C74.1439 17.5837 73.3001 17.2787 73.0907 16.67C72.9324 16.3141 73.0907 16.0104 73.3543 15.7562C73.1434 15.8071 72.9324 15.8579 72.6702 15.9088C71.9861 16.0613 71.4588 16.163 71.1951 15.9596C70.9842 15.7562 70.9314 15.4512 70.7732 15.0967C70.615 14.5883 70.4568 14.0304 69.9309 13.7254C68.8249 13.0659 67.5608 13.2678 67.508 13.2678C67.4026 13.2678 67.3498 13.2678 67.2971 13.1661C67.2443 13.1153 67.0861 11.744 66.8225 11.3387C66.5588 10.8303 66.3478 10.7808 66.2951 10.7808C65.7678 10.7808 64.9255 12.0505 64.6105 13.8779C64.6105 13.9288 64.5578 13.9288 64.5578 13.9796C63.9264 14.6391 63.1881 16.9242 63.1881 17.6868C63.1881 17.6868 63.1881 17.7376 63.1881 17.7885C63.2408 18.5497 64.5578 21.8502 68.5071 21.9518C68.5598 21.9518 68.5598 21.9518 68.6125 21.9518C70.0349 21.8502 71.5613 21.2415 72.2469 20.8856C71.7723 21.0381 70.93 21.0889 70.1931 20.9364C69.4036 20.7331 68.8762 20.2769 68.5613 19.6668C68.4558 19.7176 68.4031 19.8193 68.3503 19.9718C68.2976 20.0735 68.1394 20.1244 68.0339 20.0735C67.8757 20.0227 67.8757 19.8702 67.9284 19.7685C68.3503 19.0073 69.1399 18.9056 69.509 18.9564C69.6672 18.9564 69.72 19.1089 69.72 19.2106C69.6672 19.4112 69.5618 19.462 69.4036 19.462ZM70.5095 15.6023C70.6678 15.6023 70.7732 15.7548 70.7732 16.009C70.7732 16.2124 70.615 16.4158 70.5095 16.4158C70.3513 16.4158 70.2459 16.2632 70.2459 16.009C70.1946 15.8057 70.3528 15.6023 70.5095 15.6023ZM66.7712 13.3695C66.6657 13.4203 66.4548 13.522 66.1398 13.522C65.8762 13.5729 65.8762 13.3695 66.0871 12.8117C66.298 12.3032 66.4562 12.0504 66.4562 12.0504C66.6657 11.8457 66.8239 13.3695 66.7712 13.3695ZM69.2468 17.2278C68.9832 17.2278 68.7722 16.9228 68.7722 16.5683C68.7722 16.2124 68.9832 15.8579 69.2468 15.8579C69.5105 15.8579 69.7214 16.163 69.7214 16.5174C69.72 16.8719 69.509 17.2278 69.2468 17.2278Z" fill="white"/>
<path fill-rule="evenodd" clip-rule="evenodd" d="M68.0886 24.1326C67.8777 24.4377 67.614 24.6905 67.2463 24.9955C67.4045 25.0464 67.5627 25.1481 67.7209 25.2497C67.9319 25.4531 68.1428 25.7581 68.2996 26.1126C68.7742 25.9601 69.1419 25.7567 69.1419 25.7567C69.1946 25.7059 69.3001 25.7059 69.3528 25.7567C69.4055 25.8076 69.4583 25.8584 69.511 25.9601C69.722 27.3823 70.3533 27.7876 70.9334 27.5842C71.408 27.4317 71.6702 27.1266 71.7757 26.7213C71.9867 25.8076 71.4593 24.6396 70.9861 24.2329C70.4061 23.6765 69.0891 23.8798 68.0886 24.1326Z" fill="white"/>
<path fill-rule="evenodd" clip-rule="evenodd" d="M68.6673 22.0506L68.3508 22.6593L68.2981 22.7101C67.1921 22.6085 63.3468 21.7964 62.4518 18.0892C62.4518 18.0892 62.4518 18.0384 62.5045 18.0384L63.0832 17.835C63.1359 17.835 63.1359 17.835 63.1359 17.8858C63.2941 18.7487 64.8732 21.8458 68.6131 21.9984C68.6673 21.9998 68.72 21.9998 68.6673 22.0506Z" fill="#1F9E38"/>
<path fill-rule="evenodd" clip-rule="evenodd" d="M56.1134 44.4438C56.8956 45.1753 57.275 46.1131 57.275 47.233C57.275 48.3303 56.8488 49.2681 56.0416 50.0222C55.2345 50.8004 54.1197 51.1887 52.7691 51.1887C52.1524 51.1887 51.7012 51.1661 51.417 51.1435V54.3677C51.417 54.7787 51.061 55.1459 50.6099 55.1459H49.4233C48.997 55.1459 48.6162 54.8027 48.6162 54.3677V44.1924C48.6162 43.7814 48.9721 43.3916 49.4233 43.3916C50.6567 43.369 51.6294 43.369 52.3413 43.369C54.0728 43.369 55.3297 43.7348 56.1134 44.4438ZM108.081 54.3451C108.081 54.7561 107.725 55.1233 107.274 55.1233H106.087C105.661 55.1233 105.28 54.7801 105.28 54.3451V45.9069H101.012V54.3451C101.012 54.7561 100.656 55.1233 100.205 55.1233H99.018C98.5917 55.1233 98.2109 54.7801 98.2109 54.3451V44.1698C98.2109 43.7588 98.5668 43.3916 99.018 43.3916H107.249C107.675 43.3916 108.056 43.7348 108.056 44.1698V54.3451H108.081ZM110.856 44.1698C110.856 43.7588 111.212 43.3916 111.663 43.3916H112.849C113.276 43.3916 113.656 43.7348 113.656 44.1698V47.0734C114.036 47.0282 114.392 47.0042 114.724 47.0042C117.642 47.0042 119.16 48.4899 119.16 50.9599C119.16 53.4978 117.31 55.1671 114.131 55.1671C113.443 55.1671 112.613 55.1445 111.664 55.1445C111.238 55.1445 110.857 54.7787 110.857 54.3663V44.1698H110.856ZM113.632 52.5841C114.058 52.6292 114.32 52.6533 114.439 52.6533C115.6 52.6533 116.17 52.1279 116.17 51.0291C116.17 50.0236 115.507 49.5194 114.439 49.5194C114.273 49.5194 113.988 49.542 113.608 49.6112V52.5841H113.632ZM123.118 54.3451C123.118 54.7561 122.762 55.1233 122.311 55.1233H121.124C120.698 55.1233 120.317 54.7801 120.317 54.3451V44.1698C120.317 43.7588 120.673 43.3916 121.124 43.3916H122.311C122.737 43.3916 123.118 43.7348 123.118 44.1698V54.3451ZM92.7352 52.6533H87.9201L87.1379 54.5739C86.9724 54.9397 86.7116 55.1233 86.3073 55.1233H85.2394C84.8131 55.1233 84.5041 54.7801 84.5041 54.3918C84.5041 54.3 84.5275 54.1856 84.5509 54.1178L88.9382 43.9424C89.1038 43.5766 89.3894 43.393 89.7922 43.393H91.0491C91.4519 43.393 91.7376 43.5766 91.9031 43.9424L96.2904 54.1178C96.3139 54.2096 96.3373 54.3014 96.3373 54.3918C96.3373 54.7801 96.0048 55.1233 95.6019 55.1233H94.3685C93.9657 55.1233 93.68 54.9397 93.5379 54.5739L92.7352 52.6533ZM90.3386 46.822L88.9631 50.138H91.6907L90.3386 46.822ZM82.5836 54.3451C82.5836 54.7561 82.2277 55.1233 81.7765 55.1233H80.5899C80.1637 55.1233 79.7828 54.7801 79.7828 54.3451V45.9069H77.127L76.8662 48.1255C76.1309 53.7506 75.0161 55.1911 72.5492 55.2137C72.0746 55.2137 71.767 54.9397 71.767 54.5273V53.5218C71.767 52.9964 71.9325 52.7902 72.5024 52.5389C72.977 52.3327 73.3798 51.7847 73.6406 50.8696C73.9013 49.9544 74.1386 48.2625 74.3291 45.7473L74.4477 44.1698C74.4946 43.7122 74.874 43.3916 75.3017 43.3916H81.7765C82.2028 43.3916 82.5836 43.7348 82.5836 44.1698V54.3451ZM66.9285 54.3451C66.9285 54.7561 66.5726 55.1233 66.1214 55.1233H60.3337C59.9074 55.1233 59.5265 54.7801 59.5265 54.3451V44.1698C59.5265 43.7588 59.8825 43.3916 60.3337 43.3916H65.9544C66.3807 43.3916 66.7615 43.7348 66.7615 44.1698V45.1301C66.7615 45.5411 66.4056 45.9083 65.9544 45.9083H62.3259V47.9659H65.4329C65.8592 47.9659 66.24 48.3091 66.24 48.7441V49.7044C66.24 50.1154 65.8841 50.4826 65.4329 50.4826H62.3259V52.6095H66.1448C66.5711 52.6095 66.952 52.9527 66.952 53.3876V54.348H66.9285V54.3451ZM51.417 48.5831C51.8433 48.6283 52.2945 48.6749 52.6973 48.6749C53.5748 48.6749 54.3336 48.2639 54.3336 47.2344C54.3336 46.3192 53.7886 45.8857 52.649 45.8857C52.6021 45.8857 52.1978 45.9083 51.439 45.9309V48.5831H51.417ZM33.6042 44.1698C33.6042 43.7588 33.9601 43.3916 34.4113 43.3916H35.5979C36.0241 43.3916 36.405 43.7348 36.405 44.1698V47.0734C36.7844 47.0282 37.1638 47.0042 37.4729 47.0042C40.3909 47.0042 41.9085 48.4899 41.9085 50.9599C41.9085 53.4978 40.0584 55.1671 36.8796 55.1671C36.1911 55.1671 35.362 55.1445 34.4128 55.1445C33.9865 55.1445 33.6056 54.7787 33.6056 54.3663L33.6042 44.1698ZM36.3786 52.5841C36.8049 52.6292 37.0671 52.6533 37.2092 52.6533C38.3709 52.6533 38.9407 52.1279 38.9407 51.0291C38.9407 50.0236 38.2771 49.5194 37.2092 49.5194C37.0437 49.5194 36.758 49.542 36.3786 49.6112V52.5841ZM45.8432 54.3451C45.8432 54.7561 45.4872 55.1233 45.036 55.1233H43.8495C43.4232 55.1233 43.0423 54.7801 43.0423 54.3451V44.1698C43.0423 43.7588 43.3983 43.3916 43.8495 43.3916H45.036C45.4623 43.3916 45.8432 43.7348 45.8432 44.1698V54.3451ZM25.8711 55.1233C25.4448 55.1233 25.064 54.7801 25.064 54.3451V45.9069H22.2177C21.7915 45.9069 21.4106 45.5637 21.4106 45.1287V44.1684C21.4106 43.7574 21.7666 43.3902 22.2177 43.3902H30.7096C31.1359 43.3902 31.5167 43.7334 31.5167 44.1684V45.1287C31.5167 45.5397 31.1608 45.9069 30.7096 45.9069H27.8633V54.3451C27.8633 54.7561 27.5074 55.1233 27.0562 55.1233H25.8711ZM19.515 54.3451C19.515 54.7561 19.1591 55.1233 18.7079 55.1233H12.9217C12.4954 55.1233 12.1145 54.7801 12.1145 54.3451V44.1698C12.1145 43.7588 12.4705 43.3916 12.9217 43.3916H18.5424C18.9686 43.3916 19.3495 43.7348 19.3495 44.1698V45.1301C19.3495 45.5411 18.9935 45.9083 18.5424 45.9083H14.9139V47.9659H18.0209C18.4472 47.9659 18.828 48.3091 18.828 48.7441V49.7044C18.828 50.1154 18.4721 50.4826 18.0209 50.4826H14.9139V52.6095H18.7094C19.1356 52.6095 19.5165 52.9527 19.5165 53.3876L19.515 54.3451ZM6.56412 44.1698C6.56412 43.7588 6.92008 43.3916 7.37126 43.3916H8.55781C8.98408 43.3916 9.36495 43.7348 9.36495 44.1698V54.3692C9.36495 54.7801 9.00899 55.1473 8.55781 55.1473H7.37126C6.94498 55.1473 6.56412 54.8041 6.56412 54.3692V50.6422C5.9474 51.0998 5.09338 51.3285 3.95518 51.3285C2.20026 51.3285 0.208038 50.4134 0.208038 47.579V44.1712C0.208038 43.7602 0.564002 43.393 1.01518 43.393H2.20173C2.62801 43.393 3.00887 43.7362 3.00887 44.1712V46.7782C3.00887 48.3331 3.67246 48.8133 4.71691 48.8133C5.35706 48.8133 5.99721 48.6071 6.56705 48.1961V44.1698H6.56412Z" fill="#FF6927"/>
</svg>
