<svg width="80" height="80" viewBox="0 0 80 80" fill="none" xmlns="http://www.w3.org/2000/svg">
<path d="M40 80C62.0914 80 80 62.0914 80 40C80 17.9086 62.0914 0 40 0C17.9086 0 0 17.9086 0 40C0 62.0914 17.9086 80 40 80Z" fill="black"/>
<path d="M40.0228 77.5948C61.0346 77.5948 78.0681 60.7327 78.0681 39.9322C78.0681 19.1317 61.0346 2.26953 40.0228 2.26953C19.011 2.26953 1.97754 19.1317 1.97754 39.9322C1.97754 60.7327 19.011 77.5948 40.0228 77.5948Z" stroke="#FED38C" stroke-miterlimit="10" stroke-linecap="round" stroke-linejoin="round" stroke-dasharray="0.06 3"/>
<path d="M25.5449 30.462C27.0451 29.3976 28.7308 28.6475 30.3749 27.8368C33.4737 26.3101 36.4664 24.5827 39.3834 22.734C42.5503 20.7263 45.5089 18.4192 48.6759 16.419C49.4525 15.9304 50.3541 15.3205 51.2936 15.222C52.2482 15.1235 52.5967 15.9038 52.6384 16.7448C52.6801 17.6048 52.5589 18.4723 52.4452 19.3208C52.2747 20.6164 52.0929 21.9158 51.8315 23.1962C51.4034 25.31 50.7897 27.3822 50.0094 29.39C49.9412 29.5642 50.2215 29.64 50.2897 29.4657C50.9981 27.6436 51.5701 25.7684 51.9906 23.8554C52.4376 21.8097 52.7937 19.6769 52.9187 17.5858C52.968 16.7373 53.0134 15.4909 52.1005 15.0553C51.4413 14.7409 50.6572 15.0401 50.0435 15.3205C48.8426 15.8735 47.7478 16.6691 46.6681 17.4191C45.0354 18.5556 43.4178 19.7148 41.77 20.8286C38.4174 23.0863 34.9511 25.1926 31.3523 27.0261C29.3521 28.0451 27.2421 28.9089 25.4048 30.212C25.2494 30.3181 25.3934 30.5681 25.5449 30.462Z" fill="#FED38C" stroke="#FED38C" stroke-width="0.5"/>
<path d="M15.4827 51.7864C15.9259 46.2215 17.248 40.5581 20.3885 35.8645C21.0211 34.9212 21.7219 34.0272 22.4909 33.19C22.6159 33.0536 22.4114 32.849 22.2864 32.9854C18.9565 36.6145 17.0018 41.24 15.9979 46.0169C15.6001 47.9186 15.3463 49.8468 15.191 51.7864C15.1758 51.972 15.4675 51.972 15.4827 51.7864Z" fill="#FED38C" stroke="#FED38C" stroke-width="0.5"/>
<path d="M40.6213 32.0676C43.7618 31.2683 46.8908 30.3856 50.0502 29.6659C50.5238 29.5598 51.0731 29.5371 51.1261 30.1621C51.1564 30.5144 51.0844 30.8933 51.0465 31.2418C50.9594 32.0638 50.8458 32.8859 50.7056 33.7003C50.4442 35.2421 50.0957 36.7688 49.6676 38.2727C49.6184 38.4508 49.8949 38.5265 49.948 38.3485C50.4404 36.6135 50.8268 34.8482 51.0996 33.0639C51.2284 32.2229 51.3458 31.3744 51.4064 30.522C51.4405 30.0598 51.3951 29.5295 50.895 29.3439C50.645 29.2492 50.3685 29.2984 50.1146 29.3477C49.6411 29.4461 49.1714 29.5863 48.7054 29.7037C47.8 29.9348 46.8909 30.1659 45.9855 30.397C44.1709 30.8592 42.3601 31.3213 40.5455 31.7835C40.3637 31.8365 40.4433 32.1131 40.6213 32.0676Z" fill="#FED38C" stroke="#FED38C" stroke-width="0.5"/>
<path d="M51.0283 29.7832C46.6908 32.9085 41.7547 37.1702 42.054 43.0572C42.0616 43.2428 42.3532 43.2428 42.3419 43.0572C42.0502 37.2801 46.9143 33.0941 51.1723 30.0294C51.3238 29.9233 51.1799 29.6733 51.0283 29.7832Z" fill="#FED38C" stroke="#FED38C" stroke-width="0.5"/>
<path d="M41.5389 57.4223C43.308 57.9375 45.187 58.2216 47.0319 58.0966C48.5434 57.9943 50.07 57.5814 51.1914 56.5131C51.3277 56.3843 51.1232 56.1797 50.9868 56.3085C49.8503 57.392 48.2593 57.7594 46.7326 57.8238C45.0052 57.8958 43.2702 57.6269 41.6147 57.142C41.4404 57.0927 41.3609 57.3693 41.5389 57.4223Z" fill="#FED38C" stroke="#FED38C" stroke-width="0.5"/>
<path d="M32.2579 50.5247C33.7922 53.006 36.0575 54.9607 38.6487 56.2752C38.8154 56.3585 38.9593 56.1085 38.7926 56.0252C36.2432 54.7296 34.0157 52.8203 32.5042 50.3769C32.4095 50.2178 32.1594 50.3656 32.2579 50.5247Z" fill="#FED38C" stroke="#FED38C" stroke-width="0.5"/>
<path d="M60.9976 54.097C60.187 55.154 59.2361 56.1427 58.0996 56.8549C56.4404 57.8966 54.4857 58.1997 52.6218 57.5254C52.4476 57.461 52.3718 57.7413 52.5461 57.8057C54.4364 58.4914 56.4555 58.1997 58.1565 57.1617C59.3763 56.4192 60.3839 55.3737 61.2477 54.2448C61.3613 54.0933 61.1075 53.9493 60.9976 54.097Z" fill="#FED38C" stroke="#FED38C" stroke-width="0.5"/>
<path d="M51.1066 31.5497C53.4591 33.7128 55.8722 35.9061 57.6186 38.6147C58.4482 39.9027 59.1225 41.2968 59.5051 42.7818C59.8991 44.3198 59.8158 45.873 59.937 47.4413C59.9976 48.2293 60.1302 49.0172 60.4332 49.7522C60.7174 50.4416 61.2591 50.972 61.5659 51.6463C61.6417 51.8167 61.8917 51.669 61.8159 51.5023C61.5394 50.8886 61.0507 50.4075 60.7666 49.7976C60.3991 49.0134 60.2741 48.1308 60.2173 47.2747C60.1188 45.7897 60.1794 44.316 59.8233 42.8614C59.1073 39.9179 57.2966 37.3684 55.2661 35.1788C54.016 33.8302 52.6636 32.5876 51.3112 31.3451C51.171 31.2201 50.9664 31.4209 51.1066 31.5497Z" fill="#FED38C" stroke="#FED38C" stroke-width="0.5"/>
<path d="M51.9022 48.312C52.3795 48.8083 52.8379 49.3197 53.2622 49.8576C53.4592 50.1076 53.7357 50.3122 54.0691 50.2895C54.4555 50.263 54.7396 49.9713 54.9025 49.6417C55.0881 49.2591 55.2018 48.831 55.27 48.4143C55.3306 48.0241 55.3912 47.5771 55.3003 47.1907C55.2548 47.0051 55.1525 46.8308 54.9745 46.7437C54.7055 46.6149 54.429 46.7437 54.1903 46.8763C53.444 47.2892 52.6902 47.687 51.9363 48.0885C51.7734 48.1756 51.9174 48.4257 52.0803 48.3385C52.6826 48.0165 53.2887 47.6983 53.8872 47.3725C54.1032 47.2551 54.3191 47.1074 54.5464 47.0202C54.626 46.9899 54.7093 46.971 54.7964 46.9861C54.8078 46.9899 54.876 47.0164 54.8419 47.0013C54.8949 47.0278 54.929 47.0619 54.9631 47.1111C55.0313 47.2172 55.0427 47.3536 55.0502 47.4748C55.0578 47.6756 55.0502 47.8802 55.0313 48.0772C54.9972 48.4446 54.9139 48.8121 54.7926 49.1606C54.679 49.4939 54.5237 49.8955 54.1411 49.9902C53.8342 50.066 53.6069 49.8273 53.4364 49.6076C53.0273 49.081 52.5765 48.5924 52.1144 48.1112C51.978 47.9749 51.7734 48.1794 51.9022 48.312Z" fill="#FED38C" stroke="#FED38C" stroke-width="0.5"/>
<path d="M54.3052 54.4913C51.6042 56.6771 49.1721 59.1773 47.0697 61.9427C46.956 62.0905 47.2098 62.2344 47.3197 62.0867C49.407 59.3402 51.8277 56.8627 54.5098 54.692C54.6537 54.5784 54.4491 54.3738 54.3052 54.4913Z" fill="#FED38C" stroke="#FED38C" stroke-width="0.5"/>
<path d="M55.2773 54.5361C52.7885 56.9378 50.6443 59.6805 48.9434 62.696C48.8525 62.8588 49.1025 63.0028 49.1934 62.8399C50.883 59.8472 53.0082 57.1235 55.4819 54.7407C55.6145 54.6119 55.4099 54.4073 55.2773 54.5361Z" fill="#FED38C" stroke="#FED38C" stroke-width="0.5"/>
<path d="M56.2215 55.847C54.5433 58.4988 53.2667 61.3817 52.456 64.4123C52.4067 64.5903 52.6871 64.6699 52.7363 64.488C53.5432 61.4802 54.8085 58.62 56.4753 55.991C56.57 55.8357 56.32 55.6917 56.2215 55.847Z" fill="#FED38C" stroke="#FED38C" stroke-width="0.5"/>
<path d="M23.8244 32.6322C24.3056 32.6322 24.6957 32.2421 24.6957 31.7609C24.6957 31.2797 24.3056 30.8896 23.8244 30.8896C23.3432 30.8896 22.9531 31.2797 22.9531 31.7609C22.9531 32.2421 23.3432 32.6322 23.8244 32.6322Z" fill="white"/>
<path d="M61.9719 53.8276C62.4531 53.8276 62.8432 53.4375 62.8432 52.9563C62.8432 52.4751 62.4531 52.085 61.9719 52.085C61.4907 52.085 61.1006 52.4751 61.1006 52.9563C61.1006 53.4375 61.4907 53.8276 61.9719 53.8276Z" fill="white"/>
<path d="M40.1027 57.892C40.5839 57.892 40.974 57.5019 40.974 57.0207C40.974 56.5395 40.5839 56.1494 40.1027 56.1494C39.6215 56.1494 39.2314 56.5395 39.2314 57.0207C39.2314 57.5019 39.6215 57.892 40.1027 57.892Z" fill="white"/>
</svg>
