<svg width="80" height="80" viewBox="0 0 80 80" fill="none" xmlns="http://www.w3.org/2000/svg">
<path d="M40 80C62.0914 80 80 62.0914 80 40C80 17.9086 62.0914 0 40 0C17.9086 0 0 17.9086 0 40C0 62.0914 17.9086 80 40 80Z" fill="black"/>
<path d="M40.0228 77.5948C61.0346 77.5948 78.0681 60.7327 78.0681 39.9322C78.0681 19.1317 61.0346 2.26953 40.0228 2.26953C19.011 2.26953 1.97754 19.1317 1.97754 39.9322C1.97754 60.7327 19.011 77.5948 40.0228 77.5948Z" stroke="#FED38C" stroke-miterlimit="10" stroke-linecap="round" stroke-linejoin="round" stroke-dasharray="0.06 3"/>
<path d="M42.4937 59.6092C48.6631 59.7857 53.8042 57.8799 56.2507 56.8564C57.279 54.0331 58.7681 48.7746 58.059 42.2103C57.208 34.1284 53.4851 28.4817 51.6059 25.976" stroke="#FED38C" stroke-width="0.8" stroke-miterlimit="10" stroke-linecap="round" stroke-linejoin="round"/>
<path d="M32.3178 20.3293C30.6868 23.8232 28.6303 29.2934 27.8857 36.246" stroke="#FED38C" stroke-width="0.8" stroke-miterlimit="10" stroke-linecap="round" stroke-linejoin="round"/>
<path d="M35.6859 36.6694C35.0832 32.6109 34.1968 29.0111 33.2749 26.0113" stroke="#FED38C" stroke-width="0.8" stroke-miterlimit="10" stroke-linecap="round" stroke-linejoin="round"/>
<path d="M38.9127 26.1172C38.2745 26.1172 37.6363 26.1172 36.998 26.1172" stroke="#FED38C" stroke-width="0.8" stroke-miterlimit="10" stroke-linecap="round" stroke-linejoin="round"/>
<path d="M43.7349 26.1172C43.0967 26.1172 42.4585 26.1172 41.8203 26.1172" stroke="#FED38C" stroke-width="0.8" stroke-miterlimit="10" stroke-linecap="round" stroke-linejoin="round"/>
<path d="M48.5211 26.1172C47.8829 26.1172 47.2447 26.1172 46.6064 26.1172" stroke="#FED38C" stroke-width="0.8" stroke-miterlimit="10" stroke-linecap="round" stroke-linejoin="round"/>
<path d="M38.1328 18.847H50.7198C51.6062 18.847 52.3153 19.5176 52.3153 20.3293V24.5643C52.3153 24.9878 52.1381 25.3407 51.8544 25.6231C51.7835 25.6936 51.6771 25.7642 51.5708 25.8348" stroke="#FED38C" stroke-width="0.8" stroke-miterlimit="10" stroke-linecap="round" stroke-linejoin="round"/>
<path d="M33.2396 26.0113C33.0978 25.9407 32.9205 25.8348 32.7432 25.6584C32.4241 25.3054 32.3887 24.8466 32.3532 24.6349C32.105 21.5292 32.3178 21.2469 32.3178 20.3293C32.3178 19.5176 33.0269 18.847 33.9133 18.847H34.8706" stroke="#FED38C" stroke-width="0.8" stroke-miterlimit="10" stroke-linecap="round" stroke-linejoin="round"/>
<path d="M35.8633 22.6938H49.1239" stroke="#FED38C" stroke-width="0.8" stroke-miterlimit="10" stroke-linecap="round" stroke-linejoin="round"/>
<path d="M23.1699 58.5152C23.3117 59.2563 23.489 59.9268 23.6663 60.5621C24.5882 61.1268 25.6873 61.6914 26.9637 62.1149C32.7077 64.0207 37.9906 62.1149 40.0826 61.2326C40.7208 59.5033 41.6427 56.2565 41.1817 52.2332C40.6499 47.257 38.3807 43.7984 37.2106 42.2456" stroke="#FED38C" stroke-width="0.8" stroke-miterlimit="10" stroke-linecap="round" stroke-linejoin="round"/>
<path d="M25.4037 38.7517C24.2691 41.2221 22.7799 45.2454 22.5317 50.4333C22.4253 52.3038 22.5317 54.0331 22.709 55.5859" stroke="#FED38C" stroke-width="0.8" stroke-miterlimit="10" stroke-linecap="round" stroke-linejoin="round"/>
<path d="M27.3894 62.1149C27.744 59.9268 27.9567 57.3505 27.9213 54.4919C27.8149 49.551 26.9285 45.3865 25.9712 42.2809" stroke="#FED38C" stroke-width="0.8" stroke-miterlimit="10" stroke-linecap="round" stroke-linejoin="round"/>
<path d="M25.9708 42.2456C25.8999 42.2103 25.7581 42.1397 25.6517 42.0338C25.439 41.8221 25.439 41.5397 25.439 41.3986C25.2971 39.4928 25.4389 39.3163 25.4035 38.7517C25.4035 38.2576 25.829 37.8341 26.3608 37.8341H36.6786C37.2104 37.8341 37.6359 38.2576 37.6359 38.7517V41.3633C37.6359 41.6103 37.5295 41.8574 37.3523 41.9985C37.2813 42.0338 37.2459 42.1044 37.175 42.1397" stroke="#FED38C" stroke-width="0.8" stroke-miterlimit="10" stroke-linecap="round" stroke-linejoin="round"/>
<path d="M27.5664 40.1986H35.7214" stroke="#FED38C" stroke-width="0.8" stroke-miterlimit="10" stroke-linecap="round" stroke-linejoin="round"/>
<path d="M53.2367 37.6576C53.5912 37.9046 53.8394 38.3282 53.8749 38.8222L53.9812 40.5868C54.0521 41.4338 53.3785 42.2103 52.5275 42.2456L43.3443 42.8455C42.4934 42.9161 41.7134 42.2456 41.6779 41.3985L41.5715 39.634C41.5006 38.7869 42.1743 38.0105 43.0252 37.9752L50.2938 37.4811" stroke="#FED38C" stroke-width="0.8" stroke-miterlimit="10" stroke-linecap="round" stroke-linejoin="round"/>
<path d="M37.8132 53.2566L31.4311 53.5743C30.8283 53.6096 30.2965 53.1508 30.2965 52.5508L30.2255 51.3156C30.1901 50.7156 30.651 50.1862 31.2538 50.1862L37.6359 49.8686C38.2387 49.8333 38.7705 50.2921 38.7705 50.8921L38.8414 52.1273C38.8769 52.692 38.416 53.2213 37.8132 53.2566Z" stroke="#FED38C" stroke-width="0.8" stroke-miterlimit="10" stroke-linecap="round" stroke-linejoin="round"/>
<path d="M51.9605 38.2929C52.4109 38.2929 52.776 37.9294 52.776 37.4811C52.776 37.0328 52.4109 36.6694 51.9605 36.6694C51.5101 36.6694 51.145 37.0328 51.145 37.4811C51.145 37.9294 51.5101 38.2929 51.9605 38.2929Z" fill="white"/>
<path d="M36.5723 19.6234C37.0227 19.6234 37.3878 19.26 37.3878 18.8117C37.3878 18.3634 37.0227 18 36.5723 18C36.122 18 35.7568 18.3634 35.7568 18.8117C35.7568 19.26 36.122 19.6234 36.5723 19.6234Z" fill="white"/>
<path d="M22.8155 57.8093C23.2659 57.8093 23.631 57.4459 23.631 56.9976C23.631 56.5493 23.2659 56.1859 22.8155 56.1859C22.3651 56.1859 22 56.5493 22 56.9976C22 57.4459 22.3651 57.8093 22.8155 57.8093Z" fill="white"/>
</svg>
