<svg width="124" height="60" viewBox="0 0 124 60" fill="none" xmlns="http://www.w3.org/2000/svg">
<g opacity="0.5">
<path fill-rule="evenodd" clip-rule="evenodd" d="M109.536 16.2762C109.536 14.4326 109.453 13.4265 109.284 13.2608C109.223 13.1997 109.044 13.1401 108.748 13.079C108.448 13.018 108.208 12.9133 108.029 12.765C107.846 12.6138 107.758 12.3492 107.758 11.9711C107.758 11.6047 107.994 11.2573 108.47 10.9243C108.946 10.5914 109.544 10.3006 110.255 10.0519C110.972 9.80187 111.684 9.60559 112.398 9.4631C113.114 9.31916 113.7 9.24792 114.153 9.24792C114.42 9.24792 114.595 9.29299 114.674 9.3875C114.755 9.482 114.793 9.66374 114.793 9.92836C114.793 10.2453 114.877 10.4038 115.045 10.4038C115.114 10.4038 115.345 10.2831 115.749 10.0447C116.149 9.80623 116.576 9.60268 117.021 9.43257C117.466 9.26246 117.966 9.17958 118.513 9.17958C119.461 9.17958 120.283 9.45583 120.98 10.004C121.677 10.5521 122.201 11.2616 122.563 12.1354C122.925 13.0122 123.104 13.9005 123.104 14.8063C123.104 15.5696 122.975 16.3257 122.711 17.073C122.449 17.8174 122.071 18.4978 121.58 19.1056C121.09 19.7133 120.504 20.1975 119.821 20.5493C119.14 20.9041 118.398 21.0815 117.598 21.0815C117.282 21.0815 116.977 21.0437 116.688 20.9724C116.4 20.8968 116.098 20.8023 115.782 20.6889C115.465 20.5755 115.287 20.5188 115.246 20.5188C115.002 20.5188 114.881 20.7573 114.881 21.24C114.881 21.6296 114.945 21.916 115.067 22.1094C115.193 22.3028 115.379 22.4758 115.631 22.6314C115.878 22.7899 116.05 22.9178 116.148 23.0167C116.247 23.1185 116.296 23.2886 116.296 23.5299C116.296 24.0853 115.979 24.459 115.344 24.6596C114.708 24.8603 114.034 24.9577 113.327 24.9577C112.341 24.9577 111.432 24.8515 110.594 24.6407C109.756 24.4284 109.094 24.1464 108.603 23.7902C108.113 23.4354 107.868 23.069 107.868 22.691C107.868 22.4002 107.91 22.2228 107.997 22.1501C108.08 22.0789 108.278 21.9538 108.59 21.7765C108.899 21.5991 109.107 21.3984 109.214 21.1716C109.428 20.7296 109.533 19.5127 109.533 17.5208V16.2762H109.536ZM93.5713 16.2762C93.5713 14.4326 93.4878 13.4265 93.3193 13.2608C93.2578 13.1997 93.0791 13.1401 92.7833 13.079C92.483 13.018 92.2428 12.9133 92.0641 12.765C91.881 12.6138 91.7931 12.3492 91.7931 11.9711C91.7931 11.6047 92.029 11.2573 92.505 10.9243C92.981 10.5914 93.5786 10.3006 94.2904 10.0519C95.0066 9.80187 95.7185 9.60559 96.4332 9.4631C97.1495 9.31916 97.7353 9.24792 98.1879 9.24792C98.4545 9.24792 98.6303 9.29299 98.7094 9.3875C98.7899 9.482 98.828 9.66374 98.828 9.92836C98.828 10.2453 98.9115 10.4038 99.0799 10.4038C99.1488 10.4038 99.3802 10.2831 99.7844 10.0447C100.184 9.80623 100.611 9.60268 101.056 9.43257C101.501 9.26246 102 9.17958 102.548 9.17958C103.496 9.17958 104.318 9.45583 105.015 10.004C105.712 10.5521 106.236 11.2616 106.598 12.1354C106.96 13.0122 107.139 13.9005 107.139 14.8063C107.139 15.5696 107.01 16.3257 106.746 17.073C106.484 17.8174 106.106 18.4978 105.615 19.1056C105.125 19.7133 104.539 20.1975 103.856 20.5493C103.175 20.9041 102.433 21.0815 101.633 21.0815C101.316 21.0815 101.012 21.0437 100.723 20.9724C100.435 20.8968 100.133 20.8023 99.8167 20.6889C99.5003 20.5755 99.3216 20.5188 99.2806 20.5188C99.0374 20.5188 98.9159 20.7573 98.9159 21.24C98.9159 21.6296 98.9803 21.916 99.1019 22.1094C99.2279 22.3028 99.4139 22.4758 99.6658 22.6314C99.9133 22.7899 100.085 22.9178 100.183 23.0167C100.282 23.1185 100.331 23.2886 100.331 23.5299C100.331 24.0853 100.014 24.459 99.3787 24.6596C98.743 24.8603 98.0693 24.9577 97.3618 24.9577C96.3761 24.9577 95.4666 24.8515 94.6288 24.6407C93.791 24.4284 93.1289 24.1464 92.6383 23.7902C92.1476 23.4354 91.903 23.069 91.903 22.691C91.903 22.4002 91.9455 22.2228 92.0319 22.1501C92.1154 22.0789 92.3131 21.9538 92.6251 21.7765C92.9341 21.5991 93.1421 21.3984 93.249 21.1716C93.4629 20.7296 93.5683 19.5127 93.5683 17.5208V16.2762H93.5713ZM77.6077 16.2762C77.6077 14.4326 77.5242 13.4265 77.3558 13.2608C77.2943 13.1997 77.1156 13.1401 76.8197 13.079C76.5194 13.018 76.2792 12.9133 76.1005 12.765C75.9175 12.6138 75.8296 12.3492 75.8296 11.9711C75.8296 11.6047 76.0654 11.2573 76.5414 10.9243C77.0174 10.5914 77.615 10.3006 78.3269 10.0519C79.0431 9.80187 79.7549 9.60559 80.4697 9.4631C81.1859 9.31916 81.7718 9.24792 82.2244 9.24792C82.491 9.24792 82.6667 9.29299 82.7458 9.3875C82.8264 9.482 82.8644 9.66374 82.8644 9.92836C82.8644 10.2453 82.9479 10.4038 83.1164 10.4038C83.1852 10.4038 83.4166 10.2831 83.8209 10.0447C84.2207 9.80623 84.647 9.60268 85.0922 9.43257C85.5375 9.26246 86.0369 9.17958 86.5847 9.17958C87.5324 9.17958 88.3541 9.45583 89.0513 10.004C89.7484 10.5521 90.2728 11.2616 90.6346 12.1354C90.9963 13.0122 91.175 13.9005 91.175 14.8063C91.175 15.5696 91.0462 16.3257 90.7825 17.073C90.5203 17.8174 90.1424 18.4978 89.6518 19.1056C89.1611 19.7133 88.5752 20.1975 87.8927 20.5493C87.2116 20.9041 86.469 21.0815 85.6693 21.0815C85.3529 21.0815 85.0483 21.0437 84.7597 20.9724C84.4712 20.8968 84.1695 20.8023 83.8531 20.6889C83.5367 20.5755 83.358 20.5188 83.317 20.5188C83.0739 20.5188 82.9523 20.7573 82.9523 21.24C82.9523 21.6296 83.0168 21.916 83.1383 22.1094C83.2643 22.3028 83.4503 22.4758 83.7022 22.6314C83.9498 22.7899 84.1211 22.9178 84.2193 23.0167C84.3189 23.1185 84.3672 23.2886 84.3672 23.5299C84.3672 24.0853 84.0508 24.459 83.4152 24.6596C82.7795 24.8603 82.1057 24.9577 81.3983 24.9577C80.4126 24.9577 79.503 24.8515 78.6652 24.6407C77.8274 24.4284 77.1654 24.1464 76.6747 23.7902C76.184 23.4354 75.9394 23.069 75.9394 22.691C75.9394 22.4002 75.9819 22.2228 76.0683 22.1501C76.1518 22.0789 76.3495 21.9538 76.6615 21.7765C76.9706 21.5991 77.1786 21.3984 77.2855 21.1716C77.4993 20.7296 77.6048 19.5127 77.6048 17.5208V16.2762H77.6077ZM70.7091 18.8017L72.0566 15.1058C72.5018 13.8671 72.8973 12.9744 73.2444 12.4306C73.4158 12.1427 73.6062 11.9319 73.8186 11.7952C74.0324 11.6585 74.2873 11.5262 74.5831 11.4056C74.8805 11.2805 75.0928 11.1482 75.2188 11.013C75.3477 10.8734 75.4136 10.651 75.4136 10.3442C75.4136 9.89492 75.1544 9.58814 74.6403 9.42966C74.1262 9.26682 73.571 9.18831 72.9734 9.18831C72.2763 9.18831 71.6069 9.28281 70.9639 9.46746C70.3238 9.65211 70.0016 10.0083 70.0016 10.5259C70.0016 10.696 70.0324 10.8283 70.0895 10.9258C70.1466 11.0203 70.2345 11.138 70.3517 11.2703C70.4732 11.407 70.5655 11.5466 70.6329 11.6862C70.6973 11.8301 70.7325 12.0148 70.7325 12.2488C70.7325 12.608 70.6139 13.0456 70.378 13.5719C70.1422 14.0939 69.8713 14.3585 69.571 14.3585C69.4421 14.3585 69.2634 14.2116 69.0349 13.9165C68.8108 13.6257 68.6087 13.2811 68.4373 12.8929C68.2616 12.5004 68.1781 12.1747 68.1781 11.9144C68.1781 11.7865 68.1927 11.6876 68.2308 11.6164C68.2645 11.5451 68.3333 11.4346 68.4329 11.2834C68.5325 11.1366 68.5999 11.0115 68.6424 10.917C68.6805 10.8225 68.7039 10.7048 68.7039 10.5739C68.7039 10.0141 68.3993 9.64484 67.7899 9.4631C67.1777 9.28136 66.5069 9.19121 65.7804 9.19121C64.304 9.19121 63.1762 9.27845 62.4043 9.44856C61.628 9.62303 61.1257 9.82658 60.8928 10.0679C60.6643 10.3093 60.5471 10.5783 60.5471 10.8691C60.5471 11.1002 60.6086 11.2805 60.7302 11.4099C60.8518 11.535 61.0466 11.6629 61.3161 11.7908C61.587 11.9159 61.7921 12.0249 61.9327 12.1122C62.0733 12.2023 62.1919 12.3463 62.2828 12.5469L65.4801 19.1928C65.9679 20.1757 66.211 20.8634 66.211 21.2516C66.211 22.2999 62.6021 27.1386 61.8272 28.3715C59.2216 32.5138 55.1864 38.5156 55.1864 44.3415C55.1864 50.2881 58.9506 57.0925 67.478 57.0925C73.4993 57.0925 79.09 52.3338 79.09 46.0921C79.09 40.2472 74.9508 36.2853 70.0807 36.2853C65.9415 36.2853 62.4365 39.2557 62.5112 43.2961C62.5713 46.5617 64.7405 48.7004 66.8775 48.7528C68.2513 48.7862 69.5827 47.7903 69.5739 46.1531C69.5681 44.9987 69.1916 44.0885 69.1858 43.3965C69.1755 41.8291 70.0133 41.3929 71.021 41.4017C72.0038 41.4104 73.8596 43.302 73.8288 45.9016C73.7893 49.2369 70.8497 51.697 67.5322 51.617C62.0528 51.4862 59.9495 48.068 59.9231 43.7963C59.8836 37.3961 63.5131 31.2881 66.2901 26.7664C67.8456 24.238 69.6838 21.5889 70.7091 18.8017ZM46.12 14.3948C45.9911 14.1041 45.8695 13.87 45.7553 13.6882C45.6411 13.5109 45.496 13.4193 45.3174 13.4193C44.9673 13.4193 44.7915 14.1302 44.7915 15.5507C44.7915 15.811 44.7989 16.1294 44.815 16.503C44.8296 16.8767 44.8384 17.0963 44.8384 17.1602C44.8384 17.8523 44.919 18.2856 45.0742 18.46C45.2309 18.6345 45.4741 18.8032 45.8007 18.9631C46.1317 19.1216 46.2987 19.36 46.2987 19.677C46.2987 20.5682 45.187 21.0146 42.9636 21.0146C41.0449 21.0146 40.0855 20.5988 40.0855 19.7671C40.0855 19.488 40.1382 19.3019 40.2496 19.2074C40.3594 19.1129 40.5396 19.0227 40.7856 18.9355C41.0332 18.8482 41.2265 18.7232 41.3686 18.5575C41.5092 18.3946 41.6015 18.1009 41.6425 17.6807C41.764 16.4682 41.8592 15.3195 41.9281 14.2378C41.9969 13.1605 42.0306 11.8723 42.0306 10.3805C42.0306 9.13306 41.9164 8.27233 41.6835 7.79253C41.6264 7.67185 41.4403 7.52064 41.124 7.34327C40.812 7.16588 40.5718 7.00014 40.4048 6.85183C40.2408 6.70063 40.1573 6.49271 40.1573 6.2281C40.1573 5.64216 40.541 5.22634 41.3071 4.98498C42.0716 4.74363 43.0046 4.62295 44.1046 4.62295C44.7666 4.62295 45.2851 4.65349 45.6542 4.71019C46.0277 4.77126 46.3046 4.8614 46.492 4.97917C46.678 5.09984 46.8084 5.22052 46.8846 5.33829C46.9607 5.45606 47.1394 5.75411 47.4177 6.22955C47.5744 6.4869 47.8937 7.12081 48.3771 8.12694C48.8604 9.1316 49.2837 9.92981 49.644 10.523C50.0087 11.1162 50.3412 11.4492 50.6415 11.5161C50.8656 11.5161 51.1058 11.3154 51.3577 10.9156C51.6096 10.5114 51.9289 9.89201 52.32 9.06036C52.7081 8.2258 52.9703 7.68494 53.1036 7.43486C53.3365 7.01177 53.5679 6.58431 53.8081 6.15831C54.0439 5.73085 54.2871 5.41389 54.5346 5.21034C54.7821 5.0097 55.1205 4.85849 55.5511 4.76399C55.9817 4.66948 56.5676 4.62441 57.3058 4.62441C59.4984 4.62441 60.594 5.12311 60.594 6.12051C60.594 6.37785 60.5486 6.55814 60.4563 6.66864C60.3684 6.77768 60.1751 6.97106 59.8734 7.2473C59.576 7.52646 59.3973 7.76927 59.3329 7.98009C59.2567 8.25634 59.1806 8.90188 59.1044 9.91527C59.0326 10.9272 58.9945 11.7254 58.9945 12.307C58.9945 12.2125 59.0707 13.8598 59.223 17.2533C59.2377 17.6197 59.3109 17.9075 59.4442 18.1111C59.5775 18.3147 59.7635 18.5008 60.0037 18.6665C60.2468 18.8323 60.4153 18.9689 60.5134 19.0751C60.613 19.1768 60.6614 19.344 60.6614 19.5665C60.6614 20.167 60.2586 20.5595 59.4515 20.7413C58.6445 20.9259 57.6705 21.0175 56.5236 21.0175C55.3709 21.0175 54.4028 20.9303 53.6265 20.7602C52.8502 20.5857 52.4621 20.2193 52.4621 19.6566C52.4621 19.4793 52.5075 19.328 52.5954 19.203C52.6832 19.0751 52.8282 18.9311 53.026 18.7726C53.2237 18.6098 53.3687 18.4819 53.4595 18.383C53.5503 18.2812 53.6162 18.1562 53.6499 18.0021C53.6836 17.8654 53.7261 17.5223 53.7788 16.9625C53.8286 16.4027 53.855 15.8822 53.855 15.3937C53.855 14.2756 53.7027 13.7159 53.398 13.7159C53.1812 13.7159 52.9601 13.8787 52.736 14.2029C52.5119 14.5315 52.2951 14.9241 52.0812 15.3893C51.8718 15.8502 51.6477 16.346 51.4119 16.8636C51.3548 16.9887 51.1688 17.4147 50.8597 18.1489C50.5477 18.8817 50.2768 19.4415 50.0453 19.8267C49.8125 20.212 49.581 20.401 49.3569 20.401C49.2002 20.3778 49.0669 20.3211 48.9571 20.2266C48.8472 20.1321 48.6788 19.8791 48.4547 19.4633C48.2262 19.0474 47.8879 18.3408 47.4382 17.3478L46.12 14.3948ZM35.98 12.3143C34.9679 12.3143 33.6395 8.51368 33.638 5.89224C33.638 4.29291 34.8127 3.33186 36.2173 3.33331C37.3905 3.33477 38.3689 4.46447 38.3689 6.09724C38.3689 8.53258 36.9321 12.3143 35.98 12.3143ZM25.985 15.5624C25.7565 15.5624 25.5954 15.5813 25.5046 15.6161C25.4167 15.6496 25.3713 15.7412 25.3713 15.8822C25.3713 16.2384 25.509 16.583 25.78 16.9058C26.0509 17.2286 26.3908 17.4903 26.7921 17.6836C27.1963 17.877 27.5786 17.9759 27.9419 17.9759C28.4384 17.9759 28.8705 17.9075 29.2293 17.7709C29.5925 17.6342 29.9441 17.4641 30.2941 17.2591C30.6413 17.0541 30.8712 16.9523 30.9855 16.9523C31.2066 16.9523 31.4131 17.0846 31.6006 17.3434C31.7881 17.6008 31.8789 17.8508 31.8789 18.0937C31.8789 18.6389 31.5918 19.1478 31.0191 19.6101C30.4465 20.0725 29.7434 20.4403 28.9115 20.7093C28.0795 20.9783 27.3033 21.1149 26.5856 21.1149C25.2791 21.1149 24.1527 20.8343 23.2021 20.2775C22.2516 19.7206 21.5339 18.9922 21.052 18.0907C20.5701 17.1879 20.3299 16.2326 20.3299 15.225C20.3299 14.0881 20.6243 13.0572 21.216 12.1311C21.8048 11.2064 22.5943 10.4852 23.583 9.95889C24.5716 9.43548 25.6335 9.17377 26.7672 9.17377C27.7031 9.17377 28.5233 9.32934 29.2381 9.64048C29.9529 9.95162 30.5402 10.35 30.9942 10.8313C31.4527 11.3169 31.7969 11.8287 32.0298 12.3666C32.2627 12.9089 32.3813 13.4047 32.3813 13.8598C32.3813 14.5417 32.2553 14.9968 32.0034 15.225C31.7515 15.4519 31.4044 15.5667 30.9606 15.5667H25.985V15.5624ZM27.9814 12.6966C27.9814 12.2677 27.8628 11.9202 27.6226 11.6498C27.3823 11.3765 27.0499 11.2398 26.6295 11.2398C26.2633 11.2398 25.9426 11.3954 25.6672 11.7094C25.3889 12.0206 25.2512 12.3652 25.2512 12.7403C25.2512 13.1794 25.5222 13.4004 26.0568 13.4004C26.1139 13.4004 26.2062 13.396 26.3351 13.3887C26.4684 13.3815 26.5636 13.3771 26.6295 13.3771H27.1099C27.3882 13.3771 27.602 13.332 27.7558 13.2448C27.9052 13.1546 27.9814 12.9729 27.9814 12.6966ZM9.76224 13.4469C9.55572 13.0718 9.37703 12.7795 9.22031 12.5643C9.06798 12.3477 8.8805 12.2416 8.65934 12.2416C8.42645 12.2416 8.18624 12.4349 7.94457 12.8173C7.69997 13.2041 7.52128 13.5487 7.40264 13.8554C7.39092 13.886 7.26496 14.1477 7.02475 14.6362C6.78454 15.1291 6.57802 15.5682 6.40226 15.9549C6.2309 16.3446 6.06978 16.7473 5.92478 17.1646C5.77977 17.5819 5.70654 17.9192 5.70654 18.1765C5.70654 18.3699 5.76073 18.5022 5.87058 18.5705C5.9819 18.6432 6.16499 18.7145 6.41691 18.7944C6.66884 18.8744 6.85924 18.9733 6.98521 19.0823C7.10677 19.1928 7.17269 19.3818 7.17269 19.6552C7.17269 20.5799 6.04195 21.0422 3.78195 21.0422C2.75521 21.0422 1.97893 20.9855 1.45604 20.8678C0.936076 20.75 0.600664 20.5988 0.443943 20.4127C0.287222 20.2237 0.206665 19.9881 0.206665 19.7003C0.206665 19.3862 0.279899 19.1841 0.420508 19.0867C0.565512 18.9922 0.840872 18.8628 1.24512 18.6956C1.64938 18.5327 1.93645 18.3437 2.10782 18.1315C2.3905 17.7898 2.83284 16.9756 3.44068 15.6947L4.88046 12.5818C5.26274 11.7371 5.55275 11.0697 5.75048 10.5768C5.94968 10.0839 6.12837 9.54161 6.28948 8.95132C6.4462 8.35666 6.52676 7.77945 6.52676 7.21823C6.52676 6.36913 6.74793 5.69741 7.18733 5.20598C7.62674 4.70874 8.33271 4.46302 9.30233 4.46302C10.1841 4.46302 10.9398 4.7887 11.5711 5.43716C12.2009 6.08561 12.8278 6.93762 13.4459 7.98881C13.5719 8.20836 13.9424 8.96295 14.5488 10.2482C15.1596 11.5364 15.7938 12.8973 16.4588 14.3265C17.1193 15.7514 17.5968 16.8026 17.8912 17.4728C18.0626 17.8596 18.2501 18.1242 18.4566 18.2725C18.6587 18.4208 18.8916 18.5342 19.1596 18.6098C19.4277 18.6898 19.6137 18.777 19.7206 18.8671C19.8319 18.9616 19.8846 19.155 19.8846 19.4502C19.8846 19.9169 19.6518 20.2658 19.186 20.4999C18.7232 20.7355 18.1812 20.8867 17.5675 20.9477C16.9494 21.0117 16.2581 21.0422 15.4906 21.0422C14.1343 21.0422 13.1237 21.019 12.4514 20.971C11.7762 20.9216 11.2416 20.7965 10.8402 20.5915C10.4433 20.3836 10.2441 20.0565 10.2441 19.6101C10.2441 19.3673 10.3056 19.1856 10.4243 19.0649C10.5458 18.9471 10.7216 18.8453 10.9545 18.7581C11.1874 18.6709 11.3631 18.5909 11.4745 18.5153C11.5858 18.4397 11.6429 18.3103 11.6429 18.1329C11.6429 17.9657 11.3602 17.1966 10.7948 15.8168C10.228 14.437 9.88381 13.6475 9.76224 13.4469ZM83.8648 12.5353C83.5646 12.5353 83.339 12.6254 83.1911 12.8115C83.0431 12.9933 82.9362 13.3931 82.8674 14.0096C82.8029 14.6289 82.7678 15.6263 82.7678 17.0017C82.7678 17.3652 82.8586 17.6255 83.0417 17.784C83.2277 17.9424 83.525 18.0224 83.9322 18.0224C84.9985 18.0224 85.5316 17.153 85.5316 15.4155C85.5316 14.9808 85.4892 14.5431 85.4027 14.1041C85.3149 13.6693 85.1479 13.2957 84.896 12.9933C84.6484 12.6865 84.3072 12.5353 83.8648 12.5353ZM99.8298 12.5353C99.5296 12.5353 99.304 12.6254 99.1561 12.8115C99.0081 12.9933 98.9012 13.3931 98.8324 14.0096C98.7679 14.6289 98.7328 15.6263 98.7328 17.0017C98.7328 17.3652 98.8236 17.6255 99.0067 17.784C99.1927 17.9424 99.49 18.0224 99.8972 18.0224C100.964 18.0224 101.497 17.153 101.497 15.4155C101.497 14.9808 101.454 14.5431 101.368 14.1041C101.28 13.6693 101.113 13.2957 100.861 12.9933C100.613 12.6865 100.271 12.5353 99.8298 12.5353ZM115.793 12.5353C115.493 12.5353 115.268 12.6254 115.12 12.8115C114.972 12.9933 114.865 13.3931 114.796 14.0096C114.731 14.6289 114.696 15.6263 114.696 17.0017C114.696 17.3652 114.787 17.6255 114.97 17.784C115.156 17.9424 115.454 18.0224 115.861 18.0224C116.927 18.0224 117.46 17.153 117.46 15.4155C117.46 14.9808 117.418 14.5431 117.331 14.1041C117.243 13.6693 117.076 13.2957 116.825 12.9933C116.578 12.6865 116.236 12.5353 115.793 12.5353Z" fill="white"/>
<path fill-rule="evenodd" clip-rule="evenodd" d="M2.69547 27.9397C2.6193 27.9731 2.50652 28.0066 2.35713 28.0429C2.20773 28.0778 2.03197 28.0953 1.83277 28.0953C1.59549 28.0953 1.37872 28.0604 1.18392 27.9891C0.989114 27.9193 0.822141 27.8161 0.684461 27.6809C0.546781 27.5457 0.439859 27.3843 0.363696 27.1967C0.287532 27.0077 0.249451 26.7955 0.249451 26.5599C0.249451 26.3316 0.290462 26.1223 0.371019 25.9289C0.451577 25.737 0.565822 25.5683 0.713754 25.4259C0.861687 25.2834 1.04038 25.1714 1.25276 25.09C1.46367 25.0086 1.70095 24.9693 1.96166 24.9693C2.11838 24.9693 2.26485 24.9839 2.3996 25.0129C2.53582 25.042 2.64127 25.0755 2.71744 25.1118L2.58269 25.516C2.51678 25.4869 2.43182 25.4593 2.3293 25.4317C2.22677 25.404 2.10227 25.391 1.95434 25.391C1.77418 25.391 1.616 25.4215 1.47978 25.484C1.34357 25.5465 1.23079 25.6294 1.13705 25.7355C1.04477 25.8417 0.975932 25.9638 0.930527 26.1019C0.885122 26.2401 0.863152 26.3869 0.863152 26.5396C0.863152 26.714 0.889516 26.8696 0.942244 27.0092C0.994973 27.1473 1.06967 27.2665 1.16634 27.3639C1.26301 27.4614 1.37872 27.5355 1.512 27.5878C1.64529 27.6402 1.79029 27.6649 1.94701 27.6649C2.09495 27.6649 2.22091 27.6518 2.3249 27.6271C2.42889 27.6024 2.52263 27.5733 2.60319 27.5399L2.69547 27.9397ZM3.67241 26.6166C3.67241 26.8158 3.7017 26.983 3.76175 27.1197C3.82181 27.2564 3.9009 27.3654 4.0005 27.4483C4.10009 27.5311 4.21434 27.5908 4.34323 27.6286C4.47212 27.6664 4.60541 27.6838 4.74309 27.6838C4.93789 27.6838 5.10194 27.6707 5.23522 27.6431C5.36851 27.6155 5.48422 27.582 5.58528 27.5413L5.68488 27.9208C5.58089 27.9659 5.44174 28.0066 5.26744 28.0415C5.09315 28.0764 4.89102 28.0938 4.65814 28.0938C4.41061 28.0938 4.18944 28.0575 3.99464 27.9848C3.79984 27.9121 3.63579 27.8103 3.50251 27.6765C3.36922 27.5442 3.26669 27.3843 3.19639 27.1982C3.12462 27.0121 3.08947 26.8042 3.08947 26.5774C3.08947 26.3447 3.12462 26.131 3.19346 25.9347C3.2623 25.7384 3.3619 25.5683 3.49225 25.4259C3.62261 25.2834 3.77933 25.1714 3.96241 25.09C4.1455 25.0086 4.35055 24.9693 4.57905 24.9693C4.82658 24.9693 5.0331 25.0144 5.20007 25.1031C5.36704 25.1918 5.49886 25.3052 5.59553 25.4418C5.69367 25.5785 5.76251 25.7283 5.80205 25.8897C5.84306 26.051 5.8621 26.2066 5.8621 26.3564C5.8621 26.4683 5.85478 26.5556 5.84013 26.6166H3.67241ZM5.28502 26.2371C5.28502 26.1339 5.2733 26.0292 5.24987 25.9231C5.22643 25.817 5.18396 25.7225 5.12537 25.6367C5.06532 25.5523 4.98623 25.484 4.88663 25.4317C4.78703 25.3793 4.66546 25.3546 4.52339 25.3546C4.38571 25.3546 4.2656 25.3822 4.16308 25.4389C4.06055 25.4942 3.97706 25.5654 3.90969 25.6498C3.84378 25.7341 3.79105 25.8286 3.75297 25.9318C3.71488 26.035 3.69145 26.1368 3.6812 26.2357H5.28502V26.2371ZM8.72848 25.0318V25.4549H7.7369V28.04H7.13784V25.4549H6.14625V25.0318H8.72848ZM9.81967 25.0318V26.0699C9.89583 26.0612 9.97786 26.054 10.0643 26.0481C10.1522 26.0423 10.2371 26.0394 10.3177 26.0394C10.5066 26.0394 10.6926 26.0554 10.8757 26.0888C11.0573 26.1223 11.2199 26.1775 11.362 26.256C11.5041 26.3346 11.6183 26.4378 11.7032 26.5643C11.7882 26.6908 11.8321 26.8492 11.8321 27.0397C11.8321 27.1967 11.7985 27.3334 11.7325 27.4468C11.6666 27.5602 11.5773 27.6591 11.463 27.742C11.3781 27.8045 11.2785 27.8568 11.1686 27.9004C11.0573 27.9441 10.9402 27.9775 10.8186 28.0037C10.6985 28.0284 10.5754 28.0458 10.4495 28.056C10.325 28.0662 10.202 28.072 10.0833 28.072C9.92659 28.072 9.77573 28.0676 9.6278 28.0589C9.47987 28.0502 9.34658 28.04 9.22208 28.0284V25.0333H9.81967V25.0318ZM9.81967 27.6664C9.87679 27.6751 9.93685 27.6794 9.99836 27.6824C10.0599 27.6838 10.1331 27.6853 10.2195 27.6853C10.3382 27.6853 10.4568 27.6751 10.5754 27.6547C10.6941 27.6344 10.8025 27.5995 10.9006 27.5486C10.9987 27.4992 11.0778 27.4337 11.1393 27.3523C11.2009 27.2709 11.2316 27.1706 11.2316 27.0513C11.2316 26.9278 11.1994 26.8245 11.135 26.7431C11.0705 26.6617 10.9885 26.5977 10.8889 26.5512C10.7893 26.5032 10.678 26.4698 10.5579 26.4523C10.4363 26.4334 10.3191 26.4247 10.2049 26.4247C10.1331 26.4247 10.0672 26.4262 10.0057 26.4305C9.94417 26.4349 9.88265 26.4407 9.81967 26.4494V27.6664ZM14.2137 26.2924H14.4847C14.6033 26.2924 14.7132 26.2793 14.8128 26.2546C14.9124 26.2299 14.9988 26.195 15.0735 26.1514C15.1467 26.1077 15.2053 26.0554 15.2478 25.9958C15.2903 25.9362 15.3122 25.8678 15.3122 25.7937C15.3122 25.6527 15.2522 25.5436 15.1335 25.468C15.0149 25.391 14.8626 25.3532 14.6765 25.3532C14.5477 25.3532 14.4158 25.3721 14.2811 25.4084C14.1449 25.4462 14.0233 25.4927 13.9135 25.5509L13.7714 25.2208C13.9237 25.1336 14.0907 25.0696 14.2738 25.0289C14.4568 24.9882 14.6414 24.9664 14.8259 24.9664C14.9592 24.9664 15.0925 24.9809 15.2258 25.01C15.3591 25.0391 15.4792 25.0856 15.5861 25.1496C15.693 25.2136 15.778 25.295 15.8424 25.3924C15.9069 25.4898 15.9391 25.6061 15.9391 25.7428C15.9391 25.8388 15.9171 25.9231 15.8747 25.9972C15.8322 26.0714 15.7765 26.1397 15.7077 26.1993C15.6388 26.259 15.5598 26.3084 15.4689 26.3491C15.3781 26.3884 15.2859 26.4189 15.1907 26.4392V26.4523C15.3137 26.4654 15.4309 26.4901 15.5407 26.5265C15.6506 26.5643 15.7458 26.6152 15.8293 26.6791C15.9127 26.7431 15.9772 26.8187 16.0255 26.906C16.0724 26.9932 16.0973 27.0921 16.0973 27.204C16.0973 27.3654 16.0563 27.5021 15.9728 27.614C15.8893 27.726 15.7809 27.8176 15.6447 27.8903C15.5085 27.963 15.3576 28.0153 15.1877 28.0487C15.0193 28.0822 14.8465 28.0982 14.6707 28.0982C14.4847 28.0982 14.3031 28.0778 14.1258 28.0386C13.9471 27.9993 13.7875 27.9426 13.644 27.8714L13.8007 27.5079C13.9105 27.5617 14.0365 27.6067 14.1815 27.6446C14.3265 27.6824 14.4744 27.6998 14.6268 27.6998C14.8831 27.6998 15.0837 27.6504 15.2287 27.5515C15.3737 27.4526 15.447 27.329 15.447 27.1807C15.447 27.0819 15.4206 26.999 15.3679 26.9307C15.3152 26.8638 15.2448 26.8085 15.154 26.7664C15.0632 26.7257 14.9607 26.6966 14.8479 26.6806C14.7337 26.6646 14.618 26.6559 14.4979 26.6559H14.2196L14.2137 26.2924ZM18.0995 28.1011C17.8901 28.1011 17.6938 28.0662 17.5107 27.9993C17.3276 27.931 17.168 27.8307 17.0332 27.6983C16.8985 27.566 16.7915 27.4047 16.7154 27.2142C16.6392 27.0237 16.6011 26.8042 16.6011 26.5556C16.6011 26.2953 16.6422 26.0656 16.7227 25.8693C16.8033 25.673 16.9146 25.5073 17.0537 25.375C17.1943 25.2427 17.3584 25.1423 17.5459 25.074C17.7333 25.0057 17.934 24.9722 18.1478 24.9722C18.3661 24.9722 18.5667 25.0071 18.7498 25.0784C18.9329 25.1481 19.0911 25.2514 19.2244 25.3866C19.3577 25.5218 19.4602 25.6832 19.5349 25.8737C19.6081 26.0641 19.6447 26.2793 19.6447 26.5192C19.6447 26.8013 19.5979 27.0426 19.5056 27.2433C19.4133 27.4439 19.2947 27.6082 19.1497 27.7376C19.0047 27.8656 18.8406 27.9586 18.6576 28.0168C18.4745 28.0749 18.2899 28.104 18.1054 28.104H18.0995V28.1011ZM18.1288 27.7042C18.2709 27.7042 18.3983 27.6722 18.5111 27.6082C18.6224 27.5442 18.7176 27.4584 18.7967 27.3509C18.8758 27.2433 18.9344 27.1182 18.9754 26.9787C19.0164 26.8376 19.0354 26.6893 19.0354 26.5308C19.0354 26.4073 19.0193 26.2764 18.9886 26.1397C18.9578 26.0031 18.9065 25.878 18.8348 25.7632C18.763 25.6498 18.6693 25.5552 18.5536 25.4811C18.4364 25.4069 18.2958 25.3691 18.1288 25.3691C17.9618 25.3691 17.8212 25.4055 17.704 25.4782C17.5869 25.5509 17.4931 25.6425 17.4228 25.7544C17.3511 25.8664 17.2998 25.9914 17.2661 26.131C17.2324 26.2691 17.2163 26.4073 17.2163 26.5439C17.2163 26.6966 17.2368 26.8434 17.2764 26.9816C17.3174 27.1197 17.376 27.2433 17.455 27.3509C17.5341 27.4584 17.6293 27.5442 17.7407 27.6082C17.852 27.6722 17.9794 27.7042 18.1215 27.7042H18.1288ZM21.6587 28.1011C21.4492 28.1011 21.253 28.0662 21.0699 27.9993C20.8868 27.931 20.7271 27.8307 20.5924 27.6983C20.4562 27.566 20.3507 27.4047 20.2746 27.2142C20.1984 27.0237 20.1603 26.8042 20.1603 26.5556C20.1603 26.2953 20.2013 26.0656 20.2819 25.8693C20.3624 25.673 20.4738 25.5073 20.6129 25.375C20.7535 25.2427 20.9176 25.1423 21.105 25.074C21.2925 25.0057 21.4932 24.9722 21.707 24.9722C21.9253 24.9722 22.1259 25.0071 22.309 25.0784C22.4921 25.1481 22.6503 25.2514 22.7836 25.3866C22.9168 25.5218 23.0194 25.6832 23.0941 25.8737C23.1673 26.0641 23.2039 26.2793 23.2039 26.5192C23.2039 26.8013 23.157 27.0426 23.0648 27.2433C22.9725 27.4439 22.8539 27.6082 22.7089 27.7376C22.5639 27.8656 22.3998 27.9586 22.2167 28.0168C22.0336 28.0749 21.8491 28.104 21.6645 28.104H21.6587V28.1011ZM21.6865 27.7042C21.8286 27.7042 21.956 27.6722 22.0673 27.6082C22.1786 27.5442 22.2738 27.4584 22.3529 27.3509C22.432 27.2433 22.4906 27.1182 22.5316 26.9787C22.5726 26.8376 22.5917 26.6893 22.5917 26.5308C22.5917 26.4073 22.5756 26.2764 22.5448 26.1397C22.5141 26.0031 22.4628 25.878 22.391 25.7632C22.3193 25.6498 22.2255 25.5552 22.1098 25.4811C21.9926 25.4069 21.852 25.3691 21.685 25.3691C21.5181 25.3691 21.3775 25.4055 21.2603 25.4782C21.1431 25.5509 21.0494 25.6425 20.9791 25.7544C20.9073 25.8664 20.856 25.9914 20.8223 26.131C20.7887 26.2691 20.7726 26.4073 20.7726 26.5439C20.7726 26.6966 20.7931 26.8434 20.8326 26.9816C20.8736 27.1197 20.9322 27.2433 21.0113 27.3509C21.0904 27.4584 21.1856 27.5442 21.2969 27.6082C21.4082 27.6722 21.5356 27.7042 21.6777 27.7042H21.6865ZM24.0124 25.0318H24.7404L25.3175 26.4858C25.3643 26.6181 25.417 26.762 25.4742 26.9176C25.5313 27.0732 25.584 27.2185 25.6309 27.3552H25.6382C25.6866 27.2185 25.7437 27.0586 25.8125 26.874C25.8814 26.6893 25.9487 26.5119 26.0161 26.3433L26.5361 25.0318H27.2713L27.5145 28.0386H26.9432L26.8642 26.6472C26.8554 26.4727 26.8451 26.2953 26.8363 26.1121C26.8275 25.9304 26.8173 25.7283 26.8085 25.5087H26.7865C26.7441 25.6541 26.6957 25.8053 26.6401 25.9624C26.5859 26.1194 26.5112 26.3127 26.416 26.5396L25.8169 28.0182H25.3819L24.8107 26.5774C24.7535 26.416 24.6935 26.2371 24.6291 26.0394C24.5646 25.8431 24.5119 25.6672 24.4679 25.5145H24.4401C24.4357 25.7137 24.4284 25.9086 24.4181 26.1019C24.4094 26.2938 24.3991 26.4799 24.3903 26.6588L24.3112 28.0386H23.7546L24.0124 25.0318ZM30.5302 27.3305C30.5302 27.4541 30.5332 27.5777 30.5376 27.6998C30.542 27.8219 30.5566 27.9353 30.58 28.0386H30.0381L29.9883 27.678H29.9663C29.8755 27.7943 29.751 27.8932 29.5914 27.976C29.4317 28.0589 29.2413 28.0996 29.0172 28.0996C28.8605 28.0996 28.7214 28.0764 28.5998 28.0284C28.4782 27.9804 28.3757 27.9179 28.2937 27.8394C28.2102 27.7609 28.1472 27.6693 28.1047 27.566C28.0623 27.4628 28.0403 27.3523 28.0403 27.2375C28.0403 26.8725 28.2087 26.5963 28.5471 26.4073C28.8839 26.2182 29.3453 26.1266 29.9312 26.131V26.0569C29.9312 25.9827 29.9224 25.9042 29.9063 25.8242C29.8902 25.7428 29.8565 25.6687 29.8067 25.6003C29.7569 25.532 29.6851 25.4767 29.5929 25.4331C29.5006 25.3895 29.3746 25.3677 29.2179 25.3677C29.07 25.3677 28.9279 25.3851 28.7902 25.42C28.6525 25.4549 28.528 25.5058 28.4196 25.5727L28.2834 25.2121C28.4065 25.1423 28.5588 25.0842 28.7404 25.0376C28.9206 24.9926 29.1139 24.9693 29.3175 24.9693C29.5504 24.9693 29.7452 25.0013 29.9019 25.0653C30.0586 25.1292 30.1831 25.2165 30.2769 25.3255C30.3691 25.436 30.435 25.5611 30.4731 25.705C30.5112 25.8475 30.5302 25.9987 30.5302 26.1557V27.3305ZM29.9458 26.4989C29.8038 26.4989 29.6558 26.5061 29.5035 26.5207C29.3512 26.5352 29.2106 26.5657 29.0831 26.6137C28.9543 26.6617 28.8488 26.73 28.7653 26.8216C28.6818 26.9132 28.6408 27.0324 28.6408 27.1822C28.6408 27.3683 28.695 27.5021 28.8049 27.5835C28.9147 27.6649 29.0377 27.7042 29.1754 27.7042C29.3746 27.7042 29.5372 27.6562 29.6646 27.5617C29.7906 27.4657 29.8755 27.3523 29.918 27.22C29.9371 27.1706 29.9458 27.1124 29.9458 27.0455V26.4989ZM31.472 26.0016C31.472 25.7951 31.4691 25.6149 31.4647 25.4607C31.4603 25.3081 31.453 25.1641 31.4427 25.0318H31.9774L32.0125 25.5044H32.0272C32.2688 25.1481 32.6262 24.9693 33.1008 24.9693C33.2912 24.9693 33.4669 25.0057 33.631 25.0784C33.795 25.1511 33.9342 25.2528 34.0499 25.3866C34.1656 25.5189 34.2564 25.6803 34.3238 25.8678C34.3897 26.0569 34.4234 26.2662 34.4234 26.4989C34.4234 26.7722 34.3824 27.0092 34.3018 27.2098C34.2227 27.4105 34.1158 27.5777 33.9854 27.71C33.8551 27.8423 33.7042 27.9412 33.5343 28.0051C33.3644 28.0691 33.1886 28.1011 33.0085 28.1011C32.7946 28.1011 32.6086 28.0618 32.4504 27.9833C32.2908 27.9048 32.1692 27.7987 32.0843 27.6664H32.0682L32.0696 29.257H31.4706V26.0016H31.472ZM32.0711 26.8522C32.0711 26.9394 32.0799 27.0165 32.0989 27.0819C32.1516 27.2811 32.2527 27.4294 32.405 27.5297C32.5574 27.6286 32.7229 27.6794 32.9045 27.6794C33.0568 27.6794 33.1901 27.6504 33.3044 27.5922C33.4186 27.5341 33.5153 27.4541 33.5929 27.3494C33.672 27.2462 33.7291 27.124 33.7672 26.983C33.8053 26.842 33.8243 26.6893 33.8243 26.5236C33.8243 26.3709 33.8053 26.227 33.7672 26.0918C33.7291 25.9565 33.672 25.8373 33.5958 25.7341C33.5197 25.6309 33.4245 25.548 33.3102 25.4884C33.196 25.4288 33.0656 25.3982 32.9177 25.3982C32.7317 25.3982 32.5618 25.4578 32.408 25.5785C32.2542 25.6992 32.1531 25.8504 32.1048 26.0321C32.0813 26.1063 32.0696 26.1819 32.0696 26.256V26.8522H32.0711ZM35.765 25.0318V26.3433H35.8939L37.07 25.0318H37.7833L36.4065 26.3927C36.6775 26.4262 36.8957 26.5207 37.0598 26.6748C37.2238 26.8304 37.363 27.0339 37.4772 27.2869C37.5197 27.3945 37.5695 27.5166 37.6266 27.6533C37.6837 27.7899 37.7482 27.9179 37.8185 28.0386H37.1916C37.1447 27.9644 37.0949 27.8714 37.0451 27.7594C36.9953 27.6475 36.9441 27.5268 36.8914 27.3988C36.7874 27.1633 36.657 26.9888 36.5032 26.8769C36.3494 26.7649 36.1356 26.7097 35.8646 26.7097H35.765V28.04H35.166V25.0333H35.765V25.0318ZM38.668 26.6166C38.668 26.8158 38.6973 26.983 38.7574 27.1197C38.8174 27.2564 38.8965 27.3654 38.9961 27.4483C39.0957 27.5311 39.2099 27.5908 39.3388 27.6286C39.4677 27.6664 39.601 27.6838 39.7387 27.6838C39.9335 27.6838 40.0975 27.6707 40.2308 27.6431C40.3641 27.6155 40.4798 27.582 40.5809 27.5413L40.6805 27.9208C40.5765 27.9659 40.4373 28.0066 40.263 28.0415C40.0887 28.0764 39.8866 28.0938 39.6537 28.0938C39.4062 28.0938 39.185 28.0575 38.9902 27.9848C38.7954 27.9121 38.6314 27.8103 38.4981 27.6765C38.3648 27.5442 38.2623 27.3843 38.192 27.1982C38.1202 27.0121 38.0851 26.8042 38.0851 26.5774C38.0851 26.3447 38.1188 26.131 38.1891 25.9347C38.2579 25.7384 38.3575 25.5683 38.4893 25.4259C38.6197 25.2834 38.7764 25.1714 38.9595 25.09C39.1426 25.0086 39.3476 24.9693 39.5761 24.9693C39.8236 24.9693 40.0302 25.0144 40.1971 25.1031C40.3641 25.1918 40.4959 25.3052 40.5926 25.4418C40.6907 25.5785 40.7596 25.7283 40.7991 25.8897C40.8401 26.051 40.8592 26.2066 40.8592 26.3564C40.8592 26.4683 40.8518 26.5556 40.8372 26.6166H38.668ZM40.2792 26.2371C40.2792 26.1339 40.2674 26.0292 40.244 25.9231C40.2206 25.817 40.1781 25.7225 40.1195 25.6367C40.0595 25.5523 39.9804 25.484 39.8808 25.4317C39.7812 25.3793 39.6596 25.3546 39.5175 25.3546C39.3798 25.3546 39.2597 25.3822 39.1572 25.4389C39.0547 25.4942 38.9712 25.5654 38.9038 25.6498C38.8379 25.7341 38.7852 25.8286 38.7471 25.9318C38.709 26.035 38.6856 26.1368 38.6753 26.2357H40.2792V26.2371ZM43.7241 25.0318V25.4549H42.7325V28.04H42.1334V25.4549H41.1419V25.0318H43.7241ZM45.4216 28.1011C45.2122 28.1011 45.0159 28.0662 44.8328 27.9993C44.6498 27.931 44.4901 27.8307 44.3554 27.6983C44.2206 27.566 44.1137 27.4047 44.0375 27.2142C43.9614 27.0237 43.9233 26.8042 43.9233 26.5556C43.9233 26.2953 43.9643 26.0656 44.0448 25.8693C44.1254 25.673 44.2367 25.5073 44.3759 25.375C44.5165 25.2427 44.6805 25.1423 44.868 25.074C45.0555 25.0057 45.2561 24.9722 45.47 24.9722C45.6882 24.9722 45.8889 25.0071 46.072 25.0784C46.2551 25.1481 46.4132 25.2514 46.5465 25.3866C46.6798 25.5218 46.7823 25.6832 46.857 25.8737C46.9303 26.0641 46.9684 26.2793 46.9684 26.5192C46.9684 26.8013 46.9215 27.0426 46.8292 27.2433C46.7369 27.4439 46.6183 27.6082 46.4733 27.7376C46.3283 27.8656 46.1642 27.9586 45.9812 28.0168C45.7981 28.0749 45.6135 28.104 45.429 28.104H45.4216V28.1011ZM45.4495 27.7042C45.5915 27.7042 45.719 27.6722 45.8303 27.6082C45.9416 27.5442 46.0368 27.4584 46.1159 27.3509C46.195 27.2433 46.2536 27.1182 46.2946 26.9787C46.3356 26.8391 46.3547 26.6893 46.3547 26.5308C46.3547 26.4073 46.3385 26.2764 46.3078 26.1397C46.277 26.0031 46.2258 25.878 46.154 25.7632C46.0822 25.6498 45.9885 25.5552 45.8728 25.4811C45.7556 25.4069 45.615 25.3691 45.448 25.3691C45.281 25.3691 45.1404 25.4055 45.0233 25.4782C44.9061 25.5509 44.8123 25.6425 44.742 25.7544C44.6703 25.8664 44.619 25.9914 44.5853 26.131C44.5516 26.2691 44.5355 26.4073 44.5355 26.5439C44.5355 26.6966 44.556 26.8434 44.5956 26.9816C44.6366 27.1197 44.6952 27.2433 44.7743 27.3509C44.8534 27.4584 44.9471 27.5442 45.0599 27.6082C45.1712 27.6722 45.2986 27.7042 45.4422 27.7042H45.4495ZM47.6963 25.0624C47.8193 25.042 47.9731 25.0246 48.1533 25.0129C48.3349 24.9998 48.5165 24.994 48.6967 24.994C48.8402 24.994 48.9969 25.0028 49.1698 25.0187C49.3411 25.0347 49.5008 25.0711 49.6487 25.1249C49.7966 25.1787 49.9182 25.2557 50.0178 25.3546C50.1159 25.4535 50.1643 25.5843 50.1643 25.7457C50.1643 25.9318 50.094 26.0845 49.9548 26.2023C49.8157 26.32 49.6458 26.3985 49.4437 26.4349V26.448C49.7 26.4814 49.908 26.5599 50.0676 26.6835C50.2273 26.8071 50.3064 26.9772 50.3064 27.1924C50.3064 27.3828 50.2478 27.5355 50.1321 27.6518C50.0149 27.7681 49.8699 27.8568 49.697 27.9193C49.5242 27.9819 49.3367 28.0226 49.1375 28.0429C48.9383 28.0633 48.7553 28.0735 48.5883 28.0735C48.4081 28.0735 48.2353 28.0691 48.0713 28.0604C47.9072 28.0517 47.7827 28.0444 47.6963 28.0357V25.0624ZM48.2807 26.2997H48.6806C48.7846 26.2997 48.8915 26.2909 48.9984 26.272C49.1053 26.2531 49.2005 26.2241 49.284 26.1848C49.3675 26.1455 49.4349 26.0961 49.4876 26.035C49.5403 25.9754 49.5667 25.9013 49.5667 25.814C49.5667 25.657 49.4935 25.5422 49.3455 25.4724C49.1976 25.4026 48.9837 25.3662 48.704 25.3662C48.6132 25.3662 48.537 25.3677 48.4755 25.3721C48.414 25.3764 48.3495 25.3822 48.2836 25.391V26.2997H48.2807ZM48.2734 27.6911C48.3451 27.6998 48.414 27.7042 48.4799 27.7071C48.5458 27.7085 48.622 27.71 48.7084 27.71C48.8124 27.71 48.9237 27.7027 49.0394 27.6882C49.1566 27.6736 49.262 27.6475 49.3572 27.6111C49.4524 27.5733 49.5315 27.521 49.596 27.4526C49.6604 27.3843 49.6927 27.2956 49.6927 27.188C49.6927 27.0848 49.6648 26.9976 49.6077 26.9278C49.5506 26.858 49.4759 26.8027 49.3836 26.7635C49.2913 26.7242 49.1815 26.6966 49.0555 26.6791C48.9296 26.6631 48.8007 26.6544 48.6674 26.6544H48.2748V27.6911H48.2734Z" fill="white"/>
</g>
</svg>
