<svg width="186" height="44" viewBox="0 0 186 44" fill="none" xmlns="http://www.w3.org/2000/svg">
<path d="M186 0H0V44H186V0Z" fill="#AE119C"/>
<path fill-rule="evenodd" clip-rule="evenodd" d="M16.0296 30.5454L11.127 12.4117H14.3472L18.1148 26.3406L22.1531 12.4117H25.1519L29.2086 26.4112L32.9917 12.4147L36.2119 12.4117L31.3062 30.5423L27.5755 30.5392L23.6571 16.9973L19.7357 30.5423L16.0296 30.5454ZM38.4263 12.4209H41.4896V30.5362H38.4263V12.4209ZM48.0377 27.6951H55.493V30.5362H45.0358V12.4209H48.0346V27.6951H48.0377ZM64.9136 12.4424C67.4295 12.4424 69.5209 13.3208 71.1664 15.0561C72.8365 16.7915 73.6792 18.9415 73.6792 21.4877C73.6792 24.0155 72.8365 26.1686 71.1664 27.9254C69.5209 29.6608 67.4295 30.5362 64.9136 30.5362H57.7136V12.4209H64.9136V12.4424ZM64.9136 27.7135C66.6483 27.7135 68.0631 27.1299 69.1211 25.9597C70.2191 24.7895 70.7666 23.2845 70.7666 21.5092C70.7666 19.6909 70.2191 18.232 69.1211 17.0618C68.0446 15.8916 66.6268 15.3049 64.9136 15.3049H60.7339V27.7135H64.9136ZM89.8416 25.3608C89.8416 26.8443 89.3157 28.0759 88.2362 29.0588C87.1597 30.0416 85.8925 30.5423 84.3301 30.5423H76.4903V12.4209H83.758C85.2559 12.4209 86.523 12.9215 87.5595 13.8614C88.6175 14.8227 89.125 16.0144 89.125 17.4334C89.125 19.0214 88.4914 20.2346 87.2673 21.1345C88.8697 21.9761 89.8416 23.4811 89.8416 25.3608ZM79.5137 15.222V19.9858H83.7796C85.1113 19.9858 86.1232 18.9415 86.1232 17.6054C86.1232 16.2694 85.1113 15.222 83.7796 15.222H79.5137ZM84.3516 27.7442C85.7418 27.7442 86.8429 26.6354 86.8429 25.2164C86.8429 23.7944 85.7449 22.6887 84.3516 22.6887H79.5137V27.7657H84.3516V27.7442ZM95.6915 27.7012H103.805V30.5423H92.6927V12.4209H103.679V15.2619H95.6915V19.9674H103.024V22.79H95.6915V27.7012ZM116.944 30.5423L113.06 23.9387H109.51V30.5423H106.512V12.4209H113.841C115.486 12.4209 116.883 12.986 118.002 14.1347C119.143 15.2435 119.737 16.6226 119.737 18.2504C119.737 20.554 118.279 22.6641 116.101 23.4995L120.263 30.5423H116.944ZM109.507 15.222V21.285H113.819C115.422 21.285 116.692 19.9489 116.692 18.2504C116.692 16.5796 115.403 15.222 113.819 15.222H109.507ZM132.974 30.5423L129.108 23.9356H125.559V30.5423H122.56V12.4117H129.889C131.538 12.4117 132.931 12.9768 134.051 14.1286C135.192 15.2374 135.782 16.6164 135.782 18.2474C135.782 20.5448 134.324 22.661 132.15 23.4964L136.311 30.5423H132.974ZM125.559 15.2159V21.2789H129.868C131.473 21.2789 132.741 19.9428 132.741 18.2474C132.741 16.5704 131.449 15.2128 129.868 15.2128H125.559V15.2159ZM138.51 12.4147H141.509V30.5423H138.51V12.4147ZM148.057 27.7012H156.171V30.5423H145.058V12.4209H156.041V15.2619H148.057V19.9674H155.389V22.79H148.057V27.7012ZM158.262 26.4204L160.861 24.9154C161.596 26.9641 163.1 27.9654 165.401 27.9654C167.683 27.9654 168.799 27.004 168.799 25.5819C168.799 24.8294 168.482 24.2858 167.889 23.9111C167.298 23.5118 166.2 23.0757 164.638 22.6149C162.885 22.0928 162.021 21.758 160.79 20.9625C159.609 20.1271 159.016 18.9384 159.016 17.3075C159.016 15.6981 159.588 14.4449 160.75 13.5051C161.891 12.5437 163.285 12.083 164.912 12.083C167.849 12.083 170.106 13.588 171.294 16.0759L168.759 17.5164C168 15.8455 166.708 14.9886 164.912 14.9886C163.162 14.9886 162.042 15.867 162.042 17.2461C162.042 18.5791 162.928 19.2057 165.739 20.0626C166.434 20.2929 166.942 20.4619 167.258 20.5847C167.597 20.6891 168.04 20.8765 168.609 21.1069C169.202 21.3372 169.663 21.6075 169.94 21.8379C170.912 22.5904 171.946 23.822 171.819 25.5574C171.819 27.1883 171.226 28.5029 170.023 29.4642C168.839 30.4256 167.277 30.8832 165.336 30.8832C161.79 30.8709 159.212 29.197 158.262 26.4204Z" fill="white"/>
</svg>
